<?xml version="1.0" standalone="no"?>
<!DOCTYPE svg PUBLIC "-//W3C//DTD SVG 1.1//EN" "http://www.w3.org/Graphics/SVG/1.1/DTD/svg11.dtd" >
<svg xmlns="http://www.w3.org/2000/svg">
<metadata></metadata>
<defs>
<font id="giddyup_stdregular" horiz-adv-x="884" >
<font-face units-per-em="2048" ascent="1358" descent="-690" />
<missing-glyph horiz-adv-x="348" />
<glyph unicode="&#xfb01;" horiz-adv-x="921" d="M-63 -264q0 93 23 207t68 235.5t124.5 231t179.5 172.5q15 225 32 324t58 196q38 87 109 141.5t155 54.5q82 0 128 -45.5t46 -111.5q0 -56 -32 -99t-60 -43q-15 0 -29 9.5t-14 23.5q0 36 25 53q18 13 18 56q0 26 -26 49.5t-66 23.5q-103 0 -170 -143q-34 -74 -51 -179 t-29 -271q40 25 117 42t149 17q82 0 146 -12q41 -6 41 -35q0 -9 -5 -29q-26 -95 -51.5 -268.5t-34.5 -319.5q-2 -19 -14 -31t-31 -12q-20 0 -33.5 13.5t-13.5 33.5q0 19 8.5 101.5t28 218.5t43.5 242q-37 10 -102 10q-52 0 -128.5 -17.5t-121.5 -46.5q-33 -506 -86 -716 q-40 -159 -94 -235.5t-148 -76.5q-67 0 -113 62.5t-46 173.5zM29 -264q0 -64 21 -106t52 -42q53 0 86 60t64 196q47 208 74 627q-75 -63 -134.5 -161t-93.5 -201.5t-51.5 -199.5t-17.5 -173z" />
<glyph unicode="&#xfb02;" horiz-adv-x="921" d="M-63 -254q0 98 22.5 212.5t67 236t124.5 231.5t183 176q14 215 30.5 308.5t61.5 187.5q44 91 132.5 145.5t186.5 54.5q100 0 165 -44t65 -134q0 -27 -2.5 -53.5t-10 -63.5t-12.5 -58.5t-19.5 -78.5t-21.5 -84q-108 -442 -108 -643q0 -58 8 -82q6 -9 6 -20 q0 -20 -13 -32.5t-32 -12.5q-61 0 -61 147q0 217 100 617q63 258 70 320q2 21 2 38q0 50 -41 75t-105 25q-66 0 -127 -38t-98 -109q-38 -72 -54.5 -171t-27.5 -253q79 31 168 31q44 0 64 -11t20 -38q0 -18 -12.5 -28.5t-28.5 -10.5q-11 0 -27 1l-16 1q-99 0 -170 -37 q-36 -531 -88 -739q-40 -159 -94 -235.5t-148 -76.5q-67 0 -113 64.5t-46 181.5zM29 -254q0 -71 21 -114.5t52 -43.5q53 0 86 60t64 196q46 204 76 650q-78 -67 -138.5 -166t-94 -203.5t-50 -201t-16.5 -177.5z" />
<glyph horiz-adv-x="2048" />
<glyph horiz-adv-x="2048" />
<glyph unicode="&#xd;" horiz-adv-x="2048" />
<glyph unicode=" "  horiz-adv-x="348" />
<glyph unicode="&#x09;" horiz-adv-x="348" />
<glyph unicode="&#xa0;" horiz-adv-x="348" />
<glyph unicode="!" horiz-adv-x="569" d="M219 18l10 66q3 19 19.5 29.5t38.5 7.5q22 -1 34 -16t9 -35l-11 -66q-7 -39 -49 -39q-25 0 -39.5 16t-11.5 37zM221 1300q0 21 1 33t5 29t15 25t28 8q19 0 30 -12.5t11 -30.5q0 -4 -2 -26.5t-2 -27.5q0 -45 17 -86q21 36 61.5 61t93.5 25q54 0 89.5 -34.5t35.5 -85.5 q0 -60 -40.5 -99t-106.5 -39q-53 0 -101 25q-12 -28 -12 -88q0 -156 6 -246q1 -12 10 -125t9 -170q0 -40 -8 -86t-28.5 -85.5t-47.5 -39.5q-18 0 -30.5 12.5t-12.5 30.5q0 13 4 25q30 50 30 143q0 154 -12 264q-12 115 -12 273q0 87 29 151q-60 76 -60 176zM377 1151 q26 -23 80 -23q27 0 42 11.5t15 29.5t-13 30.5t-34 12.5q-56 0 -90 -61z" />
<glyph unicode="&#x22;" horiz-adv-x="471" d="M98 1022q2 14 2 186q0 19 13 32t32 13t32 -13t13 -32q0 -125 -6 -184q-6 -49 -53 -49q-39 0 -33 47zM279 1022q2 14 2 186q0 19 13 32t32 13t32 -13t13 -32q0 -125 -6 -184q-6 -49 -54 -49q-38 0 -32 47z" />
<glyph unicode="#" horiz-adv-x="983" d="M86 449h195l34 249h-176l-4 82h191l51 367h92l-53 -367h223l51 367h92l-53 -367h162l6 -82h-180l-33 -249h160l4 -82h-176l-51 -367h-93l54 367h-224l-51 -367h-90l51 367h-176zM371 449h223l33 249h-221z" />
<glyph unicode="$" horiz-adv-x="921" d="M59 287q0 92 82.5 165.5t206.5 73.5q51 0 86.5 -17t51.5 -45.5t22 -54t6 -55.5q0 -26 -2.5 -52.5t-4.5 -40t-10.5 -56.5t-11.5 -62q119 0 200 63.5t81 153.5q0 97 -67 153.5t-230 94.5q-319 75 -319 289q0 49 22.5 99.5t65 95.5t114 74t160.5 30q33 135 33 184 q0 19 13.5 32t33.5 13q45 0 45 -57q0 -39 -33 -178q99 -10 159 -77t60 -159q0 -71 -61 -125t-148 -53q-24 0 -47.5 6.5t-48 22t-40 48t-15.5 77.5q0 36 31 182q-122 -4 -187 -69t-65 -146q0 -153 245 -205q42 -10 72.5 -18t72 -23t70.5 -31.5t60 -42t50 -55.5t31.5 -72.5 t12.5 -91.5q0 -55 -25.5 -107.5t-73 -96t-123 -70t-167.5 -27.5q-37 -197 -37 -207q0 -19 -13.5 -32t-33.5 -13q-17 0 -30 13t-13 32q0 42 35 211q-141 8 -228.5 69.5t-87.5 156.5zM150 287q0 -61 72 -100t171 -44q4 20 10 51.5t8 41.5t5 29t3.5 28.5t1.5 23.5t1 31 q0 39 -20.5 66.5t-59.5 27.5q-73 0 -132.5 -45.5t-59.5 -109.5zM555 930q0 -70 63 -70q50 0 81.5 27.5t31.5 66.5q0 62 -36 104t-111 52q-29 -137 -29 -180z" />
<glyph unicode="%" horiz-adv-x="1581" d="M90 811q0 102 39 193q13 26 41 26q19 0 32 -13t13 -32q0 -14 -4 -18q-33 -81 -33 -156q0 -86 39 -148.5t115 -62.5q97 0 163 97t76 214q-49 -6 -100 -6q-94 0 -160.5 45.5t-66.5 114.5q0 67 53 115.5t147 48.5q82 0 142.5 -61.5t75.5 -157.5q219 53 456 286q13 13 33 13 q19 0 32 -13t13 -32q0 -11 -6 -23q-186 -312 -350.5 -696t-202.5 -623q-3 -15 -16.5 -27t-28.5 -12q-19 0 -30 13.5t-11 33.5q0 37 31 146.5t85.5 263.5t148.5 359.5t202 396.5q-180 -128 -356 -170q-4 -99 -44.5 -191.5t-118 -155.5t-173.5 -63q-107 0 -171.5 78t-64.5 217 zM334 1069q0 -29 41 -54.5t96 -25.5q49 0 98 6q-8 63 -41 107.5t-84 44.5t-80.5 -21.5t-29.5 -56.5zM936 279q-3 99 37 184q13 29 41 29q19 0 32 -14t13 -34q0 -4 -4 -16q-31 -76 -31 -149q0 -86 40 -148.5t114 -62.5q72 0 128 51t84.5 129.5t28.5 167.5q0 47 -10.5 88 t-41 73.5t-77.5 32.5q-49 0 -79.5 -37t-30.5 -79q0 -38 17 -59t56 -32q15 -4 24 -17t9 -28q0 -17 -13 -30t-32 -13q-4 0 -17 3t-37 14.5t-44 29t-35.5 52.5t-15.5 80q0 78 55 140t143 62q100 0 159.5 -77.5t59.5 -202.5q0 -110 -40 -207.5t-119.5 -161t-180.5 -63.5 q-104 0 -168.5 81.5t-64.5 213.5z" />
<glyph unicode="&#x26;" horiz-adv-x="1556" d="M92 522q0 170 73 283t189 174q-14 43 -14 98q0 124 77 201.5t177 77.5q50 0 88.5 -16t58 -39.5t28.5 -45t9 -38.5q0 -19 -13.5 -32.5t-33.5 -13.5q-17 0 -28.5 10.5t-14.5 26.5q-6 30 -33.5 47t-60.5 17q-65 0 -113.5 -52t-48.5 -143q0 -43 4 -63q62 26 135 26 q118 0 178 -47.5t60 -115.5q0 -67 -47.5 -104.5t-110.5 -37.5q-46 0 -92 14.5t-94.5 53.5t-79.5 98q-106 -61 -153.5 -160.5t-47.5 -218.5q0 -198 153 -329.5t398 -131.5q134 0 241 35.5t171.5 95.5t98 131.5t34.5 149.5q-64 -24 -150 -24q-144 0 -231.5 64t-87.5 169 q0 75 61 128.5t148 53.5q109 0 201 -68t129 -186q88 73 88 181q0 69 -45 141q-11 18 -11 26q0 20 12.5 33t32.5 13t37 -17q64 -95 64 -199q0 -84 -42.5 -156t-117.5 -118q8 -102 -29 -197t-112.5 -171.5t-203 -122.5t-288.5 -46q-144 0 -265.5 42.5t-204 116t-128 173.5 t-45.5 213zM461 936q35 -59 89.5 -88t100.5 -29q25 0 46.5 15t21.5 43q0 32 -40 55.5t-108 23.5q-60 0 -110 -20zM903 682q0 -72 67 -111t160 -39q80 0 148 27q-27 103 -96.5 162t-159.5 59q-53 0 -86 -29t-33 -69z" />
<glyph unicode="'" horiz-adv-x="286" d="M98 1022q2 14 2 186q0 19 13 32t32 13t32 -13t13 -32q0 -125 -6 -184q-6 -49 -53 -49q-39 0 -33 47z" />
<glyph unicode="(" horiz-adv-x="497" d="M86 475q0 139 24 265t63.5 220.5t94.5 176t111.5 136.5t118.5 97q11 8 26 8q19 0 30 -11t11 -30q0 -28 -20 -39q-72 -46 -134 -114.5t-116.5 -167t-85.5 -237.5t-31 -302q0 -151 22 -279.5t55 -213t75.5 -149t78.5 -97t70 -47.5q29 -13 29 -43q0 -18 -10.5 -29.5 t-28.5 -11.5q-12 0 -35.5 11t-60 39.5t-74.5 70.5t-76.5 112t-68.5 156t-49 211t-19 268z" />
<glyph unicode=")" horiz-adv-x="499" d="M-59 -354q0 26 22 35q108 41 192.5 165.5t129.5 302t45 377.5q0 151 -21.5 278t-54 208t-76 143.5t-80.5 93.5t-75 49q-27 14 -27 43q0 19 11 30t30 11q12 0 16 -4q53 -22 102.5 -63.5t98.5 -113t85 -164t58.5 -225t22.5 -288.5q0 -145 -21 -273.5t-54.5 -219.5t-77 -166 t-86.5 -122t-84.5 -79.5t-70.5 -45.5t-44 -13q-18 0 -29.5 11.5t-11.5 29.5z" />
<glyph unicode="*" horiz-adv-x="563" d="M31 1114l198 72l-53 186l123 -153l195 81l-150 -139l176 -119l-211 52l-86 -195l2 203z" />
<glyph unicode="+" d="M70 371v86h329v331h86v-331h330v-86h-330v-330h-86v330h-329z" />
<glyph unicode="," horiz-adv-x="266" d="M74 -109q0 14 8 27q22 31 22 160q0 19 13.5 32t32.5 13q24 0 37.5 -12.5t13.5 -32.5q0 -234 -76 -234q-23 0 -37 13t-14 34z" />
<glyph unicode="-" horiz-adv-x="628" d="M70 479q0 13 3.5 22.5t13 15t18 9t27.5 4.5t31.5 1.5t39.5 0.5l147 -2q108 0 148 11q8 4 14 4q18 0 31.5 -13.5t13.5 -31.5q0 -66 -207 -58l-147 2q-64 0 -80 -4q-21 -7 -37 5.5t-16 33.5z" />
<glyph unicode="." horiz-adv-x="266" d="M94 23l8 69q3 19 20 29.5t40 7.5q21 -3 33 -17.5t10 -33.5l-10 -70q-3 -17 -17.5 -27t-34.5 -10q-24 0 -38 15t-11 37z" />
<glyph unicode="/" horiz-adv-x="671" d="M-39 -18q19 75 59 172t106 226t114 217.5t134 243.5q27 48 40 72q154 262 229 418q13 25 41 25q19 0 32 -13t13 -30q0 -32 -233 -445q-93 -166 -140 -251.5t-123 -229.5t-119.5 -248t-62.5 -180q-5 -19 -21 -28t-36 -5q-15 4 -24 17t-9 28v11z" />
<glyph unicode="0" horiz-adv-x="1148" d="M86 504q0 99 21.5 195.5t46.5 138.5q15 24 45 24q17 0 29 -13t12 -32q0 -16 -4 -20q-19 -21 -38.5 -110.5t-19.5 -182.5q0 -68 11 -130t37.5 -121.5t66.5 -102.5t102.5 -69t141.5 -26q89 0 165 41t128.5 109t90 156.5t55 183t17.5 188.5q0 68 -11.5 129.5t-36 115.5 t-61 93t-89 61.5t-117.5 22.5q-105 0 -179.5 -75t-74.5 -191q0 -78 48.5 -133.5t119.5 -55.5q53 0 72 13q6 4 18 4q19 0 32 -12.5t13 -32.5q0 -19 -15.5 -32t-39 -19t-43.5 -8.5t-37 -2.5q-113 0 -186.5 79.5t-73.5 195.5q0 149 101 251.5t251 102.5q187 0 293 -138 t106 -368q0 -112 -21.5 -220t-66.5 -206t-109 -172t-155.5 -118t-198.5 -44q-216 0 -331 140t-115 391z" />
<glyph unicode="1" horiz-adv-x="802" d="M51 733q0 32 43 39q169 31 314 90q8 154 79 263.5t172 109.5q52 0 83.5 -34.5t31.5 -82.5q0 -96 -70 -175t-208 -134q0 -6 -1 -20t-1 -19q0 -93 22 -258q21 -185 21 -270q0 -271 -111 -271q-41 0 -41 31q0 4 0.5 7.5t1 6t2 5.5l2.5 5t3.5 5.5t4 5t5 6t4.5 6.5 q38 49 38 187q0 51 -6 120t-14.5 145.5t-11.5 108.5q-11 151 -11 164q-56 -27 -162 -55.5t-151 -28.5q-39 0 -39 43zM500 903q89 39 135.5 94t46.5 117q0 14 -9 24.5t-22 10.5q-50 0 -94.5 -71.5t-56.5 -174.5z" />
<glyph unicode="2" horiz-adv-x="1099" d="M27 129q0 80 60 141t161 62q127 2 284 -113q134 101 235 270t101 336q0 140 -77.5 234t-204.5 94q-69 0 -136 -27t-100 -71q71 -44 110.5 -114.5t39.5 -143.5q0 -84 -47 -138.5t-125 -54.5q-74 0 -125 57t-51 156q0 107 57 203q-53 23 -107 20l-32 -2q-17 -2 -30 10 t-13 31q0 22 21 33.5t54 11.5q84 0 168 -30q129 143 316 143q166 0 270.5 -117.5t104.5 -294.5q0 -169 -104.5 -351t-256.5 -302q101 -77 168.5 -115.5t114.5 -38.5q68 0 101.5 34t33.5 91q0 24 -11 48t-26 36q-12 10 -12 31q0 22 14 33q12 12 31 12q33 0 64.5 -51.5 t31.5 -108.5q0 -94 -59 -151.5t-168 -57.5q-70 0 -145 41t-208 138q-162 -125 -323 -125q-84 0 -132 36.5t-48 104.5zM119 141q0 -32 25 -50.5t67 -18.5q128 0 252 92q-46 35 -104.5 58.5t-106.5 23.5q-57 0 -95 -32.5t-38 -72.5zM242 817q0 -59 27 -94t61 -35q37 0 57.5 31 t20.5 78q0 112 -117 192q-49 -77 -49 -172z" />
<glyph unicode="3" horiz-adv-x="1071" d="M61 297q0 29 1.5 47t7 46.5t20.5 43.5t39 15q17 0 30 -14t13 -34q0 -12 -4 -20q-14 -33 -14 -76q0 -27 8.5 -59.5t31.5 -72t58 -71.5t95 -53.5t134 -21.5q179 0 280 90.5t101 228.5q0 150 -123 240q-56 -52 -125.5 -79.5t-136.5 -27.5q-74 0 -124 37t-50 92q0 13 3 27.5 t15 36t32.5 37.5t60.5 27.5t94 11.5q111 0 219 -54q37 32 60.5 93t23.5 122q0 42 -12 82.5t-38 78.5t-74 61.5t-112 23.5q-33 0 -43 -2q37 -57 37 -121q0 -79 -49.5 -131.5t-113.5 -52.5q-61 0 -100.5 39.5t-39.5 103.5q0 52 33 103t84 84q-53 27 -115 32q-4 0 -23.5 -1 t-29.5 -1q-47 0 -47 31q0 17 8.5 28t26 15t30 5t35.5 1q47 0 104.5 -18t96.5 -49q58 14 111 14q82 0 145.5 -28t100.5 -75.5t56 -104t19 -118.5q0 -71 -31 -147t-75 -113q159 -116 159 -309q0 -170 -126 -281.5t-351 -111.5q-106 0 -189.5 33t-131 85.5t-71.5 112t-24 119.5 zM352 991q0 -28 15 -45.5t41 -17.5q29 0 51 29t22 75q0 58 -30 98q-43 -23 -71 -63t-28 -76zM395 608q0 -16 23 -29.5t59 -13.5q45 0 101 18t88 46q-75 35 -158 35q-45 0 -79 -14.5t-34 -41.5z" />
<glyph unicode="4" horiz-adv-x="1314" d="M23 449q0 71 53.5 113t132.5 42q89 0 237 -61q133 115 214 245.5t81 243.5q0 52 -24.5 96.5t-81.5 47.5l-39 -7q-19 -1 -32 11.5t-13 31.5q0 52 84 52q91 0 145 -66.5t54 -165.5q0 -123 -78 -257t-219 -265q280 -103 333 -117q31 184 66 332q49 213 49 254q0 42 -6 57 q-4 12 -4 19q0 19 13 32t32 13t31.5 -10.5t17 -31.5t5.5 -34t1 -35q0 -54 -26 -168q-69 -317 -91 -448q65 -15 123 -15q38 0 69.5 12t48 25.5t38.5 36.5q14 17 35 17q18 0 30.5 -13t12.5 -33q0 -13 -13.5 -33.5t-39.5 -43t-74 -38.5t-107 -16q-69 0 -139 15 q-24 -117 -24 -234q0 -56 10 -71q6 -12 6 -23q0 -19 -13.5 -32t-33.5 -13q-62 0 -62 145q0 95 29 248q-95 26 -270 92q-76 29 -121 45q-155 -131 -291 -131q-67 0 -108 38t-41 98zM117 449q0 -25 18.5 -38.5t42.5 -13.5q90 0 195 86q-87 37 -160 37q-44 0 -70 -22t-26 -49z " />
<glyph unicode="5" horiz-adv-x="1038" d="M33 236q0 20 12.5 33.5t32.5 13.5q15 0 26.5 -11t14.5 -26q18 -98 106 -149.5t209 -51.5q113 0 209 44t157.5 134t61.5 209q0 143 -96 241.5t-274 98.5q-1 0 -76 -6q-16 -120 -70.5 -186t-118.5 -66q-52 0 -86.5 31t-34.5 82q0 69 64.5 125.5t163.5 78.5q6 65 -5.5 120 t-33.5 88t-39.5 51.5t-30.5 25.5q-22 13 -22 37q0 19 7 29.5t25 15t32.5 5.5t47.5 1q29 0 174 -13t179 -13q53 0 89.5 2t72 7.5t52 18t13.5 31.5q10 31 49 31q16 0 25.5 -14t9.5 -29q0 -9 -2 -13q-7 -28 -22 -49t-40 -33t-46 -19.5t-59 -10.5t-60 -3.5t-67 -0.5h-15 q-23 0 -90.5 5t-145.5 11.5t-94 7.5q43 -43 64 -116t18 -154q54 6 80 6q93 0 169.5 -24.5t128.5 -65t88 -95.5t52 -114.5t16 -122.5q0 -106 -42 -195.5t-113.5 -149.5t-166.5 -93t-200 -33q-79 0 -146.5 18t-113 46.5t-77.5 64.5t-47 73t-15 71zM197 631q0 -35 32 -35 q28 0 57.5 42.5t39.5 102.5q-57 -8 -93 -44t-36 -66z" />
<glyph unicode="6" horiz-adv-x="1026" d="M74 483q0 95 17 178.5t49 150t64.5 115t76.5 99.5q85 99 219.5 161t257.5 62q84 0 84 -47q0 -17 -14 -31t-33 -14q-4 0 -22 2t-23 2q-105 0 -217 -51t-189 -141q-178 -203 -178 -486q0 -104 31.5 -187t85.5 -135.5t124.5 -80t151.5 -27.5q80 0 143.5 29t100.5 75 t56.5 97.5t19.5 101.5q0 128 -69 207.5t-187 79.5q-85 0 -147 -60.5t-62 -148.5q0 -49 29 -78.5t75 -29.5q24 0 44 17.5t20 39.5q0 2 -4.5 16t-4.5 17q0 20 11.5 32.5t31.5 12.5q21 0 34 -18t15.5 -33t2.5 -27q0 -59 -45.5 -100t-106.5 -41q-79 0 -136.5 52.5t-57.5 139.5 q0 117 88.5 205t212.5 88q157 0 252.5 -102t95.5 -269q0 -98 -48.5 -185.5t-145 -144.5t-220.5 -57q-99 0 -186 33.5t-153.5 97t-105 162t-38.5 221.5z" />
<glyph unicode="7" horiz-adv-x="962" d="M37 967q0 106 89.5 172.5t248.5 66.5q41 0 127 -8q2 12 2 41q0 51 -31.5 96t-87.5 41l-25 -2q-21 -2 -34 7.5t-13 27.5q0 49 76 49q92 0 148.5 -64t56.5 -155q0 -17 -4 -53q122 -17 162 -17q142 0 198 56q14 14 33 14q9 0 25 -8q20 -11 20 -39q0 -31 -46.5 -99 t-78.5 -102q-265 -289 -396.5 -528.5t-148.5 -470.5q-1 -18 -14.5 -29.5t-32.5 -11.5q-20 0 -31.5 13t-11.5 34q0 152 87.5 350t227.5 390t312 362q-54 -13 -123 -13q-23 0 -197 17q-48 -146 -142.5 -220.5t-217.5 -74.5q-77 0 -127.5 45.5t-50.5 112.5zM129 973 q0 -36 26.5 -58t67.5 -22q94 0 164 58.5t102 164.5q-52 6 -114 6q-105 0 -175.5 -41t-70.5 -108z" />
<glyph unicode="8" horiz-adv-x="1073" d="M72 291q0 78 31 145t81.5 112.5t109 75.5t120.5 42q-59 17 -111 51t-89.5 92.5t-37.5 126.5q0 119 98 207t252 88q103 0 163.5 -54.5t60.5 -136.5q0 -69 -50 -116t-133 -47q-53 0 -90 25t-37 56q0 20 12 33t31 13q27 0 41 -21q6 -8 21.5 -15t25.5 -7q38 0 63 21.5 t25 57.5q0 48 -39.5 78.5t-103.5 30.5q-114 0 -181 -65t-67 -148q0 -84 73.5 -147t207.5 -99q10 3 33.5 6t33.5 6q281 72 281 308q0 70 -36.5 132t-108.5 95q-37 19 -37 41q0 37 41 37q22 0 51.5 -13t61 -39.5t58 -61.5t43.5 -85.5t17 -105.5q0 -75 -28 -142.5t-95.5 -126.5 t-167.5 -86q158 -49 230.5 -142.5t72.5 -199.5q0 -161 -126.5 -255.5t-335.5 -94.5q-128 0 -231.5 36.5t-168.5 112t-65 179.5zM164 299q0 -80 55.5 -140t139 -88t178.5 -28q102 0 184 28.5t134 91t52 150.5q0 233 -372 303q-161 -18 -266 -103.5t-105 -213.5z" />
<glyph unicode="9" horiz-adv-x="1058" d="M78 821q0 78 28.5 150.5t82 131t140 93.5t193.5 35q207 0 334 -141t127 -357q0 -208 -86 -376.5t-246.5 -266.5t-367.5 -98q-87 0 -106 9q-21 10 -21 38q0 19 13.5 30t31.5 11q3 0 40.5 -2t45.5 -2q133 0 247 50.5t192.5 138.5t122.5 209t44 259q0 178 -101.5 297 t-269.5 119q-88 0 -158 -29t-111.5 -77t-63 -104.5t-21.5 -117.5q0 -118 77 -191t187 -73t170 57.5t60 153.5q0 31 -21.5 64.5t-52.5 37.5q-13 1 -23 16t-10 29q0 19 13 32.5t32 13.5q52 -2 102 -57.5t50 -133.5q0 -130 -87 -213.5t-233 -83.5q-149 0 -251.5 96t-102.5 252z " />
<glyph unicode=":" horiz-adv-x="266" d="M94 18l10 66q3 19 20 30t40 7q21 -1 33 -15.5t10 -35.5l-12 -66q-3 -17 -16.5 -28t-33.5 -11q-25 0 -39.5 16t-11.5 37zM94 446l10 70q7 39 52 39q23 0 38 -15t13 -36l-12 -70q-3 -19 -18 -30.5t-38 -8.5q-24 1 -36 16t-9 35z" />
<glyph unicode=";" horiz-adv-x="266" d="M76 -102q0 13 6 22q24 38 24 162q0 19 14 33t34 14q21 0 36 -14t15 -33q0 -232 -78 -232q-23 0 -37 13.5t-14 34.5zM106 449l13 65q2 19 17.5 30t39.5 7q20 -3 32.5 -17.5t10.5 -33.5l-12 -66q-3 -17 -16.5 -28t-32.5 -11q-26 0 -40.5 16t-11.5 38z" />
<glyph unicode="&#x3c;" d="M68 371v86l749 342v-90l-643 -295l643 -293v-90z" />
<glyph unicode="=" d="M70 225v86h745v-86h-745zM70 518v86h745v-86h-745z" />
<glyph unicode="&#x3e;" d="M68 31v90l643 293l-643 295v90l749 -342v-86z" />
<glyph unicode="?" horiz-adv-x="870" d="M31 1143q0 44 68.5 89.5t164.5 45.5q41 0 66 -8q39 22 82 33q41 14 98 14q164 0 256 -92q80 -80 80 -203q0 -74 -20.5 -136t-61 -112.5t-80 -86t-98.5 -77.5q-75 -54 -113.5 -101.5t-38.5 -107.5q0 -35 14.5 -62.5t26.5 -37.5q14 -18 14 -35q0 -19 -13 -32t-32 -13 q-34 0 -67 57.5t-33 122.5q0 86 51.5 151t155.5 140q45 33 76.5 61.5t63 69.5t47.5 91t16 110q0 91 -68 151t-186 60q-41 0 -74 -8q98 -58 98 -187q0 -82 -49.5 -133t-114.5 -51q-66 0 -116.5 48t-50.5 136q0 96 63 156q-47 3 -85.5 -18.5t-51.5 -44.5q-20 -33 -41 -33 t-34 11.5t-13 31.5zM283 1040q0 -52 24.5 -76t57.5 -24q27 0 48 26t21 74q0 47 -23 86.5t-63 61.5q-65 -55 -65 -148zM379 29l10 63q3 20 20 31t40 8q21 -3 33 -18t10 -33l-13 -68q-3 -16 -16 -27.5t-31 -11.5q-27 0 -41.5 16.5t-11.5 39.5z" />
<glyph unicode="@" horiz-adv-x="1179" d="M82 666q0 144 72 265.5t194 192t264 70.5q132 0 244 -55.5t177 -150.5t65 -208q0 -84 -31 -161.5t-79.5 -131t-107 -85t-112.5 -31.5q-39 0 -66 25.5t-30 70.5l-4 -2q-90 -94 -185 -94q-87 0 -141.5 60t-54.5 144q0 69 25 140t68.5 129t109.5 94.5t141 36.5 q101 0 153 -121l35 86h84l-119 -381q-16 -41 -13.5 -78t32.5 -37q54 0 105.5 51t81.5 122.5t30 134.5q0 111 -57.5 196t-148.5 128.5t-198 43.5q-127 0 -231.5 -63t-162.5 -169.5t-58 -232.5q0 -189 132.5 -322.5t321.5 -133.5q106 0 206 50t163 136l53 -47 q-66 -93 -179.5 -153t-242.5 -60q-149 0 -273 73t-193.5 197t-69.5 271zM385 596q0 -65 34.5 -104t88.5 -39q62 0 118 53t85.5 122t29.5 126q0 51 -35 94t-79 43q-67 0 -125 -53t-87.5 -120t-29.5 -122z" />
<glyph unicode="A" horiz-adv-x="1355" d="M41 535q0 99 80 174t219 112q32 102 73 187t93 155t117.5 109t138.5 39q101 0 160 -62q92 -89 92 -342q0 -86 -8 -162q140 -80 214 -203t74 -263q0 -79 -20.5 -140.5t-54.5 -98t-74 -55t-82 -18.5q-71 0 -111 43q-71 74 -71 279q0 81 30 409q-142 68 -327 68 q-79 0 -172 -14q-52 -179 -62 -365h13q101 -1 177 43q82 46 81 125q0 20 11.5 32.5t31.5 12.5q19 0 32 -12.5t13 -32.5q0 -113 -105 -184q-101 -68 -244 -68h-12q0 -182 45 -244q13 -13 13 -28q0 -19 -14 -32t-34 -13q-44 0 -72 88q-28 86 -28 229v10q-108 22 -162.5 82 t-54.5 140zM133 535q0 -102 127 -138q7 151 55 328q-78 -29 -130 -78t-52 -112zM444 842q72 10 140 10q178 0 334 -64q6 61 6 121q0 213 -68 281q-37 37 -94 37q-96 0 -176.5 -105.5t-141.5 -279.5zM971 289q0 -113 21 -176.5t75 -63.5q62 0 99.5 66t37.5 164 q0 115 -55.5 211.5t-149.5 160.5q-28 -278 -28 -362z" />
<glyph unicode="B" horiz-adv-x="1150" d="M82 1047q0 79 65 142t183 87q-4 105 -41 145q-13 13 -13 33q0 19 13 32t33 13q34 0 63.5 -56.5t36.5 -154.5q17 2 37 2q15 0 33 -1q42 -3 89.5 -6.5t99 -16.5t100 -29.5t92.5 -46.5t77 -66.5t52.5 -89.5t19.5 -116q0 -50 -20 -97.5t-71.5 -94.5t-129.5 -73 q64 -10 115.5 -36t83 -59.5t52.5 -74.5t29.5 -78.5t8.5 -74.5q0 -91 -36 -163.5t-97.5 -118t-140.5 -69.5t-169 -24q-94 0 -172 25.5t-139 77.5t-95 138t-34 199q0 161 76 457q-96 20 -148.5 72t-52.5 123zM174 1047q0 -48 35 -77t84 -40q36 173 41 264q-78 -18 -119 -59 t-41 -88zM299 399q0 -99 30.5 -173t82 -115t110.5 -60.5t125 -19.5q65 0 126 18.5t111.5 54t81.5 94.5t31 132q1 135 -115 208q-96 61 -255 61q-33 0 -68 -3q-19 -2 -32 9.5t-13 31.5q0 19 13 32t32 13q84 1 151 17.5t107.5 41.5t67.5 57t37 61.5t10 58.5q0 102 -66 165 q-62 62 -182 97q-100 29 -214 29q-23 0 -46 -1q-2 -95 -39 -286q52 0 101 28t49 84q0 2 -2.5 15t-2.5 16q0 18 11.5 30.5t31.5 12.5q48 0 48 -74q0 -84 -67 -140q-66 -55 -181 -54h-4q-70 -277 -70 -441z" />
<glyph unicode="C" horiz-adv-x="1230" d="M80 588q0 178 71.5 332t204.5 253.5t301 116.5q39 95 119.5 148t177.5 53q117 0 117 -55q0 -20 -12.5 -30.5t-32.5 -10.5q-5 0 -35.5 4t-36.5 4q-131 0 -192 -111q95 -5 174 -37.5t129.5 -83t78 -112.5t27.5 -129q0 -91 -56.5 -152t-156.5 -61q-110 0 -204 94 q-61 59 -93 147t-32 189q0 21 4 53q-140 -26 -246.5 -117t-161.5 -220.5t-55 -274.5q0 -149 55 -267.5t166 -190t262 -71.5q135 0 239 48t165 137q13 20 39 20q18 0 30.5 -13.5t12.5 -33.5q0 -12 -17 -38.5t-56 -62.5t-92.5 -68t-138.5 -54.5t-182 -22.5q-133 0 -242 47 t-181 130t-111 196t-39 244zM721 1147q0 -80 23.5 -147t59.5 -108t76.5 -64t77.5 -23q38 0 64 13.5t37 36t14.5 39.5t3.5 36q0 110 -95 192t-255 86q-6 -27 -6 -61z" />
<glyph unicode="D" horiz-adv-x="1232" d="M61 924q0 160 148.5 268t370.5 108q135 0 242.5 -31t176.5 -83t115 -123.5t65 -149t19 -163.5q0 -103 -29 -212.5t-85.5 -210.5t-132.5 -180.5t-178.5 -127.5t-213.5 -48q-51 0 -91.5 16t-68 42t-48 65.5t-32 79t-18 90.5t-8.5 92.5t-2 92.5q0 121 14 200 q-114 24 -179 95t-65 180zM154 924q0 -84 46 -130.5t113 -60.5q26 189 64 324q3 14 16 23.5t27 9.5q19 0 32 -13.5t13 -32.5q0 -10 -2 -14q-32 -122 -57 -305q106 4 169 43t66 94q2 17 15 29t32 12t32 -13t13 -32q0 -33 -18.5 -68t-56 -69t-106 -56.5t-157.5 -23.5 q-14 -72 -14 -192q0 -93 8.5 -162t28.5 -123.5t55.5 -82.5t87.5 -28q80 0 155 31.5t133.5 85.5t107.5 124t81.5 147.5t50 157t17.5 151.5q0 42 -5.5 82t-20.5 88t-39.5 89t-66.5 80t-96 66.5t-133 44.5t-174 17q-183 0 -300 -87.5t-117 -205.5z" />
<glyph unicode="E" horiz-adv-x="1071" d="M57 -25q0 65 31 130.5t80 111.5q-45 98 -45 197q0 108 45 201.5t123 156.5q-21 61 -21 117q0 89 40.5 172t113.5 141q-39 67 -39 139q0 20 13.5 34t33.5 14q17 0 30 -14t13 -34q0 -44 25 -96q47 23 92 31q49 12 106 12q118 0 186 -47t68 -119q0 -59 -44.5 -97t-114.5 -38 q-77 0 -165.5 39.5t-152.5 106.5q-56 -45 -84.5 -110.5t-28.5 -133.5q0 -34 9 -64q106 56 231 56q137 0 226.5 -54.5t89.5 -140.5q0 -16 -3 -33t-17 -42.5t-37 -45t-68 -33.5t-105 -14q-120 0 -212.5 46.5t-145.5 125.5q-115 -106 -115 -276q0 -66 29 -144q155 92 374 92 q156 0 265.5 -64.5t109.5 -168.5q0 -32 -13 -62t-43 -58.5t-88.5 -46t-139.5 -17.5q-148 0 -279 48.5t-211 143.5q-66 -66 -72 -164q-2 -19 -14 -31t-31 -12t-32 13t-13 32zM287 193q65 -78 178.5 -122t243.5 -44q88 0 140 29t52 73q0 62 -86 106t-197 44q-198 0 -331 -86z M399 741q42 -61 117.5 -100t169.5 -39q69 0 105 21.5t36 60.5q0 44 -65.5 77.5t-161.5 33.5q-55 0 -114 -15t-87 -39zM551 1176q50 -46 118.5 -76.5t123.5 -30.5q27 0 48 14t21 39q0 36 -46.5 59t-117.5 23q-86 0 -147 -28z" />
<glyph unicode="F" horiz-adv-x="1144" d="M61 1053q0 105 90 174t228 69q162 0 342 -90q129 90 309 90q105 0 168.5 -49t63.5 -114q0 -68 -52 -110t-135 -42q-61 0 -123 18t-98.5 36t-124.5 65q-88 -88 -88 -238q0 -35 16 -125q83 27 154 27q67 0 121 -15t84 -37t45.5 -42.5t15.5 -34.5q0 -20 -13 -32.5t-32 -12.5 q-25 0 -37 18q-50 70 -184 70q-60 0 -133 -25q18 -99 18 -190q0 -90 -10 -164t-25.5 -124t-38 -88t-45.5 -59.5t-49.5 -35t-48 -17.5t-43.5 -4q-82 0 -132 53.5t-50 161.5q0 137 88 286.5t231 227.5q-22 97 -22 162q0 162 100 283q-145 67 -272 67q-96 0 -160.5 -45 t-64.5 -114q0 -50 38 -83q35 -30 81 -30h8l28 2q19 4 33 -8.5t14 -32.5q0 -49 -84 -49q-86 0 -148.5 59.5t-62.5 141.5zM346 186q0 -131 90 -131q49 0 84 38.5t53 103t25.5 130t7.5 136.5q0 51 -14 151q-110 -70 -178 -195t-68 -233zM803 1159q60 -32 91 -47t83 -31t98 -16 q41 0 67.5 17.5t26.5 47.5t-37 55t-104 25q-63 0 -125 -14.5t-100 -36.5z" />
<glyph unicode="G" horiz-adv-x="1495" d="M82 635q0 187 85 337.5t236 235t340 84.5q49 0 101 -10q10 38 25.5 67.5t31 46t31.5 27t25.5 14t15.5 3.5q19 0 32 -13.5t13 -33.5q0 -31 -31 -41q-39 -14 -61 -90q140 -48 220.5 -148t80.5 -194q0 -63 -36.5 -104.5t-100.5 -41.5q-70 0 -133.5 56t-100.5 144t-37 179 q0 27 2 47q-37 6 -78 6q-127 0 -234 -45.5t-179.5 -123t-113 -181.5t-40.5 -221q0 -156 75 -287.5t207 -208t290 -76.5q171 0 278 110q80 82 80 187q0 37 -10 76q-116 -65 -226 -65q-126 0 -199 50t-73 128q0 64 56 112t159 48q98 0 184.5 -37t141.5 -119q67 27 116 27 q84 0 138 -54q63 -60 63 -168q0 -18 -2.5 -38.5t-9 -44t-19.5 -39t-32 -15.5q-18 0 -29.5 13.5t-11.5 31.5q0 13 2 19q14 35 14 73q0 19 -4 38t-14.5 41.5t-35 37t-59.5 14.5q-39 0 -77 -14q18 -55 18 -115q0 -49 -17 -101t-53.5 -102t-87.5 -89.5t-126.5 -63.5t-163.5 -24 q-138 0 -261 51t-212 138t-141 208.5t-52 257.5zM688 549q0 -41 53.5 -66.5t128.5 -25.5q35 0 72.5 9.5t59.5 19.5t57 28q-43 58 -110 83.5t-136 25.5q-58 0 -91.5 -23t-33.5 -51zM911 1178q-2 -18 -2 -36q0 -101 55 -184q63 -98 128 -98q43 0 43 60q0 62 -61 140t-163 118z " />
<glyph unicode="H" horiz-adv-x="1587" d="M41 106q0 56 17.5 107.5t46 92.5t73.5 79.5t91.5 68t109 59.5t116.5 51.5t123 45.5q27 169 27 328q0 174 -78 238q-22 -132 -110.5 -222t-198.5 -90q-68 0 -112 43t-44 115q0 49 26 99.5t72 92.5q48 42 120 66q58 19 124 19q16 0 33 -1q-17 82 -67 115q-19 19 -19 39 q0 19 13.5 32t33.5 13q34 0 78.5 -61t52.5 -162q168 -71 168 -336q0 -140 -20 -293q7 2 21.5 7t21.5 7l96 33q11 4 55.5 19.5t69.5 24.5t66.5 26t76.5 33q29 204 116.5 340.5t201.5 136.5q72 0 109.5 -44t37.5 -110q0 -196 -379 -381q-12 -86 -12 -180q0 -53 8 -116.5 t33 -147.5t64.5 -152.5t109.5 -122.5t160 -67q45 -7 45 -35q0 -20 -13 -33.5t-32 -13.5q-67 0 -133.5 29t-126 88t-105.5 140t-73 193.5t-27 239.5q0 77 6 141q-72 -28 -229 -86l-94 -34q-47 -15 -93 -33q-37 -179 -102 -317.5t-161.5 -224t-209.5 -85.5q-77 0 -130.5 50 t-53.5 136zM133 106q0 -49 25.5 -77.5t66.5 -28.5q117 0 217 143.5t156 370.5q-102 -37 -178 -74.5t-145 -87t-105.5 -112t-36.5 -134.5zM195 1022q0 -30 19.5 -50t47.5 -20q65 0 114 40.5t73.5 95.5t33.5 120q-20 4 -34 4q-64 0 -115 -20.5t-80 -51t-44 -61.5t-15 -57z M1225 844q122 64 198 136t76 138t-56 66h-5q-64 -3 -122.5 -88.5t-90.5 -251.5z" />
<glyph unicode="I" horiz-adv-x="903" d="M0 -33q0 15 8 41t30.5 65t56.5 75.5t93.5 72t133.5 55.5q0 105 88 357q31 82 45 124.5t27 108.5q11 53 11 101q0 11 -1 22q-58 -10 -115 -10q-137 0 -204 49.5t-67 122.5q0 64 59 106.5t144 42.5q91 0 161.5 -50t98.5 -156q80 20 132 64.5t59 115.5q1 17 14.5 29t30.5 12 q21 0 34 -15q11 -13 11 -31v-5q-3 -34 -15.5 -67.5t-40 -70.5t-82 -68.5t-130.5 -49.5l2 -36q0 -54 -12 -116q-15 -82 -27 -119t-47 -137q-76 -207 -82 -301q70 12 108 12q156 0 237 -56t81 -138q0 -74 -64 -121t-178 -47q-113 0 -188.5 65.5t-87.5 173.5 q-88 -24 -156.5 -87t-81.5 -142q-3 -17 -15.5 -27t-27.5 -10q-20 0 -31.5 13t-11.5 32zM199 1151q0 -40 50.5 -64t127.5 -24q50 0 102 8q-34 146 -170 146q-48 0 -79 -18t-31 -48zM416 213q6 -80 56 -130t130 -50q64 0 106 22t42 64q0 48 -64 79t-154 31q-42 0 -116 -16z " />
<glyph unicode="J" horiz-adv-x="1067" d="M41 51q0 116 67 191t166 75q73 0 110.5 -39.5t37.5 -97.5q0 -7 -1 -14.5t-5 -20t-14.5 -20.5t-26.5 -8q-20 0 -33.5 14t-13.5 33l2 16q2 21 -15 38.5t-47 17.5q-58 0 -97.5 -52.5t-39.5 -128.5q0 -100 79 -167.5t191 -67.5q171 0 280.5 115t109.5 317q0 115 -10.5 256 t-10.5 246q0 166 55 254q-115 49 -198 88q-132 61 -189 76q-59 16 -116 16q-79 0 -118.5 -37t-39.5 -96q0 -48 37 -78q14 -14 14 -35q0 -19 -13 -32t-30 -13q-32 0 -65 49.5t-33 108.5q0 88 66 152.5t182 64.5q82 0 163 -26t181 -75q16 -8 196 -86q38 69 94.5 110.5 t126.5 41.5q127 0 127 -117q0 -65 -55.5 -105t-146.5 -40q-49 0 -97 10q-49 -83 -49 -235q0 -90 10.5 -231t10.5 -259q0 -149 -54.5 -266.5t-164.5 -187.5t-258 -70q-160 0 -262.5 90.5t-102.5 224.5zM952 1063q54 -6 56 -6q110 0 110 61q0 17 -11 27t-30 10q-71 0 -125 -92 z" />
<glyph unicode="K" horiz-adv-x="1454" d="M61 1217q0 20 13 32.5t32 12.5t32 -11t14 -30q5 -91 73 -147t178 -56q71 0 132 12q22 183 90.5 269.5t156.5 86.5q63 0 99.5 -41t36.5 -100q0 -89 -82 -165.5t-220 -114.5q-6 -73 -6 -164q113 -10 232 -117q40 39 80 87.5t91 118.5t66 89q44 59 125 149q36 40 86 69.5 t94 29.5q19 0 32.5 -12.5t13.5 -30.5q0 -20 -13.5 -31.5t-32.5 -11.5q-18 0 -51 -22t-63 -54q-80 -86 -119 -139q-143 -196 -250 -303q14 -16 44 -56.5t40 -58.5q12 -19 52 -84t59.5 -95t60 -92t67 -95t66.5 -82.5t72 -77t70.5 -56t75.5 -41t73 -12.5q21 0 44.5 3t27.5 3 q37 0 37 -29q0 -22 -10 -36t-28.5 -19.5t-34.5 -7.5t-38 -2q-71 0 -144.5 39t-134 96t-126.5 142.5t-113.5 157t-104.5 161.5q-33 53 -49 78l-30 51q-8 10 -21 29t-18 26q-124 -98 -230 -106q-4 -89 -10.5 -153.5t-21 -132.5t-37.5 -113.5t-61 -80.5t-89 -49q-12 -4 -18 -4 q-18 0 -32.5 12.5t-14.5 30.5q0 27 30 37q80 33 117.5 134.5t46.5 324.5q-89 16 -126.5 61.5t-37.5 102.5t48 102.5t118 63.5q3 81 6 149q-52 -8 -123 -8q-90 0 -159.5 28.5t-107.5 73t-56.5 90.5t-18.5 89zM444 629q0 -67 72 -80q0 10 1 78t1 80q-30 -7 -52 -30.5 t-22 -47.5zM606 543q83 3 176 82q-76 82 -172 92l-2 -70q0 -15 -1 -52t-1 -52zM625 1055q90 32 146 85t56 105q0 27 -11.5 43.5t-35.5 16.5q-52 0 -93.5 -66.5t-61.5 -183.5z" />
<glyph unicode="L" horiz-adv-x="1153" d="M0 123q0 53 20.5 109t66.5 110.5t111 96.5q64 41 160 67q89 24 193 24h16q13 86 27 281q-65 -10 -121 -10q-145 0 -235.5 72t-90.5 202q0 19 13 32t33 13q19 0 31 -13t12 -32q0 -55 23.5 -93.5t61.5 -57.5t75.5 -27t76.5 -8q71 0 131 14q24 223 124.5 371.5t238.5 148.5 q59 0 98 -41t39 -114q0 -134 -119 -251.5t-297 -180.5q-16 -221 -31 -312q97 -14 173 -48t122.5 -78t77 -98.5t42 -104.5t11.5 -101q0 -66 -24 -125.5t-56 -94.5t-60 -55t-42 -20q-20 0 -33.5 13t-13.5 32q0 24 20 37q119 78 119 215q0 40 -8.5 79t-32.5 83t-61.5 78.5 t-101.5 62.5t-146 39q-109 -524 -432 -524q-89 0 -150 57.5t-61 151.5zM92 123q0 -56 36 -89.5t85 -33.5q124 0 211 113t131 329q-113 0 -205 -30t-146.5 -78t-83 -102.5t-28.5 -108.5zM698 932q135 54 223.5 149t88.5 185q0 28 -16.5 46.5t-43.5 18.5q-29 0 -62.5 -20 t-70 -63t-69 -125t-50.5 -191z" />
<glyph unicode="M" horiz-adv-x="1832" d="M41 238q0 198 114 463t281 415q-61 228 -217 258q-16 3 -27.5 15t-11.5 28q0 20 14 32.5t33 12.5h11q192 -33 274 -278q133 98 264 98q61 0 113 -19.5t85.5 -48t59.5 -64.5t39 -64.5t19 -53.5q173 213 350 213q115 0 190 -78q127 -132 127 -424q0 -203 -53 -409.5 t-135 -325.5q-12 -18 -39 -18q-19 0 -31 12.5t-12 32.5q0 14 6 26q74 105 123 298.5t49 383.5q0 76 -10.5 144t-35 132.5t-71.5 103t-112 38.5q-41 0 -86 -21t-78 -47.5t-68.5 -65t-50.5 -58t-31 -41.5q33 -109 33 -266q0 -169 -30.5 -321.5t-96 -256.5t-153.5 -104 q-46 0 -84 30q-50 53 -50 180q0 159 80 376t203 380q-23 107 -90 180q-70 70 -166 70q-118 0 -233 -109q32 -133 32 -362q0 -196 -40.5 -366.5t-120 -279t-181.5 -108.5q-82 0 -134 69t-52 198zM131 238q0 -20 2.5 -41.5t10.5 -58.5t30 -60t55 -23q65 0 122.5 93.5 t91.5 248.5t34 328q0 141 -18 299q-139 -162 -233.5 -388.5t-94.5 -397.5zM834 190q0 -23 2 -47.5t13 -53t30 -28.5q43 0 85 75.5t70.5 211.5t30.5 293q0 115 -12 197q-98 -166 -158.5 -344t-60.5 -304z" />
<glyph unicode="N" horiz-adv-x="1454" d="M0 1370q0 82 64 136.5t159 54.5q111 0 206.5 -71t158.5 -202q50 40 78 97t28 118q0 73 -41 137q-6 6 -6 23q0 20 12.5 33.5t32.5 13.5q38 0 66 -72t28 -135q0 -87 -43.5 -165t-121.5 -134q30 -85 49 -194q224 245 420 245q47 0 87.5 -11.5t80.5 -42.5t68 -79t45.5 -127.5 t17.5 -181.5q0 -189 -69 -404.5t-190 -412.5q-15 -23 -38 -23q-19 0 -32 13.5t-13 33.5q0 13 6 25q113 183 178 390.5t65 377.5q0 167 -53 262.5t-156 95.5q-183 0 -401 -272q12 -105 12 -225q0 -192 -34.5 -352t-103.5 -260.5t-161 -100.5q-67 0 -110 48.5t-43 127.5 q0 157 98.5 386.5t245.5 398.5q-13 130 -51 237q-27 -12 -78 -23.5t-96 -11.5q-157 0 -261 70t-104 176zM94 1370q0 -67 78.5 -114.5t192.5 -47.5q68 0 149 29q-57 118 -133 179t-158 61q-60 0 -94.5 -26.5t-34.5 -80.5zM338 137q0 -36 17.5 -63t50.5 -27q37 0 73 46.5 t64.5 127t46.5 200t18 253.5q0 55 -4 129q-114 -148 -189 -342.5t-77 -323.5z" />
<glyph unicode="O" horiz-adv-x="1351" d="M84 600q0 129 44 263.5t118 203.5q15 12 33 12q19 0 32 -12.5t13 -32.5q0 -17 -13 -30q-60 -55 -97.5 -168.5t-37.5 -235.5q0 -243 135 -384.5t351 -141.5q110 0 208.5 47.5t169 128.5t111.5 191.5t41 232.5q0 108 -29 207q-44 -29 -123.5 -47.5t-154.5 -18.5 q-125 0 -232 35.5t-174 103.5t-67 154q0 87 78.5 144t205.5 57q150 0 283 -73t223 -222q84 87 84 205q0 49 -14 92v10q0 15 10 27.5t25 17.5q7 2 14 2q15 0 25 -10q16 -14 21.5 -44t7 -49t1.5 -44q0 -83 -36 -159t-99 -130q43 -103 43 -258q0 -145 -49.5 -273t-133.5 -217.5 t-199.5 -141.5t-244.5 -52q-255 0 -414 164.5t-159 445.5zM502 1102q0 -80 116.5 -141.5t274.5 -61.5q63 0 131 18t106 44q-75 129 -191 196.5t-243 67.5q-97 0 -145.5 -34.5t-48.5 -88.5z" />
<glyph unicode="P" horiz-adv-x="1062" d="M74 410q0 210 78 416t231 337q-101 127 -244 127q-19 0 -32 11.5t-13 29.5t13.5 31.5t31.5 13.5q92 0 173.5 -44t138.5 -120q138 78 301 78q170 0 278.5 -101.5t108.5 -256.5q0 -85 -37 -157t-94 -116.5t-119 -69t-117 -24.5q-20 0 -32.5 13.5t-12.5 33.5q0 17 12 28 t31 13q62 3 124.5 36t108.5 98t46 145q0 120 -84 196t-213 76q-138 0 -250 -65q119 -224 119 -574q0 -278 -79.5 -434t-213.5 -156q-118 0 -186 109.5t-68 325.5zM164 410q0 -93 17 -171.5t55.5 -131t93.5 -52.5q82 0 138.5 135.5t59.5 356.5v25q0 324 -102 515 q-131 -119 -196.5 -310t-65.5 -367z" />
<glyph unicode="Q" horiz-adv-x="1361" d="M84 623q0 128 43 247.5t122 215.5t202.5 154t271.5 58q240 0 398.5 -172.5t158.5 -441.5q0 -176 -83.5 -331t-223.5 -249q87 -98 191.5 -165.5t195.5 -67.5q80 0 127 31q12 8 22 8q45 0 45 -39q0 -38 -65.5 -62t-126.5 -24q-213 0 -467 274q-125 -61 -262 -61 q-169 0 -282 82.5t-113 200.5q0 87 62.5 138.5t160.5 51.5q59 0 119 -22t102.5 -49t94.5 -76.5t76 -77t67 -78.5q116 74 192 212t76 304q0 232 -132.5 382.5t-332.5 150.5q-109 0 -201 -37t-154.5 -97t-107 -138.5t-64.5 -160t-20 -161.5q0 -124 33 -177q8 -13 8 -28 q0 -20 -13 -31.5t-32 -11.5q-24 0 -41.5 21.5t-27.5 58.5t-14.5 79t-4.5 89zM328 279q0 -76 89 -138.5t216 -62.5q108 0 207 47q-32 43 -71.5 84t-90 83t-108.5 67.5t-111 25.5q-60 0 -95.5 -31t-35.5 -75z" />
<glyph unicode="R" horiz-adv-x="1294" d="M104 1083q0 47 21 89t64.5 77.5t120 56.5t177.5 21q135 0 257.5 -31.5t217.5 -88t151 -144t56 -191.5q0 -123 -95.5 -211.5t-252.5 -107.5q50 -24 93.5 -58t71.5 -65t56 -74.5t41.5 -70t33.5 -69.5q2 -4 3 -6.5t3 -6t3 -6.5q2 -4 12.5 -27t14 -29.5t13 -25t15 -26 t14.5 -20t17.5 -20.5t18.5 -14q29 -18 29 -43q0 -19 -13.5 -32t-32.5 -13q-24 0 -50 22t-49.5 58.5t-39.5 67t-31 63.5q-16 37 -28 62t-34 63t-43.5 65t-55 58t-70.5 52t-87.5 38.5t-107.5 25.5q-17 1 -27.5 14t-10.5 31q0 20 12 33.5t31 13.5q86 0 164 14.5t144.5 43.5 t106 80.5t39.5 119.5q0 87 -52 159.5t-137 117.5t-189 69.5t-212 24.5q-131 0 -210.5 -44.5t-79.5 -115.5q0 -63 61 -108q112 139 340 139q112 0 184 -46t72 -116q0 -67 -79.5 -108t-223.5 -41q-141 0 -260 51q-47 -103 -47 -266q0 -370 80 -547q6 -12 6 -21q0 -19 -13 -32 t-32 -13q-29 0 -43 27q-90 194 -90 586q0 188 59 309q-107 76 -107 186zM336 930q109 -41 215 -41q69 0 119 10t71 24t21 29q0 31 -44.5 51.5t-119.5 20.5q-168 0 -262 -94z" />
<glyph unicode="S" horiz-adv-x="1185" d="M68 283q0 116 98.5 195t243.5 79q199 0 332.5 -124.5t138.5 -315.5q68 35 106.5 96.5t38.5 132.5q0 57 -19 103.5t-49 80t-81 64t-102 51.5t-126 47q-51 18 -79 28t-73 29t-70.5 35t-56.5 41.5t-47.5 52t-28 62.5t-11.5 78q0 59 26.5 113t76 98t129 70t177.5 26 q63 0 133 -18q91 75 219 75q21 0 34.5 -12.5t13.5 -32.5q0 -17 -14.5 -27t-35.5 -10q-71 0 -127 -36q28 -20 39 -31q76 -73 76 -176q0 -58 -39 -102t-98 -44q-69 0 -118.5 53t-49.5 134q0 79 39 137q-46 8 -74 8q-149 0 -232 -67.5t-83 -157.5q0 -37 14.5 -67.5t37 -52.5 t64.5 -45t82 -39.5t105 -39.5q40 -14 61 -22t59.5 -23t61.5 -27t57 -30.5t54.5 -36t46.5 -41t41 -49.5t29.5 -56.5t21 -66.5t6.5 -76q0 -106 -63 -193t-183 -137q-16 -72 -51 -132.5t-72.5 -94.5t-68.5 -53t-47 -19q-21 0 -34 11.5t-13 29.5q0 31 28 43q49 21 91.5 69 t66.5 114q-70 -14 -102 -17q-56 -6 -119 -6q-131 0 -240.5 39t-175 113.5t-65.5 169.5zM158 281q0 -101 113 -169.5t278 -68.5q144 0 244 33q1 14 1 27q0 151 -96 255q-104 112 -288 113q-103 0 -177.5 -54t-74.5 -136zM815 1098q0 -42 23.5 -72.5t54.5 -30.5q22 0 34.5 18 t12.5 44q0 96 -92 153q-33 -51 -33 -112z" />
<glyph unicode="T" horiz-adv-x="1349" d="M45 1081q0 103 83 176.5t237 73.5q125 0 236 -42t267 -128q119 72 314 72q158 0 230.5 -51t72.5 -119q0 -63 -54 -103t-143 -40q-162 0 -414 139q-92 -85 -92 -283q0 -76 21 -209q22 -180 22 -233q0 -31 -0.5 -50t-5 -60.5t-13 -69.5t-26.5 -63.5t-43 -57.5t-65 -37.5 t-90 -15.5h-8h-9t-9 0.5t-9.5 1.5t-8.5 2.5t-8.5 3.5t-7 5.5t-6 8t-3 10.5t-1.5 13q0 15 6 24.5t18.5 13t21 4.5t24.5 1q86 0 119.5 66.5t33.5 199.5q0 28 -3.5 63.5t-9.5 84t-9 73.5q-23 149 -23 221q0 210 105 324q-132 75 -232 111t-198 36q-108 0 -168 -47.5t-60 -118.5 q0 -53 43 -95t103 -42q4 0 25 3t24 3q20 0 33.5 -10.5t13.5 -28.5q0 -53 -96 -53q-86 0 -154 53q-40 32 -62 77.5t-22 92.5zM958 1110q181 -106 330 -106q41 0 73 15.5t32 41.5q0 35 -52 60.5t-159 25.5q-140 0 -224 -37z" />
<glyph unicode="U" horiz-adv-x="1484" d="M82 1151q0 68 50.5 115t123.5 47q79 0 146 -63.5t92 -178.5q67 34 106 101t39 147q0 93 -27 127q-10 13 -10 29q0 20 12.5 32.5t32.5 12.5q41 0 63 -66t21 -135q0 -111 -61.5 -202t-161.5 -134q4 -50 4 -78v-16q0 -53 -4 -225q-6 -204 -6 -234q0 -192 62.5 -283.5 t168.5 -91.5q161 0 320 201q-31 158 -31 305q0 129 17 253.5t49.5 230t86.5 170.5t121 65q24 0 47 -9t47 -31.5t39 -70.5t15 -116q0 -168 -83.5 -402.5t-213.5 -412.5q33 -121 76.5 -175.5t113.5 -54.5q3 0 21.5 1t21.5 1q45 0 45 -35q0 -49 -79 -49q-198 0 -267 230 q-167 -185 -346 -185q-158 0 -239.5 121t-81.5 338q0 22 4 226q4 167 4 228v21q0 35 -2 51q-30 -6 -64 -6q-113 0 -192.5 54.5t-79.5 146.5zM172 1151q0 -51 55.5 -83t126.5 -32q14 0 56 6q-20 83 -62.5 133t-93.5 50q-33 0 -57.5 -20.5t-24.5 -53.5zM1112 541 q0 -130 10 -199q108 180 169 375.5t61 335.5q0 141 -56 141q-30 0 -62 -47.5t-60 -129t-46 -207.5q-17 -120 -16 -254v-15z" />
<glyph unicode="V" horiz-adv-x="1406" d="M41 1108q0 83 58.5 135.5t152.5 52.5q67 0 125 -21t97.5 -55t63.5 -64t40 -60q38 64 38 172q0 76 -44 133.5t-103 71.5q-15 5 -25 17.5t-10 27.5q0 20 13 32.5t32 12.5q16 0 43 -11t60 -35t61.5 -57t48 -84t19.5 -108q0 -149 -93 -262q27 -54 43.5 -121.5t23 -147 t8 -128.5t1.5 -128q0 -217 26 -319.5t99 -102.5q74 0 164.5 105t161.5 248t119.5 292.5t48.5 237.5q0 33 -4.5 63t-19 62.5t-37 55.5t-62.5 38t-92 15q-19 0 -32 11.5t-13 29.5q0 20 13 33.5t32 13.5q148 0 227.5 -88.5t79.5 -233.5q0 -70 -32 -188t-90 -251.5t-130 -252.5 t-163 -197t-177 -78q-34 0 -62 11t-48.5 26.5t-36.5 45t-26 54.5t-17.5 67t-11 70.5t-5.5 77.5t-2 75.5v76.5q0 98 -2 157t-15.5 151.5t-39.5 156.5q-84 -63 -217 -63q-121 0 -205 67.5t-84 159.5zM131 1108q0 -52 58.5 -96.5t140.5 -44.5q112 0 186 57q-16 32 -37.5 61 t-53.5 60t-77 49t-96 18q-52 0 -86.5 -29t-34.5 -75z" />
<glyph unicode="W" horiz-adv-x="1781" d="M49 1047q0 19 1 30t5 28t15 25.5t28 8.5q19 0 31 -13t12 -32q0 -3 -2 -23t-2 -24q0 -76 46 -124t110 -63q88 162 210.5 263.5t252.5 101.5q59 0 97 -36t38 -93q0 -67 -84 -144.5t-214 -130.5t-249 -53q-80 -174 -80 -348q0 -183 82 -268q70 -70 166 -70q150 0 297 158 q-57 142 -57 331q0 62 14 127t40.5 123.5t71 95.5t99.5 37q25 0 47.5 -9t46.5 -31.5t38.5 -69t14.5 -113.5q0 -103 -57 -246t-152 -260q15 -25 25.5 -40.5t35.5 -42.5t49.5 -43t63.5 -29t82 -13q193 0 316 164t123 420q0 186 -76 344q-31 -3 -64 -3q-44 0 -88 5 q-78 8 -152 31t-121.5 71t-47.5 113q0 57 44.5 98t127.5 41q97 0 191.5 -74t162.5 -190q48 8 80 30t31 48q-2 20 10.5 33.5t32.5 13.5q19 0 32 -13.5t13 -33.5q0 -50 -38 -91t-122 -63q76 -179 76 -360q0 -294 -150.5 -481t-380.5 -187q-99 0 -183 47.5t-136 139.5 q-160 -160 -340 -160q-164 0 -252 111.5t-88 308.5q0 163 82 362q-89 28 -147 98t-58 167zM389 856q72 7 149 36.5t133 66t92 74.5t36 63q0 22 -13 32.5t-30 10.5q-94 0 -194 -78t-173 -205zM842 571q0 -149 35 -262q70 102 112.5 223.5t42.5 198.5q0 135 -55 135 q-56 0 -95.5 -97t-39.5 -198zM1155 1202q0 -57 93 -99q81 -37 208 -37q18 0 37 1q-59 88 -128.5 137t-131.5 49q-37 0 -57.5 -14t-20.5 -37z" />
<glyph unicode="X" horiz-adv-x="1443" d="M82 1135q0 77 65.5 134.5t174.5 57.5q193 0 325 -153q23 40 23 122q0 68 -33.5 139t-87.5 97q-25 12 -25 37q0 19 12 32t31 13q21 0 53 -25t63.5 -65.5t54 -102t22.5 -125.5q0 -44 -15 -100.5t-45 -97.5q60 -98 131 -275q52 77 91 130t98.5 122t111 111.5t115.5 73 t125 30.5q19 0 31 -13.5t12 -33.5q0 -18 -12.5 -34t-32.5 -15h-8q-84 0 -214 -118q-136 -124 -280 -351q65 -167 138.5 -301.5t141.5 -222t137 -146.5t128 -84.5t111 -25.5h22q19 0 32 -12.5t13 -32.5q0 -7 -1.5 -12.5t-3 -10t-5.5 -7.5t-6.5 -5.5t-8.5 -4t-8.5 -2t-9.5 -1 t-9 -0.5h-9h-8q-182 0 -370.5 205t-340.5 569q-73 -120 -129.5 -206t-124 -175t-124.5 -143t-120.5 -88.5t-122.5 -34.5q-22 0 -35 10.5t-15.5 19t-2.5 15.5q0 19 12.5 33t34.5 14h3q43 0 91 26q50 28 103 82t101.5 113t104.5 142t95.5 146t89.5 146q-64 174 -135 297 q-45 -47 -116.5 -74.5t-143.5 -27.5q-143 0 -219 64t-76 145zM174 1135q0 -50 55 -87.5t150 -37.5q61 0 123 25.5t94 64.5q-48 65 -119 104t-155 39q-70 0 -109 -32t-39 -76z" />
<glyph unicode="Y" horiz-adv-x="1406" d="M0 -174q0 103 64 176.5t155 73.5q71 0 122.5 -48t51.5 -124q0 -18 -2 -35.5t-8 -38t-18.5 -33t-30.5 -12.5q-20 0 -33.5 13.5t-13.5 31.5q0 8 4 16q10 33 10 58q0 40 -24.5 63t-57.5 23q-52 0 -90.5 -47.5t-38.5 -116.5q0 -58 21.5 -104.5t55 -75.5t76.5 -48.5 t84.5 -27.5t80.5 -8q102 0 195 25.5t176.5 83t145 142t99 210.5t39.5 280q-80 -80 -152 -120t-151 -40q-52 0 -93.5 18.5t-68 46.5t-45.5 74t-29 85.5t-15 98.5t-6 96.5t-1 94.5v129q0 47 -4 121q-64 -22 -133 -22q-124 0 -206.5 70.5t-82.5 181.5q0 87 59.5 145.5 t151.5 58.5q41 0 80.5 -14t79.5 -45t71.5 -90.5t48.5 -140.5q57 55 79 131.5t22 132.5q0 5 -3 35t-3 36q0 18 11 32t29 14q19 0 30.5 -9t16.5 -28.5t6 -35t1 -44.5q0 -105 -43 -202.5t-129 -160.5q8 -68 8 -342q0 -212 44 -296.5t138 -84.5q73 0 140 48t145 141 q-8 222 -8 241q0 93 2.5 158t10 139t22.5 122.5t39.5 90.5t62.5 62t88 20q46 0 88 -34q53 -45 53 -168q0 -136 -76 -319t-192 -331q4 -78 4 -90q0 -182 -45.5 -327.5t-119.5 -237.5t-173 -153.5t-200 -87t-207 -25.5q-62 0 -120 13t-110.5 41t-92 68t-62.5 98t-23 128z M168 1137q0 -76 57 -122t142 -46q65 0 118 24q-20 119 -69 191.5t-129 72.5q-52 0 -85.5 -35t-33.5 -85zM1141 659q0 -10 2 -55.5t2 -71.5q80 126 131 272t51 247q0 116 -61 116q-69 0 -97 -124.5t-28 -383.5z" />
<glyph unicode="Z" horiz-adv-x="1617" d="M0 109q0 84 68 142t196 58q83 0 191 -43q68 79 126.5 164.5t145.5 228.5l39 64q94 157 186 278q-86 38 -284 152q-45 -85 -127.5 -133.5t-173.5 -48.5q-104 0 -170 51t-66 141q0 86 62 136.5t153 50.5q129 0 275 -78q16 53 16 100q0 93 -53 156q-11 18 -11 28q0 20 13 34 t30 14q39 0 74 -73.5t35 -160.5q0 -75 -20 -139q31 -16 89.5 -50.5t107.5 -59t108 -46.5q78 96 143.5 143.5t142.5 47.5q62 0 94.5 -32.5t32.5 -90.5q0 -84 -73 -137.5t-183 -53.5q-55 0 -125 21q-86 -107 -206 -301l-43 -70q-9 -15 -38 -62.5t-38.5 -62t-32.5 -51.5 t-35 -54.5t-32 -46t-37.5 -51.5t-36.5 -47q102 -52 217 -123l106 -67q120 -76 210.5 -108.5t174.5 -32.5q97 0 157 51t60 135q0 58 -33.5 100.5t-95.5 42.5q-19 0 -32 13t-13 32t13 32t32 13q101 0 160.5 -67.5t59.5 -165.5q0 -114 -87 -193t-219 -79q-62 0 -116 10 t-116.5 38t-103 50t-126.5 72q-26 15 -84.5 49.5t-85.5 50.5t-68.5 38.5t-75.5 39.5q-81 -92 -160 -135t-174 -43q-60 0 -101.5 34.5t-41.5 94.5zM92 113q0 -18 17 -34t47 -16q107 0 235 132q-79 28 -133 28q-82 0 -124 -33t-42 -77zM223 1163q0 -49 39.5 -77.5t104.5 -28.5 q72 0 132 40t91 95q-148 74 -242 74q-54 0 -89.5 -30t-35.5 -73zM1098 1047q38 -9 63 -9q85 0 128.5 26.5t43.5 74.5q0 16 -11.5 29.5t-31.5 13.5q-81 0 -192 -135z" />
<glyph unicode="[" horiz-adv-x="573" d="M100 594q0 635 39 743q16 41 51 41h78q165 0 260 15h7q20 0 32.5 -12.5t12.5 -32.5q0 -34 -39 -41q-130 -19 -322 -15q-26 -150 -26 -686q0 -783 61 -823q45 -27 162 -27h157q18 -1 29.5 -14.5t11.5 -32.5t-13.5 -29.5t-35.5 -9.5h-151q-176 0 -213 35 q-47 45 -69.5 197.5t-29.5 527.5q-2 49 -2 164z" />
<glyph unicode="\" horiz-adv-x="671" d="M-49 1313q0 17 13 30t32 13q30 0 43 -25q75 -156 229 -418q232 -419 306 -568q114 -231 147 -363v-11q0 -15 -9 -28t-24 -17q-20 -4 -36 5t-21 28q-19 76 -62.5 180t-119.5 248t-123 229.5t-140 251.5q-235 417 -235 445z" />
<glyph unicode="]" horiz-adv-x="573" d="M-41 -268q0 18 13 28.5t32 10.5h4q27 -2 91 -7t109.5 -7.5t76.5 -2.5q50 0 71 6q-12 99 -12 267q0 109 9 279t12 261q16 394 16 568q0 111 -6 149q-17 14 -70 14q-45 0 -168 -18q-82 -12 -102 -12q-19 0 -31 13.5t-12 33.5q0 19 12 30t31 11q8 0 21 1.5t33 4.5t34 4 q122 18 180 18q51 0 83 -10.5t50 -24t26 -52.5t9.5 -69t1.5 -100q0 -88 -18.5 -545.5t-18.5 -559.5q0 -183 15 -265v-8q0 -84 -170 -84q-50 0 -230 15q-55 5 -73.5 13t-18.5 38z" />
<glyph unicode="^" d="M63 403l336 670h86l336 -670h-94l-287 570l-282 -570h-95z" />
<glyph unicode="_" horiz-adv-x="1024" d="M0 -154h1024v-102h-1024v102z" />
<glyph unicode="`" horiz-adv-x="419" d="M55 1036q0 17 10.5 26t26.5 9q1 0 25 -6q10 -8 28 -23.5t21 -17.5q37 -32 184 -147q17 -14 17 -35q0 -18 -9 -29.5t-22 -11.5q-20 0 -37 12q-172 137 -203 160q-41 31 -41 63z" />
<glyph unicode="a" horiz-adv-x="708" d="M70 199q0 81 27 169.5t74 165t118.5 126t152.5 49.5q89 0 139 -56t50 -161q0 -96 -27 -246q-20 -132 -20 -164q0 -15 4 -27q8 -16 8 -24q0 -17 -14 -30t-33 -13q-30 0 -43.5 30t-13.5 68q0 19 3 43.5t9.5 65.5t9.5 65q27 171 27 227q0 68 -31.5 102t-75.5 34 q-74 0 -138.5 -67.5t-99 -164.5t-34.5 -192q0 -57 24 -93t64 -36q39 0 70 29.5t47 74.5q10 27 39 27q20 0 31.5 -13t11.5 -32q0 -15 -13.5 -42t-37.5 -57t-67.5 -51.5t-94.5 -21.5q-69 0 -117.5 53.5t-48.5 161.5z" />
<glyph unicode="b" horiz-adv-x="690" d="M37 815q0 6 2.5 13.5t14.5 16.5t32 9q62 0 131 16q17 50 37 99t56 117t74.5 117.5t91 85.5t106.5 36q62 0 96.5 -36t34.5 -103q0 -106 -109 -215q-113 -115 -315 -170q-41 -114 -67.5 -252.5t-26.5 -251.5q0 -244 139 -244q50 0 103 55t89.5 147t36.5 187q0 77 -27 123.5 t-79 46.5q-59 0 -95 -39q-14 -14 -34 -14q-19 0 -32 13t-13 32q0 29 47.5 63.5t130.5 34.5q91 0 141.5 -71t50.5 -189q0 -111 -45 -218.5t-120 -175.5t-156 -68q-228 0 -228 317q0 211 80 477q-44 -6 -98 -6q-26 0 -37.5 14.5t-11.5 32.5zM317 897q139 45 228 137 q30 30 53 74t23 74q0 27 -11.5 43t-31.5 16q-58 0 -126 -92t-135 -252z" />
<glyph unicode="c" horiz-adv-x="614" d="M78 246q0 112 42.5 215.5t123 171t178.5 67.5q112 0 141 -75q6 -12 6 -29q0 -19 -11.5 -32t-31.5 -13q-23 0 -39 22q-27 39 -71 39q-75 0 -133.5 -61t-85.5 -143t-27 -162q0 -58 14.5 -97.5t38 -57t43.5 -24t41 -6.5q46 0 92.5 25.5t75.5 77.5q15 26 39 26q18 0 28.5 -13 t10.5 -34q0 -40 -74.5 -101.5t-177.5 -61.5q-100 0 -161.5 67t-61.5 199z" />
<glyph unicode="d" horiz-adv-x="696" d="M82 303q0 97 32.5 187t97.5 150t146 60q60 0 106 -34t46 -66q0 -19 -13 -32t-32 -13q-26 0 -39 23q-19 30 -68 30q-77 0 -131.5 -93.5t-54.5 -211.5q0 -105 38 -170t101 -65q62 0 112 60t80.5 163t47 231t18.5 271q-132 34 -218.5 122.5t-86.5 196.5q0 72 46 129t120 57 q68 0 119 -51q37 -35 62.5 -95t35 -120.5t13.5 -102.5q3 -33 2 -54v-11q45 -8 75 -10q39 -6 39 -41q0 -16 -13 -29.5t-24 -13.5q-41 0 -80 8q-2 -144 -19.5 -275t-61 -257.5t-109.5 -192.5q-69 -69 -160 -69q-98 0 -162.5 87t-64.5 232zM356 1114q0 -76 61 -141t154 -90 q0 87 -15 154.5t-38 103.5t-46.5 53.5t-45.5 17.5q-32 0 -51 -31.5t-19 -66.5z" />
<glyph unicode="e" horiz-adv-x="610" d="M72 258q0 185 107 311.5t235 126.5q87 0 129.5 -45t42.5 -112q0 -47 -18.5 -87.5t-49 -68t-69 -47.5t-78 -29.5t-76.5 -9.5q-19 0 -32 11.5t-13 31.5q0 18 12.5 31t32.5 14q77 2 138 45t61 109q0 31 -21.5 50t-60.5 19q-86 0 -167 -99t-81 -251q0 -31 6.5 -60.5t23 -62 t52.5 -52.5t88 -20q40 0 78.5 18t64.5 50q13 16 33 16q18 0 29.5 -13t11.5 -34q0 -34 -68.5 -77t-154.5 -43q-118 0 -187 74t-69 204z" />
<glyph unicode="f" horiz-adv-x="618" d="M-63 -254q0 98 22.5 212.5t67 236.5t124.5 234.5t183 182.5q14 206 30 299.5t56 190.5q38 90 103.5 143t148.5 53t125.5 -44t42.5 -115q0 -57 -32 -98.5t-60 -41.5q-20 0 -31.5 10.5t-11.5 22.5q0 36 24 53q19 14 19 56q0 29 -23 51t-63 22q-91 0 -158 -143 q-34 -74 -49.5 -170t-26.5 -248q79 31 174 31q44 0 64 -11t20 -38q0 -18 -12.5 -28.5t-28.5 -10.5q-10 0 -27.5 1t-21.5 1q-99 0 -170 -37q-35 -538 -88 -749q-40 -159 -94 -235.5t-148 -76.5q-68 0 -113.5 64t-45.5 182zM29 -254q0 -71 21 -114.5t52 -43.5q53 0 86 60 t64 196q47 208 76 658q-78 -70 -138.5 -171t-94 -206t-50 -201.5t-16.5 -177.5z" />
<glyph unicode="g" horiz-adv-x="657" d="M-139 -393q0 95 64 160t157 65q55 0 91 -25.5t36 -64.5q0 -18 -11.5 -29.5t-29.5 -11.5q-27 0 -35 14q-19 31 -55 31q-53 0 -89 -39.5t-36 -99.5q0 -77 60 -119.5t161 -42.5q56 0 113.5 18.5t107 52t80.5 88.5t31 122q0 80 -78 161q-45 45 -74 93q-20 -5 -26 -5 q-10 -2 -29 -2q-104 0 -168.5 72.5t-64.5 198.5q0 109 41 212.5t119.5 172.5t172.5 69q102 0 156.5 -73.5t54.5 -198.5q0 -20 -13.5 -33.5t-33.5 -13.5q-18 0 -29.5 13t-11.5 34q0 27 -6 56.5t-19 60.5t-38.5 51t-59.5 20q-66 0 -123 -58t-87.5 -142.5t-30.5 -169.5 q0 -106 49 -152q37 -37 105 -37h10q-21 41 -21 97q0 75 43.5 134.5t112.5 59.5q54 0 85 -39t31 -98t-35 -114t-100 -91q22 -32 51 -57q109 -99 109 -221q0 -109 -62.5 -194t-158 -128t-203.5 -43q-142 0 -227.5 65t-85.5 181zM387 150q0 -41 14 -76q38 20 62 59t24 76 q0 51 -34 51q-25 0 -45.5 -34t-20.5 -76z" />
<glyph unicode="h" horiz-adv-x="739" d="M37 813q0 19 13 31.5t30 9.5h39q43 0 78 6q25 81 59.5 154.5t78.5 138t98.5 103t111.5 38.5q65 0 102 -37t37 -100q0 -80 -62 -157.5t-155.5 -132.5t-198.5 -81q-47 -192 -75 -415q45 150 127.5 239.5t168.5 89.5q39 0 68.5 -15.5t46.5 -44.5t27.5 -57.5t15 -69 t5.5 -62.5t1 -54q0 -76 -11.5 -162.5t-21.5 -131.5t-16 -62q-5 -15 -16.5 -25t-26.5 -10q-20 0 -33.5 13.5t-13.5 31.5q0 2 1 6t1 6q45 177 45 334q0 113 -19 161t-59 48q-48 0 -103 -57.5t-97 -141.5t-65 -186q-16 -71 -16 -132q0 -27 3 -52q3 -19 -10 -32t-33 -13 q-17 0 -28.5 10.5t-14.5 26.5q-15 91 -15 168q0 148 23 313t45 260q-14 -2 -55 -2h-23t-20.5 2t-20 6.5t-11 13.5t-5.5 23zM297 883q122 42 209.5 121t87.5 153q0 53 -51 53q-57 0 -128.5 -93t-117.5 -234z" />
<glyph unicode="i" horiz-adv-x="327" d="M82 20q0 21 9.5 117t32.5 248t50 262q3 18 19.5 28t35.5 5q15 -5 25 -17.5t10 -27.5q0 -6 -2 -10q-28 -111 -53.5 -287.5t-34.5 -321.5q-2 -19 -14 -31t-31 -12q-20 0 -33.5 13.5t-13.5 33.5zM92 848l101 57l-11 94l62 -67l114 14l-82 -57l125 -80l-151 25l-57 -113 l2 119z" />
<glyph unicode="j" horiz-adv-x="374" d="M-377 -449q0 75 52 127t124 52q34 0 51 -10t17 -39q0 -22 -14.5 -30.5t-28.5 -8.5q-6 0 -17 1t-18 1q-26 0 -50 -26.5t-24 -63.5q0 -44 33 -76.5t90 -32.5q92 0 163.5 83.5t109.5 242.5q25 103 43 258.5t39 439.5l12 162q2 19 14 31t31 12q20 0 32.5 -13t12.5 -32 q0 -55 -10 -162q-22 -289 -40 -436.5t-46 -274.5q-42 -185 -137.5 -290t-227.5 -105q-93 0 -152 54t-59 136zM211 850q0 10 2 14q15 46 24.5 60t32.5 14q20 0 33.5 -13t13.5 -32q0 -10 -2 -16q-15 -45 -24.5 -58.5t-32.5 -13.5q-10 0 -14 2q-14 5 -23.5 17.5t-9.5 25.5z" />
<glyph unicode="k" horiz-adv-x="753" d="M39 451q0 71 54.5 118t148.5 47q7 40 28 138q4 18 11.5 53t11 50t9.5 43.5t9 42t7.5 36.5t6.5 35.5t4.5 30.5t3.5 30.5t2 26.5t1 26q0 65 -8 78q-4 12 -4 17q0 33 28 43q8 4 19 4q13 0 23 -5.5t16 -17.5t9.5 -23t4.5 -30.5t1.5 -31.5t0.5 -34q0 -16 -1 -32.5t-3.5 -37 t-4 -36t-6 -40.5t-7 -38.5t-8.5 -42.5t-8 -39t-9 -42.5t-8 -39.5q-28 -116 -39 -176q106 -24 190 -123q37 37 64.5 87.5t31.5 103.5q4 41 41 41q19 0 32.5 -13t13.5 -32q0 -61 -45.5 -140.5t-90.5 -113.5q60 -76 89.5 -174.5t29.5 -198.5q0 -20 -10 -32.5t-19 -15.5t-18 -3 q-6 0 -13 1.5t-17.5 14t-10.5 35.5q0 80 -26 164.5t-72 150.5q-39 -30 -100 -52q-58 -21 -124 -21h-6q-10 -66 -10 -146q0 -58 8 -82q6 -9 6 -20q0 -20 -13 -32.5t-32 -12.5q-61 0 -61 147q0 58 14 158q-73 24 -109 65.5t-36 90.5zM129 451q0 -29 21 -50q16 -17 45 -26 q16 96 30 157q-40 -2 -68 -23t-28 -58zM285 362h4q105 0 170 62q-24 33 -64 61.5t-80 38.5q-15 -66 -30 -162z" />
<glyph unicode="l" horiz-adv-x="319" d="M94 139q0 110 31.5 287t69.5 330q5 21 16 65t15 61l12 51t11 49.5t7.5 40.5t6.5 40t3.5 33t1.5 34q0 65 -8 78q-4 12 -4 17q0 32 29 43q8 4 18 4q13 0 23 -5.5t16 -17.5t9.5 -23t4.5 -30.5t1.5 -31.5t0.5 -34q0 -44 -11.5 -113.5t-20.5 -106t-31 -128.5 q-109 -446 -109 -643q0 -55 9 -82q6 -9 6 -20q0 -20 -13 -32.5t-32 -12.5q-62 0 -62 147z" />
<glyph unicode="m" horiz-adv-x="1118" d="M68 29q0 12 26 131q56 233 56 352q0 94 -31 125q-10 17 -10 33q0 19 13.5 32t33.5 13q34 1 60 -63q18 -44 18 -103q0 -25 -3 -53q83 204 228 204q29 0 55.5 -11.5t51 -36.5t40.5 -73t19 -114q81 240 245 240q75 -2 122.5 -77t47.5 -231q0 -161 -55 -387q-15 -33 -45 -33 q-20 0 -33.5 14.5t-13.5 33.5q0 8 2 12q55 192 55 356q0 219 -90 219q-83 0 -156 -136t-104 -324q-18 -111 -26 -133.5t-35 -22.5q-20 0 -32.5 14t-12.5 33q0 16 18 113q27 174 27 256q0 198 -90 198q-80 0 -162 -164t-133 -428q-6 -36 -43 -36q-20 0 -31.5 13t-11.5 34z " />
<glyph unicode="n" horiz-adv-x="716" d="M70 41q0 21 45 207q40 162 43 252q-3 89 -37 123q-10 17 -10 32q0 17 13 30t32 13q34 0 64 -56q25 -47 25 -114q0 -14 -1 -28q41 94 99 143t128 49q18 0 35 -4.5t40.5 -22t40.5 -46t29.5 -82t12.5 -125.5q0 -140 -47 -375q-6 -41 -45 -41q-20 0 -34 13.5t-14 33.5 q0 2 3 8q45 202 45 361q0 186 -74 186q-84 0 -171 -159t-136 -410q-7 -35 -43 -35q-20 0 -31.5 13t-11.5 34z" />
<glyph unicode="o" horiz-adv-x="698" d="M82 295q0 86 29 166q5 14 17.5 23.5t25.5 9.5q18 0 30.5 -13.5t12.5 -31.5q0 -9 -4 -21q-19 -49 -19 -131q0 -90 38 -160.5t110 -70.5q70 0 126.5 56t85.5 139.5t29 172.5q0 46 -11.5 87t-42.5 73.5t-77 32.5q-53 0 -78.5 -35.5t-25.5 -79.5q0 -23 7 -39.5t16 -24.5 t24.5 -12.5t24.5 -5t24 -0.5q20 0 33.5 -13t13.5 -32q0 -45 -55 -45q-86 0 -133 49t-47 123q0 80 53.5 140.5t146.5 60.5q100 0 159.5 -77.5t59.5 -201.5q0 -112 -40 -214.5t-119 -171t-179 -68.5q-106 0 -170.5 86.5t-64.5 228.5z" />
<glyph unicode="p" horiz-adv-x="706" d="M-131 -281q0 42 44.5 92t121.5 70q2 236 57 423.5t148.5 290.5t208.5 103q103 0 159 -83t56 -218q0 -196 -76 -306.5t-187 -110.5q-80 0 -127 48.5t-47 82.5q0 20 13 32.5t32 12.5q28 0 41 -23q9 -19 17.5 -31t27 -24t43.5 -12q74 0 122 87.5t48 243.5q0 29 -5.5 62 t-18 68.5t-38.5 59t-60 23.5q-81 0 -154 -92t-119.5 -257.5t-50.5 -364.5q101 0 180.5 -52t119.5 -130.5t40 -166.5q0 -101 -46.5 -152.5t-125.5 -51.5q-118 0 -187 127.5t-71 322.5q-34 -10 -59.5 -38t-30.5 -54q-1 -9 -13 -16t-26 -7q-37 0 -37 41zM125 -190 q1 -178 52 -281.5t114 -103.5q82 0 82 120q0 66 -28.5 126.5t-86.5 100.5q-56 38 -126 38h-7z" />
<glyph unicode="q" horiz-adv-x="681" d="M80 238q0 74 25 153.5t68 148.5t110.5 113.5t144.5 44.5q95 0 149 -65t54 -195q0 -129 -51 -375q-54 -257 -54 -374q0 -108 13 -160t36 -80q11 -15 11 -31q0 -19 -13 -31t-34 -12q-18 0 -35.5 16.5t-33.5 50t-26 94t-10 140.5q0 147 53 404q52 246 52 346q0 186 -119 186 q-54 0 -102 -37.5t-79.5 -93.5t-50 -120.5t-18.5 -120.5q0 -87 25 -128.5t79 -41.5q25 0 48 16t36 47q10 26 41 29q18 1 28.5 -13t10.5 -34q0 -43 -50 -86t-120 -43q-188 0 -188 252z" />
<glyph unicode="r" horiz-adv-x="485" d="M82 29l28 188q29 188 29 229q0 107 -45 152q-12 10 -12 33q0 19 13 32t30 13q33 0 64 -50q28 -46 28 -110v-12q32 96 104 146t154 50q21 0 35 -12.5t14 -32.5q0 -18 -12 -28.5t-31 -12.5q-51 -3 -91.5 -24t-68.5 -56t-50 -83t-37 -103t-28 -118t-24 -126q-1 -9 -2 -14 l-12 -67q-6 -39 -45 -39q-18 0 -29.5 13t-11.5 32z" />
<glyph unicode="s" horiz-adv-x="583" d="M43 141q0 64 41 106t100 42q74 0 74 -53q0 -23 -14 -32t-27 -7q-2 0 -13.5 3t-19.5 3q-49 0 -49 -60q0 -38 39.5 -68t93.5 -30q61 0 106.5 35t45.5 100q0 94 -117 156q-65 35 -107 79.5t-42 112.5t52 120t142 52q81 0 125.5 -42.5t44.5 -79.5q0 -20 -13.5 -34t-33.5 -14 q-10 0 -22 8t-15 19q-6 21 -29.5 43.5t-58.5 22.5q-48 0 -75 -27t-27 -68q0 -30 20 -53t80 -59q84 -49 126 -99.5t42 -123.5q0 -98 -66 -160t-180 -62q-91 0 -157 48t-66 122z" />
<glyph unicode="t" horiz-adv-x="430" d="M45 633q0 20 13 33t41 18.5t48 7t58 2.5q28 120 63 244q10 30 41 33q21 0 34 -11.5t13 -29.5q0 -15 -4 -23q-29 -87 -57 -215q15 0 125 -4q18 -3 31.5 -15t13.5 -28q0 -19 -11 -30t-28 -11q-30 0 -147 6q-56 -198 -56 -364q0 -46 7 -80t15 -51t21.5 -28t20 -13t16.5 -4 q17 0 29 -13t12 -30q0 -19 -13 -32t-32 -15q-1 0 -7 1t-7 1q-152 24 -152 258q0 164 51 368q-33 0 -66 -5t-44 -5t-20 9.5t-9 25.5z" />
<glyph unicode="u" horiz-adv-x="688" d="M74 260q0 127 45 365q3 15 5.5 22.5t13.5 18t28 10.5q20 0 33.5 -14t12.5 -33v-11q-49 -221 -48 -358q0 -192 86 -192q64 0 124 80t104 213t67 296q6 39 53 39q16 0 26 -16q8 -12 8 -27q0 -4 -1 -8q-5 -46 -29 -168q-35 -216 -35 -276q0 -98 41 -142q10 -12 10 -30 q0 -19 -13 -32t-32 -13q-33 0 -63 59q-29 57 -29 136v5q-40 -95 -101.5 -149.5t-129.5 -54.5q-25 0 -47 6.5t-46.5 25.5t-42 48.5t-29 81t-11.5 118.5z" />
<glyph unicode="v" horiz-adv-x="618" d="M86 303q0 70 9.5 168t19.5 150q3 14 16 24t27 10q21 0 35.5 -13t11.5 -30l-4 -20q-7 -38 -15 -128.5t-8 -160.5q0 -73 7 -126.5t17.5 -78t22.5 -24.5q23 0 66.5 52t89 131.5t84.5 191t51 215.5q4 20 18 32q12 10 26 10q4 0 7 -1q17 -1 29 -15t12 -31v-4 q-11 -103 -52.5 -222t-96 -216.5t-119.5 -163t-119 -65.5q-40 0 -68 28t-41.5 77t-19.5 99.5t-6 110.5z" />
<glyph unicode="w" horiz-adv-x="1036" d="M82 266q0 182 49 369q10 37 45 37q19 0 32 -13.5t13 -33.5q0 -7 -2 -11q-45 -189 -45 -348q0 -88 21 -138t59 -50q57 0 115.5 74.5t102 205.5t54.5 281q1 19 12.5 31t26.5 12q20 0 33.5 -13.5t13.5 -33.5q0 -14 -6 -70q-24 -240 -24 -299q0 -49 7.5 -88.5t27 -67.5 t49.5 -28q56 0 114.5 83.5t94.5 199t36 210.5q0 41 -12 62q-4 12 -4 18q0 12 8.5 24.5t20.5 16.5q9 6 18 6q59 0 59 -127q0 -58 -15.5 -133t-46 -153.5t-70 -144.5t-94.5 -108t-113 -42q-67 0 -116 57.5t-48 173.5q-39 -105 -106 -169t-144 -64q-46 0 -80 25t-52 66.5 t-26 87t-8 95.5z" />
<glyph unicode="x" horiz-adv-x="655" d="M-49 20q0 19 13 32.5t32 13.5h6q59 0 291 327q-110 206 -152 219q-15 5 -25 16.5t-10 26.5q0 18 14.5 31.5t33.5 13.5q24 0 49 -18.5t54.5 -62t41.5 -63.5t41 -73q5 -9 8 -14q78 107 131.5 161t100.5 54q18 0 31.5 -13.5t13.5 -33.5q0 -17 -13 -30t-30 -15 q-43 -5 -189 -207q61 -122 123 -218.5t96 -100.5q17 -2 29 -14.5t12 -31.5q0 -22 -15.5 -35t-35.5 -10q-62 7 -119 84t-147 250q-65 -91 -102.5 -140.5t-83 -101t-80.5 -73t-68 -21.5q-28 0 -39.5 15.5t-11.5 31.5z" />
<glyph unicode="y" horiz-adv-x="677" d="M-174 -465q0 76 44.5 142.5t114.5 109.5t154 67.5t166 24.5q75 0 131 -18q54 168 76 393q-39 -110 -113 -186t-147 -76q-46 0 -80 23t-53 63.5t-28 89t-9 104.5q0 129 45 373q9 33 26 42q10 5 23 5q19 0 32 -13.5t13 -33.5l-2 -8q-45 -247 -45 -365q0 -28 2.5 -55.5 t10 -60.5t24 -53.5t41.5 -20.5q61 0 126.5 89.5t107.5 222.5q42 131 42 249v6q0 18 14 30.5t33 12.5q18 0 29.5 -13t11.5 -32q0 -69 -20 -389q-17 -240 -74 -430q53 -31 86 -79.5t33 -104.5q0 -19 -13 -32t-32 -13t-31 13t-12 32q0 37 -21.5 62t-42.5 34 q-66 -170 -200 -274.5t-273 -104.5q-82 0 -136 43t-54 131zM-82 -459q0 -46 33 -71t78 -25q108 0 216 93.5t167 244.5q-44 12 -107 12q-86 0 -175 -32.5t-150.5 -92.5t-61.5 -129z" />
<glyph unicode="z" horiz-adv-x="688" d="M20 47q0 18 11 33q125 129 258 317q62 86 155 191q-22 0 -115.5 10t-107.5 10q-40 0 -51 -22q-12 -27 -41 -27q-19 0 -33 13t-14 32q0 9 7.5 22.5t22 29.5t43.5 27t66 11q15 0 109 -12t110 -12q45 0 62 10l6 6q10 10 29 10q22 0 34.5 -11t14.5 -19t2 -15q0 -16 -10 -33 q-113 -122 -218 -272q-38 -54 -105 -134t-101 -112q43 8 93 8q71 0 156 -16q68 -14 103 -14q23 0 36.5 3.5t19.5 13t7.5 18t1.5 26.5q0 42 39 45q30 7 41 -11.5t11 -43.5q0 -64 -43 -99.5t-113 -35.5q-21 0 -117 14q-107 21 -162 21q-72 0 -145 -23q-2 -2 -16 -2 q-19 0 -32.5 13t-13.5 30z" />
<glyph unicode="{" horiz-adv-x="757" d="M0 547q0 56 57 100.5t148 44.5q90 0 151 -49q23 59 23 117q0 73 -23 178q-20 106 -20 176q0 127 87.5 196.5t209.5 69.5q78 0 129 -32q22 -11 22 -35q0 -20 -13 -33.5t-32 -13.5q-10 0 -22 6q-36 20 -84 20q-91 0 -149 -49.5t-58 -128.5q0 -27 2.5 -54t5 -40.5t7 -36 t5.5 -25.5q1 -5 6 -28t6 -30.5t4.5 -28t5 -34t2.5 -34.5t1 -43q0 -105 -49 -193q65 -92 65 -229q0 -116 -41 -248q-36 -119 -36 -178q0 -46 14 -81t35.5 -55.5t51.5 -33t57.5 -17t58.5 -4.5q24 0 69 9h13q19 0 32 -12t13 -31q0 -14 -6.5 -24t-20.5 -15.5t-23.5 -9 t-30.5 -4.5t-25 -1h-21q-60 0 -113 15.5t-98.5 47t-72 87t-26.5 129.5q0 19 2 39t8 46.5t8.5 38t12 46t10.5 39.5q1 4 8 28.5t8.5 30t6.5 26t6 30.5t4 28.5t3.5 36t0.5 37.5q0 81 -28 141q-73 -73 -168 -73q-58 0 -99.5 13.5t-62 36t-29 45t-8.5 46.5zM90 547q0 -51 109 -51 q35 0 69.5 18t57.5 45q-48 45 -121 45q-53 0 -84 -19t-31 -38z" />
<glyph unicode="|" horiz-adv-x="454" d="M180 -512v2048h94v-2048h-94z" />
<glyph unicode="}" horiz-adv-x="757" d="M-27 1325q0 15 10 27.5t25 15.5q52 14 109 14q131 0 206.5 -73.5t75.5 -218.5q0 -33 -22 -150q-2 -12 -7.5 -37.5t-8 -40.5t-5 -44.5t-2.5 -63.5q0 -53 21 -115q64 55 157 55q89 0 137 -46t48 -105t-47 -101.5t-135 -42.5q-96 0 -168 74q-31 -56 -31 -141 q0 -42 5.5 -75.5t15.5 -68.5t12 -43t11.5 -45.5t12.5 -52.5t6.5 -51t3.5 -76q0 -62 -16.5 -111.5t-44 -81.5t-65 -54t-77.5 -31t-83 -9q-137 0 -137 58q0 19 13 32t32 13q12 0 16 -2q47 -15 76 -15q80 0 137 46t57 151q0 25 -1.5 47t-3 37t-5.5 34.5t-6.5 28t-8 29.5 t-7.5 29q-2 9 -11 43.5t-12 49t-6.5 47.5t-3.5 71q0 131 67 227q-51 78 -51 195q0 94 27 204q18 70 18 148q0 90 -52.5 140t-137.5 50q-49 0 -88 -10q-2 0 -6 -1t-5 -1q-20 0 -32.5 10.5t-12.5 30.5zM412 555q50 -68 123 -68q41 0 66.5 16t25.5 40t-23 44.5t-72 20.5 q-70 0 -120 -53z" />
<glyph unicode="~" d="M63 446q40 70 87.5 108t115.5 38q79 0 191 -55q8 -4 32.5 -16t35.5 -16.5t30 -12t34.5 -10.5t31.5 -3q71 0 141 113l61 -60q-43 -71 -89 -108.5t-113 -34.5q-35 0 -73 9.5t-57 17.5t-59 26q-37 20 -57 30t-50.5 19t-58.5 9q-74 0 -141 -111z" />
<glyph unicode="&#xa1;" horiz-adv-x="569" d="M-14 -465q0 60 40.5 98.5t106.5 38.5q53 0 100 -24q13 30 13 88q0 156 -6 246q-1 13 -10 125t-9 169q0 40 8 86t28.5 85.5t47.5 39.5q18 0 30.5 -12.5t12.5 -30.5q0 -12 -4 -24q-31 -52 -31 -144q0 -65 13 -264q12 -192 12 -272q0 -88 -29 -152q60 -76 60 -176 q0 -20 -1 -32.5t-5.5 -29t-15.5 -24.5t-28 -8q-19 0 -29.5 12.5t-10.5 30.5q0 4 2 26t2 27q0 45 -17 86q-21 -36 -61.5 -61t-93.5 -25q-54 0 -89.5 35t-35.5 86zM76 -457q0 -18 13 -30.5t34 -12.5q55 0 90 62q-25 22 -80 22q-27 0 -42 -11.5t-15 -29.5zM260 643l10 66 q7 39 49 39q25 0 40 -16.5t12 -37.5l-11 -65q-3 -19 -19 -29.5t-38 -7.5q-22 1 -34 16t-9 35z" />
<glyph unicode="&#xa2;" horiz-adv-x="921" d="M63 514q0 135 52 263t149.5 219.5t218.5 111.5q26 168 47 195q13 16 35 16q19 0 32 -13t13 -32q0 -17 -8 -25q-7 -7 -27 -135q125 -4 198 -73t73 -169q0 -70 -43.5 -114.5t-97.5 -44.5q-52 0 -82.5 34.5t-30.5 63.5q0 18 13 32.5t32 14.5q14 0 26.5 -10t16.5 -25 q9 -22 25 -22q18 0 34.5 19.5t16.5 51.5q0 67 -54 112t-143 46q-87 -700 -110 -821q77 0 139.5 32t95.5 83q15 18 39 18q19 0 31 -12.5t12 -32.5q0 -12 -13 -32.5t-41 -45.5t-65.5 -46.5t-94.5 -35.5t-120 -12q-29 -150 -55 -207q-12 -27 -41 -27q-20 0 -32.5 13t-12.5 33 q0 10 4 18q21 46 47 182q-127 29 -203 120t-76 257zM156 514q0 -249 204 -295q30 180 76 547l33 254q-81 -17 -153.5 -93.5t-116 -187.5t-43.5 -225z" />
<glyph unicode="&#xa3;" horiz-adv-x="1171" d="M-31 127q0 32 13 64.5t39 62.5t74 49t110 19q25 0 67 -9.5t72 -25.5q21 44 28.5 108.5t2.5 116.5q-96 -16 -156 -16q-74 0 -93 16q-13 11 -13 29t13.5 31.5t31.5 13.5q5 0 30.5 -3t30.5 -3q41 0 150 16q0 23 -2 55t-2 47q0 135 29.5 236t81.5 160t117 87.5t142 28.5 q27 0 94 -16q66 51 152 51q20 0 32 -1t30.5 -5t28 -15t9.5 -28q0 -20 -12.5 -30.5t-32.5 -10.5q-4 0 -23.5 4t-29.5 4q-39 0 -72 -16q48 -36 70.5 -85.5t22.5 -98.5q0 -64 -41 -111t-99 -47q-63 0 -107 44.5t-44 119.5q0 41 15.5 84.5t39.5 70.5q-149 21 -232 -96t-83 -332 q0 -26 4 -88q36 5 97.5 14t92 13.5t72 8t74.5 3.5q30 0 45.5 -1t36 -5t29.5 -14.5t9 -28.5q0 -19 -13 -31t-32 -12q-5 0 -37 3t-38 3q-31 0 -72 -3.5t-65 -6.5t-95.5 -13.5t-95.5 -13.5q6 -63 -3.5 -139t-35.5 -139q62 -34 197 -123q127 -88 251 -88q81 0 119.5 36t38.5 97 q0 2 -6 17t-6 20q0 19 13.5 32t33.5 13q33 0 43 -29q14 -11 14 -53q0 -98 -68.5 -157.5t-181.5 -59.5q-156 0 -303 96q-28 18 -66 43.5t-65.5 43t-52.5 32.5q-99 -178 -262 -178q-72 0 -114 39t-42 100zM61 131q0 -25 19 -42t49 -17q53 0 101 36.5t81 100.5q-50 29 -112 29 q-66 0 -102 -34t-36 -73zM801 965q0 -34 17.5 -57t41.5 -23q25 0 42.5 21.5t17.5 54.5q0 32 -18 72.5t-60 66.5q-41 -71 -41 -135z" />
<glyph unicode="&#xa4;" d="M45 168l143 143q-63 82 -63 189q0 113 63 186l-143 145l68 68l141 -145q86 65 190 65q108 0 187 -65l141 145l68 -68l-142 -145q62 -80 62 -186q0 -110 -62 -189l142 -143l-68 -68l-141 144q-73 -60 -187 -60q-117 0 -190 60l-141 -144zM213 500q0 -94 67 -162t164 -68 q94 0 161 68.5t67 161.5t-67 163t-161 70q-97 0 -164 -69.5t-67 -163.5z" />
<glyph unicode="&#xa5;" horiz-adv-x="1093" d="M-6 997q0 75 50 126t134 51q156 0 264 -148t152 -401q19 25 41 50t49 51.5t42 41t46 42.5t35 32q52 47 79.5 75.5t52 72.5t24.5 87q0 49 -35.5 73.5t-91.5 16.5q-17 -3 -30 9t-13 32q0 22 13.5 33t25 12.5t30.5 1.5q86 0 138.5 -45.5t52.5 -130.5q0 -65 -34 -124 t-106 -128q-18 -18 -118.5 -107.5t-135.5 -131.5q183 11 269 8q20 0 32.5 -13t12.5 -32q0 -9 -2 -16t-7 -11t-9 -6.5t-13 -3t-14.5 -1t-18 0t-18.5 0.5q-57 0 -275 -12q15 -108 15 -168q0 -195 -45 -283t-115 -88q-61 0 -96 48t-35 147q0 57 29 152t88 182q-133 -5 -152 -5 q-102 0 -137 8t-35 40q0 19 14 32t33 13h8q42 -11 115 -11q49 0 215 9q-40 246 -133 379t-207 133q-29 0 -49.5 -10.5t-29.5 -27t-12 -30t-3 -25.5q0 -3 3 -21t3 -20q0 -20 -12 -33.5t-31 -13.5q-53 0 -53 88zM428 156q0 -115 47 -115q29 0 48.5 76.5t19.5 216.5 q0 61 -8 139q-53 -82 -80 -168.5t-27 -148.5z" />
<glyph unicode="&#xa6;" horiz-adv-x="454" d="M180 -358v716h94v-716h-94zM180 666v716h94v-716h-94z" />
<glyph unicode="&#xa7;" horiz-adv-x="798" d="M61 -45q0 80 52 146.5t135 66.5q55 0 97 -33.5t42 -77.5q0 -20 -17 -31.5t-34 -11.5q-22 0 -41 37q-6 14 -21 24.5t-32 10.5q-35 0 -62.5 -37t-27.5 -90q0 -68 57.5 -124t152.5 -56q107 0 174.5 66t67.5 182q0 173 -211 260q-125 55 -184 121.5t-59 169.5q0 54 25.5 103 t60.5 83q-66 78 -66 172q0 114 92 200.5t219 86.5q108 0 177 -56.5t69 -148.5q0 -68 -47.5 -113t-95.5 -43q-18 0 -33 11t-12 36q0 12 10.5 23t23.5 12q25 2 44.5 21.5t19.5 50.5q2 50 -41 87.5t-121 37.5q-86 0 -149.5 -58t-63.5 -139q0 -47 16.5 -85t49 -67t70 -50.5 t89.5 -43.5q112 -46 176 -116.5t64 -180.5q0 -54 -24 -108.5t-58 -89.5q51 -57 51 -174q0 -82 -30 -147.5t-79 -105t-108.5 -60.5t-122.5 -21q-118 0 -207 76t-88 184zM238 582q0 -132 170 -209q155 -69 188 -111q43 62 43 141q0 60 -37.5 112.5t-134.5 98.5 q-140 64 -182 101q-47 -59 -47 -133z" />
<glyph unicode="&#xa8;" horiz-adv-x="520" d="M94 1012q0 19 13 32t32 13q18 0 29.5 -9t15 -23t5 -31t-0.5 -33v-15q0 -2 2.5 -14t2.5 -14q0 -19 -13.5 -32.5t-32.5 -13.5q-18 0 -28.5 8t-14.5 26t-5 32t-1 41q0 3 -2 17t-2 16zM315 1012q0 19 13 32t32 13q24 0 36 -16.5t13.5 -34.5t0.5 -45v-15q0 -2 2 -14t2 -14 q0 -19 -13 -32.5t-32 -13.5q-18 0 -28.5 8t-15 26t-5.5 32.5t-1 40.5q0 3 -2 17t-2 16z" />
<glyph unicode="&#xa9;" horiz-adv-x="1515" d="M82 641q0 144 47 274t134 232t223 162.5t302 60.5q122 0 227.5 -37.5t181 -103t130 -153t81 -188t26.5 -206.5q0 -113 -26.5 -219.5t-82.5 -201t-136 -164.5t-193.5 -111t-247.5 -41q-295 0 -480.5 189.5t-185.5 506.5zM172 641q0 -280 159.5 -448t416.5 -168 q148 0 265 57t187 151.5t106.5 209.5t36.5 239q0 91 -22 178.5t-68 165t-110.5 136t-156 92.5t-198.5 34q-148 0 -268 -55.5t-194.5 -148t-114 -206.5t-39.5 -237zM434 618q0 143 85 259t224 133q25 63 71 100t99 37q68 0 68 -49q0 -18 -13.5 -27.5t-33.5 -9.5h-21 q-16 0 -37.5 -13.5t-37.5 -37.5q87 -17 136.5 -74t49.5 -125q0 -58 -33.5 -92.5t-91.5 -34.5q-66 0 -118.5 66t-53.5 174q-90 -23 -146.5 -112t-56.5 -194q0 -111 55 -181t162 -70q61 0 113 24t78 64q11 16 37 16q16 0 24 -8q15 -11 15 -35q0 -15 -17 -38t-47.5 -47.5 t-84.5 -42t-118 -17.5q-139 0 -223 90t-84 245zM815 930q0 -72 28 -117t54 -45q16 0 28.5 10.5t12.5 32.5q0 39 -33 74t-90 45z" />
<glyph unicode="&#xaa;" horiz-adv-x="641" d="M72 899q0 65 23 138.5t62 137.5t98.5 106t125.5 42q74 0 118 -49t44 -135q0 -28 -3.5 -61t-10.5 -77t-9 -61q-16 -86 -16 -127q0 -10 4 -18h-2q6 -12 6 -23q0 -20 -13 -32.5t-32 -12.5q-53 0 -53 88q0 45 16 139q21 155 21 185q0 54 -25 82q-15 18 -49 18 q-55 0 -105.5 -56.5t-79 -135t-28.5 -148.5q0 -90 53 -90q31 0 55 29t31 61q3 15 14.5 25t26.5 10q18 0 29.5 -13t11.5 -32q0 -16 -11 -42.5t-31 -55t-55 -48.5t-77 -20q-57 0 -98 42t-41 134zM90 627q0 16 6.5 25.5t25.5 13.5t35 5t52 1h115q96 0 116 6q8 4 15 4 q19 0 33 -13.5t14 -33.5q0 -33 -39.5 -41t-136.5 -8l-117 2q-40 0 -64 -4q-21 -4 -38 9t-17 34z" />
<glyph unicode="&#xab;" horiz-adv-x="675" d="M53 410q0 18 21 36q24 17 73 93q65 89 89 116q19 15 34 15q19 0 32 -13.5t13 -33.5q0 -19 -12 -31q-24 -28 -131 -172q104 -63 156 -115q12 -16 12 -31q0 -19 -13.5 -32t-33.5 -13q-21 0 -31 13q-69 69 -182 127q-27 15 -27 41zM309 434q0 22 19 37q31 19 100 107 q54 64 70.5 79t33.5 15q19 0 32.5 -12.5t13.5 -32.5q0 -18 -13 -31q-14 -18 -69.5 -81t-73.5 -81q7 -5 39.5 -28t48.5 -33q52 -38 78 -64q14 -11 14 -30q0 -20 -13 -34t-32 -14q-21 0 -33 15q-1 1 -43.5 33t-91 69.5t-61.5 48.5q-19 16 -19 37z" />
<glyph unicode="&#xac;" d="M70 518v86h745v-405h-86v319h-659z" />
<glyph unicode="&#xad;" horiz-adv-x="628" d="M70 479q0 13 3.5 22.5t13 15t18 9t27.5 4.5t31.5 1.5t39.5 0.5l147 -2q108 0 148 11q8 4 14 4q18 0 31.5 -13.5t13.5 -31.5q0 -66 -207 -58l-147 2q-64 0 -80 -4q-21 -7 -37 5.5t-16 33.5z" />
<glyph unicode="&#xae;" horiz-adv-x="1056" d="M102 913q0 90 29.5 172t84.5 145.5t141 101.5t190 38q126 0 220.5 -62t140.5 -159t46 -211q0 -89 -28 -171t-80 -147.5t-136.5 -105t-189.5 -39.5q-186 0 -302 119.5t-116 318.5zM188 913q0 -174 92 -269t240 -95q86 0 154 31.5t109.5 86.5t63 123.5t21.5 147.5 q0 152 -86 255t-235 103q-169 0 -264 -111t-95 -272zM344 788q0 40 23 134q18 81 18 127q0 7 -1 43.5t-1 50.5q0 6 5 14.5t13 11.5q16 10 58 13q98 6 165.5 -34t67.5 -124q0 -38 -20.5 -69t-57.5 -44q20 -11 31.5 -23.5t20.5 -35.5q4 -9 11.5 -36.5t16 -48.5t19.5 -30 q10 -17 10 -32q0 -11 -14 -19t-33 -8q-29 0 -47 19.5t-31 68.5q-13 57 -32.5 80.5t-49.5 25.5q-9 0 -19 11t-10 28q0 19 9 29t20 10q82 5 82 72q0 39 -38.5 58.5t-82.5 17.5q2 -25 2 -43t-12 -99l-10 -47q-3 -13 -10 -42t-10 -46.5t-3 -32.5q0 -27 12 -63q3 -12 3 -23 q0 -26 -46 -26q-31 0 -45 26t-14 86z" />
<glyph unicode="&#xaf;" horiz-adv-x="485" d="M49 924q0 16 13.5 29.5t31.5 13.5q11 0 74.5 -4.5t77.5 -4.5q58 0 131 15q22 6 39.5 -5.5t17.5 -25.5q0 -17 -10 -29t-25 -14q-73 -18 -153 -18q-11 0 -74.5 4t-77.5 4q-18 0 -31.5 10.5t-13.5 24.5z" />
<glyph unicode="&#xb0;" horiz-adv-x="491" d="M98 1051q0 74 53 126t128 52q73 0 124.5 -52t51.5 -126q0 -75 -51 -127t-125 -52q-75 0 -128 52t-53 127zM172 1051q0 -45 31.5 -78t75.5 -33t75 33t31 78t-31 77.5t-75 32.5t-75.5 -32.5t-31.5 -77.5z" />
<glyph unicode="&#xb1;" d="M70 14v86h745v-86h-745zM70 444v86h329v267h86v-267h330v-86h-330v-272h-86v272h-329z" />
<glyph unicode="&#xb2;" horiz-adv-x="655" d="M43 760q0 51 38.5 86t94.5 35q31 0 62.5 -14t46.5 -25t47 -37q65 59 106 145.5t41 157.5q0 56 -31 92.5t-94 36.5q-71 0 -114 -42t-43 -105q0 -26 15.5 -42t35.5 -16q18 0 26.5 12.5t8.5 26.5v2q-9 12 -9 27q0 17 11 29t28 12q22 0 37 -21.5t15 -48.5q0 -45 -32.5 -81 t-84.5 -36q-54 0 -93.5 38.5t-39.5 97.5q0 94 70 159.5t171 65.5q95 0 150 -59t55 -148q0 -81 -44.5 -176.5t-119.5 -169.5q61 -35 99 -35q82 0 82 88q0 43 36 43q39 0 39 -53q0 -72 -44.5 -114t-112.5 -42q-78 0 -162 66q-85 -58 -162 -58q-53 0 -91 28.5t-38 74.5z M123 764q0 -10 14 -18.5t35 -8.5q49 0 94 25q-54 43 -90 43q-21 0 -37 -10.5t-16 -30.5z" />
<glyph unicode="&#xb3;" horiz-adv-x="552" d="M61 848q0 15 12 27t27 12q18 0 29.5 -11.5t11.5 -27.5q0 -49 31 -82q35 -35 100 -35q85 0 139 43t54 111q0 49 -16 73q-64 -61 -156 -61q-53 0 -87 28.5t-34 69.5q0 43 40 73t101 30q67 0 119 -25q12 27 12 66q0 38 -24.5 69t-85.5 31q-36 0 -70.5 -20.5t-44.5 -57.5 q-10 -31 -37 -31q-17 0 -29 13t-12 31q0 41 56 92t137 51q94 0 143 -50.5t49 -127.5q0 -59 -28 -113q51 -48 51 -141q0 -95 -77 -162.5t-200 -67.5q-59 0 -103 19t-66 50t-32 62t-10 62zM252 995q0 -22 41 -22q50 0 94 35q-31 14 -74 14q-61 0 -61 -27z" />
<glyph unicode="&#xb4;" horiz-adv-x="419" d="M55 842q0 21 17 35q147 115 184 147q3 2 21 17.5t28 23.5q24 6 25 6q16 0 26.5 -9t10.5 -26q0 -30 -41 -63q-23 -17 -99.5 -77t-103.5 -79q-17 -12 -37 -12q-12 0 -21.5 12t-9.5 25z" />
<glyph unicode="&#xb5;" horiz-adv-x="782" d="M6 -324q0 3 1 9.5t1 9.5q10 22 20 52t18 58t17.5 71t15.5 72.5t15 82t13.5 79.5t13.5 85t12 79t11 80.5t10 71.5q4 27 9 61t7.5 53t6 42t6 35.5t5 25.5t4.5 21t5 14q15 29 41 29q20 0 33.5 -14.5t13.5 -33.5v-6q-45 -295 -45 -385q0 -188 84 -188q86 0 162.5 150 t123.5 409q3 20 18 31t34 6q38 -7 38 -43q0 -1 -4 -28t-4 -32q-31 -161 -41 -235t-10 -148q0 -84 18 -124q7 -14 7 -21q0 -20 -14 -33.5t-34 -13.5q-60 0 -67 176q-41 -83 -99.5 -133.5t-127.5 -50.5q-43 0 -76.5 18.5t-57.5 75.5q-19 -113 -29 -168.5t-29.5 -135 t-39.5 -122.5q-12 -27 -41 -27q-19 0 -32 13t-13 32z" />
<glyph unicode="&#xb6;" horiz-adv-x="1105" d="M94 803q0 182 160.5 304t404.5 122q101 0 191 -19.5t147.5 -49t91 -63t33.5 -63.5q0 -19 -14 -33t-31 -14q-18 0 -29 8.5t-18.5 22.5t-11.5 18q-39 41 -129.5 75t-231.5 34q-199 0 -335 -98.5t-136 -243.5q0 -105 61.5 -168.5t153.5 -63.5q19 0 31 -12t12 -29 q0 -19 -12.5 -31t-32.5 -12q-54 0 -107 20.5t-98 58t-72.5 99.5t-27.5 138zM442 -106q0 173 90 602q5 26 20.5 98t22.5 108t14 84t7 78q0 65 -8 78q-4 12 -4 16q0 32 28 43q10 5 19 5q13 0 23 -5.5t16 -17.5t9.5 -23t4.5 -30.5t1.5 -31.5t0.5 -34q0 -100 -65 -393 q-86 -380 -86 -577q0 -58 8 -82q6 -9 6 -21q0 -20 -13 -32.5t-32 -12.5q-62 0 -62 148zM698 -106q0 34 2.5 73t8.5 86t10.5 81t14.5 90.5t14 78.5t15.5 81t12.5 65q6 31 25.5 123t30 152.5t10.5 98.5q0 65 -8 78q-5 15 -5 17q0 32 29 43q8 4 19 4q13 0 23 -5.5t16 -17.5 t9.5 -23t4.5 -30.5t1.5 -31.5t0.5 -34q0 -34 -6.5 -82.5t-12.5 -80.5t-21 -105t-20 -96l-6 -30q-72 -364 -75 -517v-18q0 -58 8 -82q6 -9 6 -21q0 -20 -13 -32.5t-32 -12.5q-62 0 -62 148z" />
<glyph unicode="&#xb7;" horiz-adv-x="266" d="M94 473l8 70q3 19 20 29.5t40 7.5q21 -3 33 -18t10 -34l-10 -69q-3 -17 -17.5 -27t-34.5 -10q-25 0 -38.5 14.5t-10.5 36.5z" />
<glyph unicode="&#xb8;" horiz-adv-x="497" d="M109 -311q0 19 11.5 32t29.5 13q15 0 28 -8q26 -21 64 -21q22 0 46.5 17t24.5 42q0 28 -14.5 44t-44.5 30q-37 16 -47 32q-8 13 -8 30q0 13 9.5 29.5t16.5 25t27 31.5l47 47l70 -27l-88 -100q114 -33 114 -139q0 -58 -52 -99t-110 -41q-41 0 -82.5 17t-41.5 45z" />
<glyph unicode="&#xb9;" horiz-adv-x="532" d="M49 1059q0 17 12 28t29 11q103 3 184 22q6 83 41.5 141t92.5 58q48 0 73 -26.5t25 -63.5q0 -114 -154 -166v-51q0 -26 4 -102t4 -107q0 -139 -67 -139q-17 0 -28 12.5t-11 30.5q0 8 12.5 37t12.5 59q0 31 -5.5 126t-5.5 111q-82 -18 -178 -18q-16 0 -28.5 9.5t-12.5 27.5 zM358 1149q68 35 68 78q0 12 -16 12q-13 0 -28.5 -24t-23.5 -66z" />
<glyph unicode="&#xba;" horiz-adv-x="626" d="M82 983q0 68 20 141q3 15 15.5 25t27.5 10q20 0 32.5 -13t12.5 -32q0 -8 -2 -12q-14 -63 -14 -119q0 -76 26.5 -127t82.5 -51q81 0 133.5 87.5t52.5 199.5q0 62 -21 105.5t-71 43.5q-28 0 -47 -24t-19 -58q0 -24 18 -36.5t42 -12.5q19 0 31 -10.5t12 -30.5q0 -43 -54 -43 q-57 0 -98 35.5t-41 91.5q0 70 44 121t112 51q83 0 133.5 -65t50.5 -168q0 -67 -20 -133t-55 -119t-89 -86t-116 -33q-89 0 -144 72t-55 190zM117 616q0 11 2.5 18.5t10.5 12t15 7t23.5 4t27.5 1.5h35l119 -2q88 0 115 11q12 4 14 4q20 0 32.5 -14t12.5 -33 q0 -35 -39.5 -43.5t-134.5 -8.5h-119q-49 0 -61 -2q-22 -3 -37.5 10t-15.5 35z" />
<glyph unicode="&#xbb;" horiz-adv-x="675" d="M76 276q0 25 26 41q61 30 166 138l-30 30q-66 66 -117 103q-21 18 -21 37q0 20 13.5 33.5t33.5 13.5q19 0 65 -40t92 -86t52 -50q19 -11 19 -37q0 -18 -10 -31q-122 -126 -172 -163q-46 -35 -70 -36q-20 0 -33.5 13.5t-13.5 33.5zM340 272q0 20 14 31q9 10 164 141 q-9 11 -21 23t-28 27t-25 24q-55 57 -67 72.5t-12 30.5q0 20 13 33.5t32 13.5q15 0 34 -15q39 -46 68 -71q111 -116 111 -144q0 -18 -17 -35l-71 -63q-93 -76 -117 -100q-13 -13 -31 -13q-20 0 -33.5 13t-13.5 32z" />
<glyph unicode="&#xbc;" horiz-adv-x="1474" d="M49 1059q0 17 12 28t29 11q103 3 184 22q6 83 41.5 141t92.5 58q48 0 73 -26.5t25 -63.5q0 -114 -154 -166v-51q0 -26 4 -102t4 -107q0 -139 -67 -139q-17 0 -28 12.5t-11 30.5q0 8 12.5 37t12.5 59q0 31 -5.5 126t-5.5 111q-82 -18 -178 -18q-16 0 -28.5 9.5t-12.5 27.5 zM279 12v11q16 66 52 152t72 160.5t100.5 190.5t104.5 184.5t117 200.5q170 291 225 379q16 25 41 25q14 0 24.5 -13t10.5 -30q0 -15 -14 -37q-42 -72 -219 -367q-88 -147 -141 -239.5t-123 -221.5t-113 -229.5t-62 -177.5q-4 -18 -19.5 -28t-29.5 -5q-11 5 -18.5 17.5 t-7.5 27.5zM358 1149q68 35 68 78q0 12 -16 12q-13 0 -28.5 -24t-23.5 -66zM670 262q0 40 31 72.5t79 32.5t129 -35q48 43 84.5 105.5t36.5 117.5q0 20 -15.5 32.5t-37.5 14.5l-21 -2q-9 -1 -15.5 8t-6.5 23q0 39 61 39q55 0 87 -32.5t32 -74.5q0 -128 -129 -264 q94 -41 148 -53q13 54 34 153q23 109 23 127q0 25 -2 29t-2 10q0 23 43 23q21 0 31.5 -11t12 -20.5t1.5 -24.5q0 -29 -12 -83q-1 -4 -12.5 -56.5t-21.5 -98.5t-14 -61q34 -6 64 -6q45 0 68 37q5 8 20 8q35 0 35 -32q0 -31 -33 -60.5t-90 -29.5q-32 0 -76 6q-6 -60 -6 -90 q0 -31 4 -37q4 -8 4 -11q0 -22 -43 -22q-30 -1 -40.5 16.5t-10.5 55.5q0 10 10 100q-14 3 -131 45q-10 4 -29.5 11.5t-29.5 11.5q-25 -22 -43.5 -34.5t-51 -25t-65.5 -12.5q-48 0 -74 30.5t-26 67.5zM752 258q0 -9 9.5 -15.5t20.5 -4.5q33 0 76 36q-38 21 -72 21 q-34 -8 -34 -37z" />
<glyph unicode="&#xbd;" horiz-adv-x="1331" d="M49 1059q0 17 12 28t29 11q103 3 184 22q6 83 41.5 141t92.5 58q48 0 73 -26.5t25 -63.5q0 -114 -154 -166v-51q0 -26 4 -102t4 -107q0 -139 -67 -139q-17 0 -28 12.5t-11 30.5q0 8 12.5 37t12.5 59q0 31 -5.5 126t-5.5 111q-82 -18 -178 -18q-16 0 -28.5 9.5t-12.5 27.5 zM248 12v11q16 66 52 152t72 160.5t100.5 190.5t104.5 184.5t117 200.5q154 263 226 379q16 25 41 25q14 0 24 -13t10 -30q0 -15 -14 -37q-42 -72 -219 -367q-90 -151 -141 -240t-122.5 -220t-114 -231.5t-60.5 -176.5q-4 -18 -20 -28t-30 -5q-11 5 -18.5 17.5t-7.5 27.5z M358 1149q68 35 68 78q0 12 -16 12q-13 0 -28.5 -24t-23.5 -66zM657 84q0 51 39 86t95 35q31 0 62.5 -14t45.5 -24.5t47 -37.5q65 59 106.5 146t41.5 157q0 56 -31 92.5t-94 36.5q-71 0 -114.5 -42t-43.5 -105q0 -26 15.5 -42t35.5 -16q18 0 26.5 12.5t8.5 26.5v2 q-8 11 -8 27q0 17 11 29t28 12q22 0 36.5 -21t14.5 -49q0 -45 -32.5 -80.5t-84.5 -35.5q-54 0 -93.5 38.5t-39.5 96.5q0 94 70.5 159.5t171.5 65.5q95 0 150 -59t55 -148q0 -81 -44.5 -176.5t-119.5 -169.5q61 -35 98 -35q82 0 82 88q0 43 37 43q39 0 39 -53q0 -72 -45 -114 t-113 -42q-78 0 -162 66q-83 -57 -162 -57q-53 0 -91 28t-38 74zM737 88q0 -10 14 -18.5t35 -8.5q50 0 95 25q-54 43 -90 43q-21 0 -37.5 -10.5t-16.5 -30.5z" />
<glyph unicode="&#xbe;" horiz-adv-x="1474" d="M61 848q0 15 12 27t27 12q18 0 29.5 -11.5t11.5 -27.5q0 -49 31 -82q35 -35 100 -35q85 0 139 43t54 111q0 49 -16 73q-64 -61 -156 -61q-53 0 -87 28.5t-34 69.5q0 43 40 73t101 30q67 0 119 -25q12 27 12 66q0 38 -24.5 69t-85.5 31q-36 0 -70.5 -20.5t-44.5 -57.5 q-10 -31 -37 -31q-17 0 -29 13t-12 31q0 41 56 92t137 51q94 0 143 -50.5t49 -127.5q0 -59 -28 -113q51 -48 51 -141q0 -95 -77 -162.5t-200 -67.5q-59 0 -103 19t-66 50t-32 62t-10 62zM252 995q0 -22 41 -22q50 0 94 35q-31 14 -74 14q-61 0 -61 -27zM319 12v11 q20 81 62 180t115.5 234.5t121.5 220t148 253.5q170 291 225 379q16 25 41 25q14 0 24.5 -13t10.5 -30q0 -15 -14 -37q-42 -72 -219 -367q-88 -147 -141 -239.5t-123 -221.5t-113 -229.5t-62 -177.5q-4 -18 -19.5 -28t-29.5 -5q-11 5 -19 17.5t-8 27.5zM670 262 q0 40 31 72.5t79 32.5t129 -35q48 43 84.5 105.5t36.5 117.5q0 20 -15.5 32.5t-37.5 14.5l-21 -2q-9 -1 -15.5 8t-6.5 23q0 39 61 39q55 0 87 -32.5t32 -74.5q0 -128 -129 -264q94 -41 148 -53q13 54 34 153q23 109 23 127q0 25 -2 29t-2 10q0 23 43 23q21 0 31.5 -11 t12 -20.5t1.5 -24.5q0 -29 -12 -83q-1 -4 -12.5 -56.5t-21.5 -98.5t-14 -61q34 -6 64 -6q45 0 68 37q5 8 20 8q35 0 35 -32q0 -31 -33 -60.5t-90 -29.5q-32 0 -76 6q-6 -60 -6 -90q0 -31 4 -37q4 -8 4 -11q0 -22 -43 -22q-30 -1 -40.5 16.5t-10.5 55.5q0 10 10 100 q-14 3 -131 45q-10 4 -29.5 11.5t-29.5 11.5q-25 -22 -43.5 -34.5t-51 -25t-65.5 -12.5q-48 0 -74 30.5t-26 67.5zM752 258q0 -9 9.5 -15.5t20.5 -4.5q33 0 76 36q-38 21 -72 21q-34 -8 -34 -37z" />
<glyph unicode="&#xbf;" horiz-adv-x="870" d="M55 -301q0 74 20.5 136t61 112.5t80 86t98.5 77.5q76 54 114 101.5t38 106.5q0 35 -14.5 63t-26.5 38q-14 18 -14 35q0 19 13 32t32 13q34 0 67 -58t33 -123q0 -86 -51.5 -150.5t-155.5 -139.5q-45 -33 -76.5 -61.5t-63 -69.5t-47.5 -91t-16 -110q0 -91 68 -151t186 -60 q41 0 74 8q-98 58 -98 187q0 82 49.5 133t114.5 51q66 0 117 -48t51 -136q0 -95 -64 -156q47 -3 85.5 18.5t51.5 44.5q20 33 41 33t34 -11.5t13 -31.5q0 -44 -68.5 -89.5t-164.5 -45.5q-41 0 -66 8q-82 -47 -180 -47q-164 0 -256 92q-80 80 -80 203zM410 641l12 68 q3 16 16 27.5t31 11.5q27 0 41.5 -16.5t11.5 -39.5l-10 -63q-3 -20 -19.5 -31t-39.5 -8q-21 3 -33 18t-10 33zM467 -319q0 -47 23 -86.5t63 -61.5q65 55 65 148q0 52 -24 76t-57 24q-28 0 -49 -26t-21 -74z" />
<glyph unicode="&#xc0;" horiz-adv-x="1355" d="M41 535q0 99 80 174t219 112q32 102 73 187t93 155t117.5 109t138.5 39q101 0 160 -62q92 -89 92 -342q0 -86 -8 -162q140 -80 214 -203t74 -263q0 -79 -20.5 -140.5t-54.5 -98t-74 -55t-82 -18.5q-71 0 -111 43q-71 74 -71 279q0 81 30 409q-142 68 -327 68 q-79 0 -172 -14q-52 -179 -62 -365q108 -3 189.5 43.5t81.5 124.5q0 20 11.5 32.5t31.5 12.5q19 0 32 -12.5t13 -32.5q0 -113 -105 -184t-256 -68q0 -182 45 -244q13 -13 13 -28q0 -19 -14 -32t-34 -13q-44 0 -72.5 88.5t-27.5 238.5q-108 22 -162.5 82t-54.5 140zM133 535 q0 -102 127 -138q7 151 55 328q-78 -29 -130 -78t-52 -112zM444 842q72 10 140 10q178 0 334 -64q6 61 6 121q0 213 -68 281q-37 37 -94 37q-96 0 -176.5 -105.5t-141.5 -279.5zM541 1620q0 18 13.5 31.5t33.5 13.5l24 -6q22 -17 64 -39q116 -65 190 -129q17 -14 17 -35 q0 -12 -14 -23.5t-33 -11.5q-18 0 -29 11q-55 49 -178 118q-60 34 -74 45.5t-14 24.5zM971 289q0 -113 21 -176.5t75 -63.5q62 0 99.5 66t37.5 164q0 115 -55.5 211.5t-149.5 160.5q-28 -278 -28 -362z" />
<glyph unicode="&#xc1;" horiz-adv-x="1355" d="M41 535q0 99 80 174t219 112q32 102 73 187t93 155t117.5 109t138.5 39q101 0 160 -62q92 -89 92 -342q0 -86 -8 -162q140 -80 214 -203t74 -263q0 -79 -20.5 -140.5t-54.5 -98t-74 -55t-82 -18.5q-71 0 -111 43q-71 74 -71 279q0 81 30 409q-142 68 -327 68 q-79 0 -172 -14q-52 -179 -62 -365q108 -3 189.5 43.5t81.5 124.5q0 20 11.5 32.5t31.5 12.5q19 0 32 -12.5t13 -32.5q0 -113 -105 -184t-256 -68q0 -182 45 -244q13 -13 13 -28q0 -19 -14 -32t-34 -13q-44 0 -72.5 88.5t-27.5 238.5q-108 22 -162.5 82t-54.5 140zM133 535 q0 -102 127 -138q7 151 55 328q-78 -29 -130 -78t-52 -112zM444 842q72 10 140 10q178 0 334 -64q6 61 6 121q0 213 -68 281q-37 37 -94 37q-96 0 -176.5 -105.5t-141.5 -279.5zM705 1456q0 21 13.5 33t74.5 47q120 67 178 119q10 10 28 10q19 0 33.5 -12t14.5 -23 q0 -21 -17 -35q-74 -64 -190 -129q-42 -22 -64 -39q-3 -1 -8 -2.5t-9 -2.5t-7 -1q-19 0 -33 12.5t-14 22.5zM971 289q0 -113 21 -176.5t75 -63.5q62 0 99.5 66t37.5 164q0 115 -55.5 211.5t-149.5 160.5q-28 -278 -28 -362z" />
<glyph unicode="&#xc2;" horiz-adv-x="1355" d="M41 535q0 99 80 174t219 112q32 102 73 187t93 155t117.5 109t138.5 39q101 0 160 -62q92 -89 92 -342q0 -86 -8 -162q140 -80 214 -203t74 -263q0 -79 -20.5 -140.5t-54.5 -98t-74 -55t-82 -18.5q-71 0 -111 43q-71 74 -71 279q0 81 30 409q-142 68 -327 68 q-79 0 -172 -14q-52 -179 -62 -365q108 -3 189.5 43.5t81.5 124.5q0 20 11.5 32.5t31.5 12.5q19 0 32 -12.5t13 -32.5q0 -113 -105 -184t-256 -68q0 -182 45 -244q13 -13 13 -28q0 -19 -14 -32t-34 -13q-44 0 -72.5 88.5t-27.5 238.5q-108 22 -162.5 82t-54.5 140zM133 535 q0 -102 127 -138q7 151 55 328q-78 -29 -130 -78t-52 -112zM444 842q72 10 140 10q178 0 334 -64q6 61 6 121q0 213 -68 281q-37 37 -94 37q-96 0 -176.5 -105.5t-141.5 -279.5zM547 1499q0 24 20 37q38 27 121.5 73t97.5 46q18 0 31 -13q112 -91 160 -122q22 -13 22 -39 q0 -12 -14 -23.5t-33 -11.5q-29 0 -170 123q-86 -45 -164 -99q-6 -6 -24 -6q-19 0 -33 11.5t-14 23.5zM971 289q0 -113 21 -176.5t75 -63.5q62 0 99.5 66t37.5 164q0 115 -55.5 211.5t-149.5 160.5q-28 -278 -28 -362z" />
<glyph unicode="&#xc3;" horiz-adv-x="1355" d="M41 535q0 99 80 174t219 112q32 102 73 187t93 155t117.5 109t138.5 39q101 0 160 -62q92 -89 92 -342q0 -86 -8 -162q140 -80 214 -203t74 -263q0 -79 -20.5 -140.5t-54.5 -98t-74 -55t-82 -18.5q-71 0 -111 43q-71 74 -71 279q0 81 30 409q-142 68 -327 68 q-79 0 -172 -14q-52 -179 -62 -365q108 -3 189.5 43.5t81.5 124.5q0 20 11.5 32.5t31.5 12.5q19 0 32 -12.5t13 -32.5q0 -113 -105 -184t-256 -68q0 -182 45 -244q13 -13 13 -28q0 -19 -14 -32t-34 -13q-44 0 -72.5 88.5t-27.5 238.5q-108 22 -162.5 82t-54.5 140zM133 535 q0 -102 127 -138q7 151 55 328q-78 -29 -130 -78t-52 -112zM444 842q72 10 140 10q178 0 334 -64q6 61 6 121q0 213 -68 281q-37 37 -94 37q-96 0 -176.5 -105.5t-141.5 -279.5zM483 1489q0 30 47.5 71.5t114.5 41.5q63 0 117 -31q3 -2 14.5 -8.5t16.5 -9t15.5 -7.5 t17.5 -7.5t16 -4.5t16 -2q48 0 68 43q4 10 15 17t22 7q13 0 24 -8q10 -8 10 -37q0 -28 -38.5 -63t-100.5 -35q-76 0 -137 45q-41 25 -76 25q-56 0 -88 -60q-13 -22 -37 -22q-13 0 -25 13.5t-12 31.5zM971 289q0 -113 21 -176.5t75 -63.5q62 0 99.5 66t37.5 164 q0 115 -55.5 211.5t-149.5 160.5q-28 -278 -28 -362z" />
<glyph unicode="&#xc4;" horiz-adv-x="1355" d="M41 535q0 99 80 174t219 112q32 102 73 187t93 155t117.5 109t138.5 39q101 0 160 -62q92 -89 92 -342q0 -86 -8 -162q140 -80 214 -203t74 -263q0 -79 -20.5 -140.5t-54.5 -98t-74 -55t-82 -18.5q-71 0 -111 43q-71 74 -71 279q0 81 30 409q-142 68 -327 68 q-79 0 -172 -14q-52 -179 -62 -365q108 -3 189.5 43.5t81.5 124.5q0 20 11.5 32.5t31.5 12.5q19 0 32 -12.5t13 -32.5q0 -113 -105 -184t-256 -68q0 -182 45 -244q13 -13 13 -28q0 -19 -14 -32t-34 -13q-44 0 -72.5 88.5t-27.5 238.5q-108 22 -162.5 82t-54.5 140zM133 535 q0 -102 127 -138q7 151 55 328q-78 -29 -130 -78t-52 -112zM444 842q72 10 140 10q178 0 334 -64q6 61 6 121q0 213 -68 281q-37 37 -94 37q-96 0 -176.5 -105.5t-141.5 -279.5zM594 1626q0 19 13 32t32 13q18 0 29.5 -9t15 -23t5 -31t-0.5 -33v-14q0 -2 2 -14.5t2 -14.5 q0 -19 -13 -32t-32 -13q-14 0 -24 6.5t-14.5 14.5t-7 24.5t-3 27.5t-0.5 33q0 3 -2 17t-2 16zM815 1626q0 19 13 32t32 13q18 0 29.5 -9t15 -23t5 -31t-0.5 -33v-14q0 -2 2 -14.5t2 -14.5q0 -19 -13 -32t-32 -13q-14 0 -24 6.5t-14.5 14.5t-7 24.5t-3 27.5t-0.5 33 q0 3 -2 17t-2 16zM971 289q0 -113 21 -176.5t75 -63.5q62 0 99.5 66t37.5 164q0 115 -55.5 211.5t-149.5 160.5q-28 -278 -28 -362z" />
<glyph unicode="&#xc5;" horiz-adv-x="1355" d="M41 535q0 99 80 174t219 112q32 102 73 187t93 155t117.5 109t138.5 39q101 0 160 -62q92 -89 92 -342q0 -86 -8 -162q140 -80 214 -203t74 -263q0 -79 -20.5 -140.5t-54.5 -98t-74 -55t-82 -18.5q-71 0 -111 43q-71 74 -71 279q0 81 30 409q-142 68 -327 68 q-79 0 -172 -14q-52 -179 -62 -365q108 -3 189.5 43.5t81.5 124.5q0 20 11.5 32.5t31.5 12.5q19 0 32 -12.5t13 -32.5q0 -113 -105 -184t-256 -68q0 -182 45 -244q13 -13 13 -28q0 -19 -14 -32t-34 -13q-44 0 -72.5 88.5t-27.5 238.5q-108 22 -162.5 82t-54.5 140zM133 535 q0 -102 127 -138q7 151 55 328q-78 -29 -130 -78t-52 -112zM444 842q72 10 140 10q178 0 334 -64q6 61 6 121q0 213 -68 281q-37 37 -94 37q-96 0 -176.5 -105.5t-141.5 -279.5zM600 1573q0 50 32.5 93.5t63.5 43.5q47 0 47 -35q0 -19 -28 -37q-9 -6 -22 -26t-13 -37 q0 -39 29.5 -57.5t66.5 -18.5q43 0 68.5 28.5t25.5 69.5q0 15 -13 35.5t-42 20.5q-19 0 -33 12t-14 27q0 37 45 37q61 3 100 -37t39 -95q0 -70 -52 -123t-124 -53q-81 0 -128.5 43.5t-47.5 108.5zM971 289q0 -113 21 -176.5t75 -63.5q62 0 99.5 66t37.5 164 q0 115 -55.5 211.5t-149.5 160.5q-28 -278 -28 -362z" />
<glyph unicode="&#xc6;" horiz-adv-x="2205" d="M43 723q0 81 83.5 149.5t219.5 79.5q70 165 164.5 262t212.5 97q98 0 160 -62q90 -90 90 -342q0 -96 -8 -180l22 -22q211 72 412 190q3 101 45 197.5t115.5 160.5t158.5 64q63 0 96 -32t33 -89q0 -55 -53 -119t-128.5 -118.5t-174.5 -110.5q3 -35 16 -72q110 49 238 49 q66 0 116 -15t76.5 -40t39 -52t12.5 -56q0 -61 -56.5 -104.5t-138.5 -43.5q-94 0 -178 36t-141 107q-134 -99 -134 -251q0 -147 103 -236q42 60 115.5 105.5t147 66t136.5 20.5q145 0 215 -58t70 -136q0 -86 -75 -144.5t-218 -58.5q-215 0 -371 86q-49 -72 -53 -186l2 -31 q0 -20 -13.5 -32.5t-33.5 -12.5q-13 0 -22 6t-13 12t-6 20t-2 19.5v20.5q0 119 68 231q-68 56 -104 136.5t-36 171.5q0 104 48.5 187t130.5 138q-12 27 -23 74q-159 -92 -369 -166q53 -74 83 -173.5t30 -205.5q0 -34 -2 -64.5t-11.5 -75t-25.5 -76t-47 -54.5t-74 -23 q-45 0 -80 35q-71 68 -71 287q0 110 18 286q-192 -65 -366 -65q-118 0 -168 10q-14 -98 -17 -211q0 -190 47 -250q11 -15 11 -28q0 -19 -14 -32t-34 -13q-43 0 -71.5 87.5t-28.5 235.5q0 117 19 226q-27 7 -52.5 17t-61 31t-57.5 57.5t-22 82.5zM135 725q0 -80 115 -107 q19 130 65 246q-87 -14 -133.5 -53t-46.5 -86zM338 602q61 -10 154 -10q185 0 374 67q2 8 2 46q-88 79 -206 120t-252 43q-48 -120 -72 -266zM442 950q252 -13 437 -147q4 74 4 104q-1 59 -5 103.5t-15 86t-29 68t-47.5 42.5t-69.5 16q-79 0 -149.5 -75t-125.5 -198z M930 289q0 -59 6 -106t15.5 -74t21 -40.5t22.5 -13.5q64 0 64 205q0 203 -103 348q-2 0 -4 -2q-22 -247 -22 -317zM1495 944q112 65 186 136.5t74 111.5q0 41 -37 41q-74 0 -141 -85t-82 -204zM1513 125q57 -35 143 -55.5t179 -20.5q92 0 146.5 31.5t54.5 87.5 q0 45 -49.5 78t-143.5 33q-85 0 -175.5 -37.5t-154.5 -116.5zM1546 698q50 -54 119.5 -77t128.5 -23q44 0 72 19.5t28 44.5q0 41 -42 60t-107 19q-108 0 -199 -43z" />
<glyph unicode="&#xc7;" horiz-adv-x="1230" d="M80 588q0 178 71.5 332t204.5 253.5t301 116.5q39 95 119.5 148t177.5 53q117 0 117 -55q0 -20 -12.5 -30.5t-32.5 -10.5q-5 0 -35.5 4t-36.5 4q-131 0 -192 -111q95 -5 174 -37.5t129.5 -83t78 -112.5t27.5 -129q0 -91 -56.5 -152t-156.5 -61q-110 0 -204 94 q-61 59 -93 147t-32 189q0 21 4 53q-140 -26 -246.5 -117t-161.5 -220.5t-55 -274.5q0 -149 55 -267.5t166 -190t262 -71.5q135 0 239 48t165 137q13 20 39 20q18 0 30.5 -13.5t12.5 -33.5q0 -12 -17 -38.5t-56 -62.5t-92.5 -68t-138.5 -54.5t-182 -22.5h-12l-70 -71 q21 -9 34 -16.5t34 -24.5t32 -43t11 -60q0 -65 -55 -107t-127 -42q-48 0 -87.5 18t-39.5 53q0 12 11 23.5t22 11.5q15 0 28 -8q34 -20 64 -20q47 0 74.5 18.5t27.5 52.5q0 19 -11.5 34t-23.5 22.5t-35 17.5q-16 8 -23 12.5t-14.5 17t-7.5 29.5q0 12 9 24.5t25 28.5t22 23 l12 15q-148 22 -255.5 107t-162.5 214t-55 287zM721 1147q0 -80 23.5 -147t59.5 -108t76.5 -64t77.5 -23q38 0 64 13.5t37 36t14.5 39.5t3.5 36q0 110 -95 192t-255 86q-6 -27 -6 -61z" />
<glyph unicode="&#xc8;" horiz-adv-x="1071" d="M57 -25q0 65 31 130.5t80 111.5q-45 98 -45 197q0 108 45 201.5t123 156.5q-21 61 -21 117q0 89 40.5 172t113.5 141q-39 67 -39 139q0 20 13.5 34t33.5 14q17 0 30 -14t13 -34q0 -44 25 -96q47 23 92 31q49 12 106 12q118 0 186 -47t68 -119q0 -59 -44.5 -97t-114.5 -38 q-77 0 -165.5 39.5t-152.5 106.5q-56 -45 -84.5 -110.5t-28.5 -133.5q0 -34 9 -64q106 56 231 56q137 0 226.5 -54.5t89.5 -140.5q0 -16 -3 -33t-17 -42.5t-37 -45t-68 -33.5t-105 -14q-120 0 -212.5 46.5t-145.5 125.5q-115 -106 -115 -276q0 -66 29 -144q155 92 374 92 q156 0 265.5 -64.5t109.5 -168.5q0 -32 -13 -62t-43 -58.5t-88.5 -46t-139.5 -17.5q-148 0 -279 48.5t-211 143.5q-66 -66 -72 -164q-2 -19 -14 -31t-31 -12t-32 13t-13 32zM287 193q65 -78 178.5 -122t243.5 -44q88 0 140 29t52 73q0 62 -86 106t-197 44q-198 0 -331 -86z M399 741q42 -61 117.5 -100t169.5 -39q69 0 105 21.5t36 60.5q0 44 -65.5 77.5t-161.5 33.5q-55 0 -114 -15t-87 -39zM408 1620q0 18 13.5 31.5t33.5 13.5l24 -6q22 -17 64 -39q116 -65 190 -129q17 -14 17 -35q0 -11 -14.5 -23t-33.5 -12q-17 0 -28 11q-55 49 -178 118 q-60 34 -74 45.5t-14 24.5zM551 1176q50 -46 118.5 -76.5t123.5 -30.5q27 0 48 14t21 39q0 36 -46.5 59t-117.5 23q-86 0 -147 -28z" />
<glyph unicode="&#xc9;" horiz-adv-x="1071" d="M57 -25q0 65 31 130.5t80 111.5q-45 98 -45 197q0 108 45 201.5t123 156.5q-21 61 -21 117q0 89 40.5 172t113.5 141q-39 67 -39 139q0 20 13.5 34t33.5 14q17 0 30 -14t13 -34q0 -44 25 -96q47 23 92 31q49 12 106 12q118 0 186 -47t68 -119q0 -59 -44.5 -97t-114.5 -38 q-77 0 -165.5 39.5t-152.5 106.5q-56 -45 -84.5 -110.5t-28.5 -133.5q0 -34 9 -64q106 56 231 56q137 0 226.5 -54.5t89.5 -140.5q0 -16 -3 -33t-17 -42.5t-37 -45t-68 -33.5t-105 -14q-120 0 -212.5 46.5t-145.5 125.5q-115 -106 -115 -276q0 -66 29 -144q155 92 374 92 q156 0 265.5 -64.5t109.5 -168.5q0 -32 -13 -62t-43 -58.5t-88.5 -46t-139.5 -17.5q-148 0 -279 48.5t-211 143.5q-66 -66 -72 -164q-2 -19 -14 -31t-31 -12t-32 13t-13 32zM287 193q65 -78 178.5 -122t243.5 -44q88 0 140 29t52 73q0 62 -86 106t-197 44q-198 0 -331 -86z M399 741q42 -61 117.5 -100t169.5 -39q69 0 105 21.5t36 60.5q0 44 -65.5 77.5t-161.5 33.5q-55 0 -114 -15t-87 -39zM551 1176q50 -46 118.5 -76.5t123.5 -30.5q27 0 48 14t21 39q0 36 -46.5 59t-117.5 23q-86 0 -147 -28zM643 1456q0 21 13.5 33t74.5 47q120 67 178 119 q10 10 29 10t33 -11.5t14 -23.5q0 -22 -16 -35q-72 -63 -191 -129q-39 -20 -63 -39q-24 -6 -25 -6q-19 0 -33 12.5t-14 22.5z" />
<glyph unicode="&#xca;" horiz-adv-x="1071" d="M57 -25q0 65 31 130.5t80 111.5q-45 98 -45 197q0 108 45 201.5t123 156.5q-21 61 -21 117q0 89 40.5 172t113.5 141q-39 67 -39 139q0 20 13.5 34t33.5 14q17 0 30 -14t13 -34q0 -44 25 -96q47 23 92 31q49 12 106 12q118 0 186 -47t68 -119q0 -59 -44.5 -97t-114.5 -38 q-77 0 -165.5 39.5t-152.5 106.5q-56 -45 -84.5 -110.5t-28.5 -133.5q0 -34 9 -64q106 56 231 56q137 0 226.5 -54.5t89.5 -140.5q0 -16 -3 -33t-17 -42.5t-37 -45t-68 -33.5t-105 -14q-120 0 -212.5 46.5t-145.5 125.5q-115 -106 -115 -276q0 -66 29 -144q155 92 374 92 q156 0 265.5 -64.5t109.5 -168.5q0 -32 -13 -62t-43 -58.5t-88.5 -46t-139.5 -17.5q-148 0 -279 48.5t-211 143.5q-66 -66 -72 -164q-2 -19 -14 -31t-31 -12t-32 13t-13 32zM287 193q65 -78 178.5 -122t243.5 -44q88 0 140 29t52 73q0 62 -86 106t-197 44q-198 0 -331 -86z M399 741q42 -61 117.5 -100t169.5 -39q69 0 105 21.5t36 60.5q0 44 -65.5 77.5t-161.5 33.5q-55 0 -114 -15t-87 -39zM446 1499q0 23 21 37q38 27 121.5 73t97.5 46q18 0 31 -13q112 -91 160 -122q22 -13 22 -39q0 -12 -14 -23.5t-33 -11.5q-29 0 -170 123q-86 -45 -164 -99 q-6 -6 -24 -6q-19 0 -33.5 12t-14.5 23zM551 1176q50 -46 118.5 -76.5t123.5 -30.5q27 0 48 14t21 39q0 36 -46.5 59t-117.5 23q-86 0 -147 -28z" />
<glyph unicode="&#xcb;" horiz-adv-x="1071" d="M57 -25q0 65 31 130.5t80 111.5q-45 98 -45 197q0 108 45 201.5t123 156.5q-21 61 -21 117q0 89 40.5 172t113.5 141q-39 67 -39 139q0 20 13.5 34t33.5 14q17 0 30 -14t13 -34q0 -44 25 -96q47 23 92 31q49 12 106 12q118 0 186 -47t68 -119q0 -59 -44.5 -97t-114.5 -38 q-77 0 -165.5 39.5t-152.5 106.5q-56 -45 -84.5 -110.5t-28.5 -133.5q0 -34 9 -64q106 56 231 56q137 0 226.5 -54.5t89.5 -140.5q0 -16 -3 -33t-17 -42.5t-37 -45t-68 -33.5t-105 -14q-120 0 -212.5 46.5t-145.5 125.5q-115 -106 -115 -276q0 -66 29 -144q155 92 374 92 q156 0 265.5 -64.5t109.5 -168.5q0 -32 -13 -62t-43 -58.5t-88.5 -46t-139.5 -17.5q-148 0 -279 48.5t-211 143.5q-66 -66 -72 -164q-2 -19 -14 -31t-31 -12t-32 13t-13 32zM287 193q65 -78 178.5 -122t243.5 -44q88 0 140 29t52 73q0 62 -86 106t-197 44q-198 0 -331 -86z M399 741q42 -61 117.5 -100t169.5 -39q69 0 105 21.5t36 60.5q0 44 -65.5 77.5t-161.5 33.5q-55 0 -114 -15t-87 -39zM494 1626q0 19 13 32t32 13q18 0 29.5 -9t15 -23t5 -31t-0.5 -33v-14q0 -2 2 -14.5t2 -14.5q0 -19 -13 -32t-32 -13q-14 0 -24 6.5t-14.5 14.5t-7 24.5 t-3 27.5t-0.5 33q0 3 -2 17t-2 16zM551 1176q50 -46 118.5 -76.5t123.5 -30.5q27 0 48 14t21 39q0 36 -46.5 59t-117.5 23q-86 0 -147 -28zM715 1626q0 19 13 32t32 13q18 0 29.5 -9t15 -23t5 -31t-0.5 -33v-14q0 -2 2 -14.5t2 -14.5q0 -19 -13 -32t-32 -13q-14 0 -24 6.5 t-14.5 14.5t-7 24.5t-3 27.5t-0.5 33q0 3 -2 17t-2 16z" />
<glyph unicode="&#xcc;" horiz-adv-x="903" d="M0 -33q0 15 8 41t30.5 65t56.5 75.5t93.5 72t133.5 55.5q0 105 88 357q31 82 45 124.5t27 108t10 123.5q-58 -10 -115 -10q-137 0 -204 49.5t-67 122.5q0 64 59 106.5t144 42.5q91 0 161.5 -50t98.5 -156q80 20 132 64.5t59 115.5q1 17 14.5 29t30.5 12q21 0 34 -15 t11 -36q-3 -34 -15.5 -67.5t-40 -70.5t-82 -68.5t-130.5 -49.5q5 -71 -10 -152.5t-27 -118.5t-47 -137q-76 -207 -82 -301q70 12 108 12q156 0 237 -56t81 -138q0 -74 -64 -121t-178 -47q-113 0 -188.5 65.5t-87.5 173.5q-88 -24 -156.5 -87t-81.5 -142q-3 -17 -15.5 -27 t-27.5 -10q-20 0 -31.5 13t-11.5 32zM199 1151q0 -40 50.5 -64t127.5 -24q50 0 102 8q-34 146 -170 146q-48 0 -79 -18t-31 -48zM252 1620q0 18 13.5 31.5t33.5 13.5q1 0 25 -6q24 -19 63 -39q119 -66 191 -129q16 -13 16 -35q0 -12 -14 -23.5t-33 -11.5q-18 0 -29 11 q-55 49 -178 118q-60 34 -74 45.5t-14 24.5zM416 213q6 -80 56 -130t130 -50q64 0 106 22t42 64q0 49 -62.5 78.5t-163.5 29.5q-43 0 -108 -14z" />
<glyph unicode="&#xcd;" horiz-adv-x="903" d="M0 -33q0 15 8 41t30.5 65t56.5 75.5t93.5 72t133.5 55.5q0 105 88 357q31 82 45 124.5t27 108t10 123.5q-58 -10 -115 -10q-137 0 -204 49.5t-67 122.5q0 64 59 106.5t144 42.5q91 0 161.5 -50t98.5 -156q80 20 132 64.5t59 115.5q1 17 14.5 29t30.5 12q21 0 34 -15 t11 -36q-3 -34 -15.5 -67.5t-40 -70.5t-82 -68.5t-130.5 -49.5q5 -71 -10 -152.5t-27 -118.5t-47 -137q-76 -207 -82 -301q70 12 108 12q156 0 237 -56t81 -138q0 -74 -64 -121t-178 -47q-113 0 -188.5 65.5t-87.5 173.5q-88 -24 -156.5 -87t-81.5 -142q-3 -17 -15.5 -27 t-27.5 -10q-20 0 -31.5 13t-11.5 32zM199 1151q0 -40 50.5 -64t127.5 -24q50 0 102 8q-34 146 -170 146q-48 0 -79 -18t-31 -48zM416 213q6 -80 56 -130t130 -50q64 0 106 22t42 64q0 49 -62.5 78.5t-163.5 29.5q-43 0 -108 -14zM477 1456q0 21 13.5 33t74.5 47 q120 67 178 119q10 10 29 10t33 -11.5t14 -23.5q0 -22 -16 -35q-72 -63 -191 -129q-39 -20 -63 -39q-24 -6 -25 -6q-19 0 -33 12.5t-14 22.5z" />
<glyph unicode="&#xce;" horiz-adv-x="903" d="M0 -33q0 15 8 41t30.5 65t56.5 75.5t93.5 72t133.5 55.5q0 105 88 357q31 82 45 124.5t27 108t10 123.5q-58 -10 -115 -10q-137 0 -204 49.5t-67 122.5q0 64 59 106.5t144 42.5q91 0 161.5 -50t98.5 -156q80 20 132 64.5t59 115.5q1 17 14.5 29t30.5 12q21 0 34 -15 t11 -36q-3 -34 -15.5 -67.5t-40 -70.5t-82 -68.5t-130.5 -49.5q5 -71 -10 -152.5t-27 -118.5t-47 -137q-76 -207 -82 -301q70 12 108 12q156 0 237 -56t81 -138q0 -74 -64 -121t-178 -47q-113 0 -188.5 65.5t-87.5 173.5q-88 -24 -156.5 -87t-81.5 -142q-3 -17 -15.5 -27 t-27.5 -10q-20 0 -31.5 13t-11.5 32zM199 1151q0 -40 50.5 -64t127.5 -24q50 0 102 8q-34 146 -170 146q-48 0 -79 -18t-31 -48zM281 1499q0 24 20 37q38 27 121.5 73t97.5 46q18 0 31 -13q112 -91 160 -122q22 -13 22 -39q0 -12 -14 -23.5t-33 -11.5q-29 0 -170 123 q-86 -45 -164 -99q-6 -6 -24 -6q-19 0 -33 11.5t-14 23.5zM416 213q6 -80 56 -130t130 -50q64 0 106 22t42 64q0 49 -62.5 78.5t-163.5 29.5q-43 0 -108 -14z" />
<glyph unicode="&#xcf;" horiz-adv-x="903" d="M0 -33q0 15 8 41t30.5 65t56.5 75.5t93.5 72t133.5 55.5q0 105 88 357q31 82 45 124.5t27 108t10 123.5q-58 -10 -115 -10q-137 0 -204 49.5t-67 122.5q0 64 59 106.5t144 42.5q91 0 161.5 -50t98.5 -156q80 20 132 64.5t59 115.5q1 17 14.5 29t30.5 12q21 0 34 -15 t11 -36q-3 -34 -15.5 -67.5t-40 -70.5t-82 -68.5t-130.5 -49.5q5 -71 -10 -152.5t-27 -118.5t-47 -137q-76 -207 -82 -301q70 12 108 12q156 0 237 -56t81 -138q0 -74 -64 -121t-178 -47q-113 0 -188.5 65.5t-87.5 173.5q-88 -24 -156.5 -87t-81.5 -142q-3 -17 -15.5 -27 t-27.5 -10q-20 0 -31.5 13t-11.5 32zM199 1151q0 -40 50.5 -64t127.5 -24q50 0 102 8q-34 146 -170 146q-48 0 -79 -18t-31 -48zM358 1626q0 19 13 32t32 13q24 0 36 -16.5t13.5 -34.5t0.5 -45v-14q0 -2 2 -14.5t2 -14.5q0 -19 -13 -32t-32 -13q-18 0 -28.5 8t-15 25.5 t-5.5 32t-1 40.5q0 3 -2 17t-2 16zM416 213q6 -80 56 -130t130 -50q64 0 106 22t42 64q0 49 -62.5 78.5t-163.5 29.5q-43 0 -108 -14zM580 1626q0 19 13 32t32 13q18 0 29.5 -9t15 -23t5 -31t-0.5 -33v-14q0 -2 2 -14.5t2 -14.5q0 -19 -13 -32t-32 -13q-14 0 -24 6.5 t-14.5 14.5t-7 24.5t-3 27.5t-0.5 33q0 3 -2 17t-2 16z" />
<glyph unicode="&#xd0;" horiz-adv-x="1232" d="M61 950q0 99 73.5 180.5t191 125.5t249.5 44q136 0 244.5 -31t178 -83t115.5 -123.5t65.5 -149t19.5 -163.5q0 -103 -29 -212.5t-85.5 -210.5t-132.5 -180.5t-178.5 -127.5t-213.5 -48q-52 0 -93 15.5t-69 40.5t-48 64t-31.5 78.5t-17.5 93t-7.5 98.5t-1.5 102 q-120 -19 -156 -19q-51 0 -51 41q0 7 1.5 14t14 18t35.5 11q41 0 160 21q5 93 16 162q-100 5 -175 72t-75 167zM154 950q0 -41 17 -71.5t45 -47t54.5 -25t53.5 -11.5q6 47 23.5 133t29.5 129q3 14 16 23.5t27 9.5q18 0 30.5 -12.5t12.5 -26.5q0 -15 -2 -21 q-24 -106 -47 -244q101 4 162.5 52t64.5 106q2 17 15 29t32 12t32 -13t13 -32q0 -33 -18 -71t-54.5 -76t-104.5 -64t-155 -27q-14 -86 -14 -133q41 8 107 20.5t97.5 18t69 10.5t62.5 5q19 0 31 -12.5t12 -32.5q0 -18 -12 -28.5t-31 -10.5q-67 -2 -342 -58q-5 -206 37 -316 t143 -110q95 0 183 44.5t152 117.5t112.5 164t73 186.5t24.5 182.5q0 42 -5 82t-20.5 88t-39.5 89t-66 80t-96 66.5t-133 44.5t-175 17q-170 0 -293.5 -80t-123.5 -187z" />
<glyph unicode="&#xd1;" horiz-adv-x="1454" d="M0 1370q0 82 64 136.5t159 54.5q111 0 206.5 -71t158.5 -202q50 40 78 97t28 118q0 73 -41 137q-6 6 -6 23q0 20 12.5 33.5t32.5 13.5q38 0 66 -72t28 -135q0 -87 -43.5 -165t-121.5 -134q30 -85 49 -194q224 245 420 245q47 0 87.5 -11.5t80.5 -42.5t68 -79t45.5 -127.5 t17.5 -181.5q0 -189 -69 -404.5t-190 -412.5q-15 -23 -38 -23q-19 0 -32 13.5t-13 33.5q0 13 6 25q113 183 178 390.5t65 377.5q0 167 -53 262.5t-156 95.5q-183 0 -401 -272q12 -105 12 -225q0 -192 -34.5 -352t-103.5 -260.5t-161 -100.5q-67 0 -110 48.5t-43 127.5 q0 157 98.5 386.5t245.5 398.5q-13 130 -51 237q-27 -12 -78 -23.5t-96 -11.5q-157 0 -261 70t-104 176zM94 1370q0 -67 78.5 -114.5t192.5 -47.5q68 0 149 29q-57 118 -133 179t-158 61q-60 0 -94.5 -26.5t-34.5 -80.5zM338 137q0 -36 17.5 -63t50.5 -27q37 0 73 46.5 t64.5 127t46.5 200t18 253.5q0 55 -4 129q-114 -148 -189 -342.5t-77 -323.5zM840 1489q0 30 47 71.5t114 41.5q63 0 117 -31q3 -2 14.5 -8.5t16.5 -9t15.5 -7.5t17.5 -7.5t16 -4.5t16 -2q48 0 68 43q4 10 15 17t22 7q13 0 24 -8t11 -37q0 -28 -39 -63t-101 -35 q-76 0 -137 45q-41 25 -76 25q-56 0 -88 -60q-13 -22 -36 -22q-13 0 -25 13.5t-12 31.5z" />
<glyph unicode="&#xd2;" horiz-adv-x="1351" d="M84 600q0 129 44 263.5t118 203.5q15 12 33 12q19 0 32 -12.5t13 -32.5q0 -17 -13 -30q-60 -55 -97.5 -168.5t-37.5 -235.5q0 -243 135 -384.5t351 -141.5q110 0 208.5 47.5t169 128.5t111.5 191.5t41 232.5q0 108 -29 207q-44 -29 -123.5 -47.5t-154.5 -18.5 q-125 0 -232 35.5t-174 103.5t-67 154q0 87 78.5 144t205.5 57q150 0 283 -73t223 -222q84 87 84 205q0 49 -14 92v10q0 15 10 27.5t25 17.5q24 6 39.5 -8t21 -44t7 -49t1.5 -44q0 -83 -36 -159t-99 -130q43 -103 43 -258q0 -145 -49.5 -273t-133.5 -217.5t-199.5 -141.5 t-244.5 -52q-255 0 -414 164.5t-159 445.5zM502 1102q0 -80 116.5 -141.5t274.5 -61.5q63 0 131 18t106 44q-75 129 -191 196.5t-243 67.5q-97 0 -145.5 -34.5t-48.5 -88.5zM518 1620q0 18 13.5 31.5t33.5 13.5q1 0 25 -6q24 -19 63 -39q119 -66 191 -129q16 -13 16 -35 q0 -12 -14 -23.5t-33 -11.5q-18 0 -29 11q-55 49 -178 118q-60 34 -74 45.5t-14 24.5z" />
<glyph unicode="&#xd3;" horiz-adv-x="1351" d="M84 600q0 129 44 263.5t118 203.5q15 12 33 12q19 0 32 -12.5t13 -32.5q0 -17 -13 -30q-60 -55 -97.5 -168.5t-37.5 -235.5q0 -243 135 -384.5t351 -141.5q110 0 208.5 47.5t169 128.5t111.5 191.5t41 232.5q0 108 -29 207q-44 -29 -123.5 -47.5t-154.5 -18.5 q-125 0 -232 35.5t-174 103.5t-67 154q0 87 78.5 144t205.5 57q150 0 283 -73t223 -222q84 87 84 205q0 49 -14 92v10q0 15 10 27.5t25 17.5q24 6 39.5 -8t21 -44t7 -49t1.5 -44q0 -83 -36 -159t-99 -130q43 -103 43 -258q0 -145 -49.5 -273t-133.5 -217.5t-199.5 -141.5 t-244.5 -52q-255 0 -414 164.5t-159 445.5zM502 1102q0 -80 116.5 -141.5t274.5 -61.5q63 0 131 18t106 44q-75 129 -191 196.5t-243 67.5q-97 0 -145.5 -34.5t-48.5 -88.5zM723 1456q0 21 13.5 33t74.5 47q120 67 178 119q10 10 29 10t33 -11.5t14 -23.5q0 -22 -16 -35 q-72 -63 -191 -129q-39 -20 -63 -39q-24 -6 -25 -6q-19 0 -33 12.5t-14 22.5z" />
<glyph unicode="&#xd4;" horiz-adv-x="1351" d="M84 600q0 129 44 263.5t118 203.5q15 12 33 12q19 0 32 -12.5t13 -32.5q0 -17 -13 -30q-60 -55 -97.5 -168.5t-37.5 -235.5q0 -243 135 -384.5t351 -141.5q110 0 208.5 47.5t169 128.5t111.5 191.5t41 232.5q0 108 -29 207q-44 -29 -123.5 -47.5t-154.5 -18.5 q-125 0 -232 35.5t-174 103.5t-67 154q0 87 78.5 144t205.5 57q150 0 283 -73t223 -222q84 87 84 205q0 49 -14 92v10q0 15 10 27.5t25 17.5q24 6 39.5 -8t21 -44t7 -49t1.5 -44q0 -83 -36 -159t-99 -130q43 -103 43 -258q0 -145 -49.5 -273t-133.5 -217.5t-199.5 -141.5 t-244.5 -52q-255 0 -414 164.5t-159 445.5zM502 1102q0 -80 116.5 -141.5t274.5 -61.5q63 0 131 18t106 44q-75 129 -191 196.5t-243 67.5q-97 0 -145.5 -34.5t-48.5 -88.5zM545 1499q0 24 20 37q38 27 121.5 73t97.5 46q18 0 31 -13q112 -91 160 -122q22 -13 22 -39 q0 -12 -14 -23.5t-33 -11.5q-29 0 -170 123q-86 -45 -164 -99q-6 -6 -24 -6q-19 0 -33 11.5t-14 23.5z" />
<glyph unicode="&#xd5;" horiz-adv-x="1351" d="M84 600q0 129 44 263.5t118 203.5q15 12 33 12q19 0 32 -12.5t13 -32.5q0 -17 -13 -30q-60 -55 -97.5 -168.5t-37.5 -235.5q0 -243 135 -384.5t351 -141.5q110 0 208.5 47.5t169 128.5t111.5 191.5t41 232.5q0 108 -29 207q-44 -29 -123.5 -47.5t-154.5 -18.5 q-125 0 -232 35.5t-174 103.5t-67 154q0 87 78.5 144t205.5 57q150 0 283 -73t223 -222q84 87 84 205q0 49 -14 92v10q0 15 10 27.5t25 17.5q24 6 39.5 -8t21 -44t7 -49t1.5 -44q0 -83 -36 -159t-99 -130q43 -103 43 -258q0 -145 -49.5 -273t-133.5 -217.5t-199.5 -141.5 t-244.5 -52q-255 0 -414 164.5t-159 445.5zM502 1102q0 -80 116.5 -141.5t274.5 -61.5q63 0 131 18t106 44q-75 129 -191 196.5t-243 67.5q-97 0 -145.5 -34.5t-48.5 -88.5zM512 1489q0 30 47.5 71.5t114.5 41.5q63 0 117 -31q3 -2 14.5 -8.5t16.5 -9t15.5 -7.5t17.5 -7.5 t16 -4.5t16 -2q47 0 67 43q4 10 15 17t22 7q14 0 25 -8q10 -8 10 -37q0 -28 -38.5 -63t-100.5 -35q-76 0 -137 45q-41 25 -76 25q-56 0 -88 -60q-13 -22 -37 -22q-13 0 -25 13.5t-12 31.5z" />
<glyph unicode="&#xd6;" horiz-adv-x="1351" d="M84 600q0 129 44 263.5t118 203.5q15 12 33 12q19 0 32 -12.5t13 -32.5q0 -17 -13 -30q-60 -55 -97.5 -168.5t-37.5 -235.5q0 -243 135 -384.5t351 -141.5q110 0 208.5 47.5t169 128.5t111.5 191.5t41 232.5q0 108 -29 207q-44 -29 -123.5 -47.5t-154.5 -18.5 q-125 0 -232 35.5t-174 103.5t-67 154q0 87 78.5 144t205.5 57q150 0 283 -73t223 -222q84 87 84 205q0 49 -14 92v10q0 15 10 27.5t25 17.5q24 6 39.5 -8t21 -44t7 -49t1.5 -44q0 -83 -36 -159t-99 -130q43 -103 43 -258q0 -145 -49.5 -273t-133.5 -217.5t-199.5 -141.5 t-244.5 -52q-255 0 -414 164.5t-159 445.5zM502 1102q0 -80 116.5 -141.5t274.5 -61.5q63 0 131 18t106 44q-75 129 -191 196.5t-243 67.5q-97 0 -145.5 -34.5t-48.5 -88.5zM592 1626q0 19 13 32t32 13q18 0 29.5 -9t15 -23t5 -31t-0.5 -33v-14q0 -2 2 -14.5t2 -14.5 q0 -19 -13 -32t-32 -13q-14 0 -24 6.5t-14.5 14.5t-7 24.5t-3 27.5t-0.5 33q0 3 -2 17t-2 16zM813 1626q0 19 13 32t32 13q18 0 29.5 -9t15 -23t5 -31t-0.5 -33v-14q0 -2 2 -14.5t2 -14.5q0 -19 -13 -32t-32 -13q-14 0 -24 6.5t-14.5 14.5t-7 24.5t-3 27.5t-0.5 33 q0 3 -2 17t-2 16z" />
<glyph unicode="&#xd7;" d="M100 133l281 281l-281 282l60 60l280 -283l285 283l59 -60l-282 -282l282 -281l-59 -61l-285 282l-280 -282z" />
<glyph unicode="&#xd8;" horiz-adv-x="1351" d="M84 612q0 140 50 266.5t134 216t197.5 142.5t236.5 53q50 0 115 -10q37 -6 37 -43q0 -19 -12.5 -30t-30.5 -11q-11 0 -44 5t-62 5q-141 0 -261.5 -77.5t-193 -214t-74.5 -300.5q-3 -251 143 -403q228 331 392 616q40 69 61.5 103.5t54 77.5t58.5 62t62 32.5t79 13.5 q105 0 181.5 -117.5t76.5 -314.5q0 -145 -49 -274.5t-132 -221t-196 -145t-237 -53.5q-203 0 -342 94q-75 -100 -142 -164q-15 -12 -30 -12q-19 0 -31 10.5t-12 28.5q0 21 12 33q73 73 141 161q-81 73 -131.5 197t-50.5 274zM383 158q107 -84 287 -84q143 0 264 83.5 t189.5 223.5t68.5 303q0 162 -53 255t-111 93q-62 0 -106 -48.5t-134 -201.5q-76 -131 -195 -313.5t-210 -310.5z" />
<glyph unicode="&#xd9;" horiz-adv-x="1484" d="M82 1151q0 68 50.5 115t123.5 47q79 0 146 -63.5t92 -178.5q67 34 106 101t39 147q0 93 -27 127q-10 13 -10 29q0 20 12.5 32.5t32.5 12.5q41 0 62.5 -66t21.5 -135q0 -111 -61.5 -202t-161.5 -134q4 -50 4 -78q1 -38 -4.5 -241.5t-5.5 -233.5q0 -192 62.5 -283.5 t168.5 -91.5q161 0 320 201q-31 158 -31 305q0 129 17 253.5t49.5 230t86.5 170.5t121 65q24 0 47 -9t47 -31.5t39 -70.5t15 -116q0 -168 -83.5 -402.5t-213.5 -412.5q33 -121 76.5 -175.5t113.5 -54.5q3 0 21.5 1t21.5 1q45 0 45 -35q0 -49 -79 -49q-198 0 -267 230 q-167 -185 -346 -185q-158 0 -239.5 121t-81.5 338q0 22 4.5 226.5t3.5 248.5q0 35 -2 51q-30 -6 -64 -6q-113 0 -192.5 54.5t-79.5 146.5zM172 1151q0 -51 55.5 -83t126.5 -32q14 0 56 6q-20 83 -62.5 133t-93.5 50q-33 0 -57.5 -20.5t-24.5 -53.5zM768 1620 q0 18 13.5 31.5t33.5 13.5q1 0 25 -6q24 -19 63 -39q119 -66 191 -129q16 -13 16 -35q0 -12 -14 -23.5t-33 -11.5q-18 0 -29 11q-55 49 -178 118q-60 34 -74 45.5t-14 24.5zM1112 541q0 -130 10 -199q108 180 169 375.5t61 335.5q0 141 -56 141q-30 0 -62 -47.5t-60 -129 t-45.5 -208t-16.5 -268.5z" />
<glyph unicode="&#xda;" horiz-adv-x="1484" d="M82 1151q0 68 50.5 115t123.5 47q79 0 146 -63.5t92 -178.5q67 34 106 101t39 147q0 93 -27 127q-10 13 -10 29q0 20 12.5 32.5t32.5 12.5q41 0 62.5 -66t21.5 -135q0 -111 -61.5 -202t-161.5 -134q4 -50 4 -78q1 -38 -4.5 -241.5t-5.5 -233.5q0 -192 62.5 -283.5 t168.5 -91.5q161 0 320 201q-31 158 -31 305q0 129 17 253.5t49.5 230t86.5 170.5t121 65q24 0 47 -9t47 -31.5t39 -70.5t15 -116q0 -168 -83.5 -402.5t-213.5 -412.5q33 -121 76.5 -175.5t113.5 -54.5q3 0 21.5 1t21.5 1q45 0 45 -35q0 -49 -79 -49q-198 0 -267 230 q-167 -185 -346 -185q-158 0 -239.5 121t-81.5 338q0 22 4.5 226.5t3.5 248.5q0 35 -2 51q-30 -6 -64 -6q-113 0 -192.5 54.5t-79.5 146.5zM172 1151q0 -51 55.5 -83t126.5 -32q14 0 56 6q-20 83 -62.5 133t-93.5 50q-33 0 -57.5 -20.5t-24.5 -53.5zM911 1456q0 21 13.5 33 t74.5 47q123 69 179 119q10 10 28 10q19 0 33 -11.5t14 -23.5q0 -22 -16 -35q-74 -64 -190 -129q-42 -22 -64 -39q-24 -6 -25 -6q-19 0 -33 12.5t-14 22.5zM1112 541q0 -130 10 -199q108 180 169 375.5t61 335.5q0 141 -56 141q-30 0 -62 -47.5t-60 -129t-45.5 -208 t-16.5 -268.5z" />
<glyph unicode="&#xdb;" horiz-adv-x="1484" d="M82 1151q0 68 50.5 115t123.5 47q79 0 146 -63.5t92 -178.5q67 34 106 101t39 147q0 93 -27 127q-10 13 -10 29q0 20 12.5 32.5t32.5 12.5q41 0 62.5 -66t21.5 -135q0 -111 -61.5 -202t-161.5 -134q4 -50 4 -78q1 -38 -4.5 -241.5t-5.5 -233.5q0 -192 62.5 -283.5 t168.5 -91.5q161 0 320 201q-31 158 -31 305q0 129 17 253.5t49.5 230t86.5 170.5t121 65q24 0 47 -9t47 -31.5t39 -70.5t15 -116q0 -168 -83.5 -402.5t-213.5 -412.5q33 -121 76.5 -175.5t113.5 -54.5q3 0 21.5 1t21.5 1q45 0 45 -35q0 -49 -79 -49q-198 0 -267 230 q-167 -185 -346 -185q-158 0 -239.5 121t-81.5 338q0 22 4.5 226.5t3.5 248.5q0 35 -2 51q-30 -6 -64 -6q-113 0 -192.5 54.5t-79.5 146.5zM172 1151q0 -51 55.5 -83t126.5 -32q14 0 56 6q-20 83 -62.5 133t-93.5 50q-33 0 -57.5 -20.5t-24.5 -53.5zM776 1499q0 23 21 37 q38 27 121.5 73t97.5 46q18 0 31 -13q116 -94 159 -122q23 -13 23 -39q0 -12 -14 -23.5t-33 -11.5q-29 0 -170 123q-86 -45 -164 -99q-6 -6 -25 -6t-33 11.5t-14 23.5zM1112 541q0 -130 10 -199q108 180 169 375.5t61 335.5q0 141 -56 141q-30 0 -62 -47.5t-60 -129 t-45.5 -208t-16.5 -268.5z" />
<glyph unicode="&#xdc;" horiz-adv-x="1484" d="M82 1151q0 68 50.5 115t123.5 47q79 0 146 -63.5t92 -178.5q67 34 106 101t39 147q0 93 -27 127q-10 13 -10 29q0 20 12.5 32.5t32.5 12.5q41 0 62.5 -66t21.5 -135q0 -111 -61.5 -202t-161.5 -134q4 -50 4 -78q1 -38 -4.5 -241.5t-5.5 -233.5q0 -192 62.5 -283.5 t168.5 -91.5q161 0 320 201q-31 158 -31 305q0 129 17 253.5t49.5 230t86.5 170.5t121 65q24 0 47 -9t47 -31.5t39 -70.5t15 -116q0 -168 -83.5 -402.5t-213.5 -412.5q33 -121 76.5 -175.5t113.5 -54.5q3 0 21.5 1t21.5 1q45 0 45 -35q0 -49 -79 -49q-198 0 -267 230 q-167 -185 -346 -185q-158 0 -239.5 121t-81.5 338q0 22 4.5 226.5t3.5 248.5q0 35 -2 51q-30 -6 -64 -6q-113 0 -192.5 54.5t-79.5 146.5zM172 1151q0 -51 55.5 -83t126.5 -32q14 0 56 6q-20 83 -62.5 133t-93.5 50q-33 0 -57.5 -20.5t-24.5 -53.5zM823 1626q0 19 13 32 t32 13q24 0 36 -16.5t13.5 -34.5t0.5 -45v-14q0 -2 2 -14.5t2 -14.5q0 -19 -13 -32t-32 -13q-18 0 -28.5 8t-15 25.5t-5.5 32t-1 40.5q0 3 -2 17t-2 16zM1044 1626q0 19 13.5 32t32.5 13q18 0 29.5 -9t15 -23t5 -31t-0.5 -33v-14q0 -2 2 -14.5t2 -14.5q0 -19 -13 -32 t-32 -13q-14 0 -24 6.5t-14.5 14.5t-7 24.5t-3 27.5t-0.5 33q0 3 -2.5 17t-2.5 16zM1112 541q0 -130 10 -199q108 180 169 375.5t61 335.5q0 141 -56 141q-30 0 -62 -47.5t-60 -129t-45.5 -208t-16.5 -268.5z" />
<glyph unicode="&#xdd;" horiz-adv-x="1406" d="M0 -174q0 103 64 176.5t155 73.5q71 0 122.5 -48t51.5 -124q0 -18 -2 -35.5t-8 -38t-18.5 -33t-30.5 -12.5q-20 0 -33.5 13.5t-13.5 31.5q0 8 4 16q10 33 10 58q0 40 -24.5 63t-57.5 23q-52 0 -90.5 -47.5t-38.5 -116.5q0 -58 21.5 -104.5t55 -75.5t76.5 -48.5 t84.5 -27.5t80.5 -8q102 0 195 25.5t176.5 83t145 142t99 210.5t39.5 280q-80 -80 -152 -120t-151 -40q-52 0 -93.5 18.5t-68 46.5t-45.5 74t-29 85.5t-15 98.5t-6 96.5t-1 94.5v129q0 47 -4 121q-64 -22 -133 -22q-124 0 -206.5 70.5t-82.5 181.5q0 87 59.5 145.5 t151.5 58.5q41 0 80.5 -14t79.5 -45t71.5 -90.5t48.5 -140.5q57 55 79 131.5t22 132.5q0 5 -3 35t-3 36q0 18 11 32t29 14q19 0 30.5 -9t16.5 -28.5t6 -35t1 -44.5q0 -105 -43 -202.5t-129 -160.5q8 -68 8 -342q0 -212 44 -296.5t138 -84.5q73 0 140 48t145 141 q-8 222 -8 241q0 93 2.5 158t10 139t22.5 122.5t39.5 90.5t62.5 62t88 20q46 0 88 -34q53 -45 53 -168q0 -136 -76 -319t-192 -331q4 -78 4 -90q0 -182 -45.5 -327.5t-119.5 -237.5t-173 -153.5t-200 -87t-207 -25.5q-62 0 -120 13t-110.5 41t-92 68t-62.5 98t-23 128z M168 1137q0 -76 57 -122t142 -46q65 0 118 24q-20 119 -69 191.5t-129 72.5q-52 0 -85.5 -35t-33.5 -85zM903 1456q0 21 13.5 33t74.5 47q120 67 178 119q10 10 29 10t33 -11.5t14 -23.5q0 -22 -16 -35q-72 -63 -191 -129q-39 -20 -63 -39q-24 -6 -25 -6q-19 0 -33 12.5 t-14 22.5zM1141 659q0 -10 2 -55.5t2 -71.5q80 126 131 272t51 247q0 116 -61 116q-69 0 -97 -124.5t-28 -383.5z" />
<glyph unicode="&#xde;" horiz-adv-x="1206" d="M41 1294q0 64 59 107t146 43q57 0 107.5 -17t84 -43.5t54.5 -49.5t32 -44q77 44 105 96q13 23 39 23q20 0 32.5 -11.5t12.5 -31.5q0 -25 -40 -71t-106 -81q38 -76 62 -178q98 45 205 45q161 0 266.5 -94.5t105.5 -247.5q0 -140 -96.5 -236.5t-245.5 -96.5q-133 0 -133 55 q0 20 13 31.5t34 11.5h8q43 -12 80 -12q105 0 176.5 69.5t71.5 177.5q0 117 -79.5 187.5t-200.5 70.5q-96 0 -185 -47q31 -198 31 -424q0 -72 -3.5 -132t-11.5 -127t-25.5 -117t-42.5 -92t-64 -64.5t-89 -22.5q-89 0 -144.5 101.5t-55.5 265.5q0 206 81.5 378t219.5 271 q-23 123 -62 191q-93 -35 -190 -35q-123 0 -187.5 43.5t-64.5 107.5zM135 1294q0 -67 162 -67q78 0 147 26q-27 45 -80.5 76t-121.5 31q-41 0 -74 -18t-33 -48zM336 338q0 -124 33 -204.5t77 -80.5q144 0 144 473q0 185 -27 369q-107 -90 -167 -238.5t-60 -318.5z" />
<glyph unicode="&#xdf;" horiz-adv-x="944" d="M-219 -389q0 38 41 45q48 7 89 38t72 86.5t55.5 112t43 143.5t31 151.5t23.5 164.5t16 153.5t12 145.5q54 676 411 676q114 0 181 -76.5t67 -179.5q0 -167 -116 -201q-150 -43 -150 -165q0 -33 22 -64.5t42 -47.5t63 -46q32 -23 55.5 -42.5t60.5 -59.5t58 -90.5 t21 -106.5q0 -126 -85.5 -209.5t-222.5 -83.5q-47 0 -93 14t-87 41t-66.5 73.5t-25.5 104.5q0 80 50 133.5t112 53.5q60 0 98.5 -38t38.5 -95q0 -7 -1.5 -18t-6 -31t-17.5 -33t-32 -13t-32 13.5t-13 32.5q0 3 5 24t5 25q0 49 -45 49q-24 0 -46 -27.5t-22 -75.5q0 -52 33 -88 t71 -48.5t74 -12.5q96 0 155.5 58t59.5 151q0 116 -147 219q-32 22 -50 35.5t-45 38.5t-41 47t-25 53.5t-11 65.5q0 84 57 150.5t152 92.5q55 15 55 121q0 66 -40.5 119t-117.5 53q-130 0 -212.5 -147t-106.5 -453q-30 -371 -67 -554q-98 -474 -344 -519q-5 -1 -11 -2h-6 q-18 0 -31.5 12t-13.5 31z" />
<glyph unicode="&#xe0;" horiz-adv-x="708" d="M70 199q0 81 27 169.5t74 165t118.5 126t152.5 49.5q89 0 139 -56t50 -161q0 -96 -27 -246q-20 -132 -20 -164q0 -15 4 -27q8 -16 8 -24q0 -17 -14 -30t-33 -13q-30 0 -43.5 30t-13.5 68q0 19 3 43.5t9.5 65.5t9.5 65q27 171 27 227q0 68 -31.5 102t-75.5 34 q-74 0 -138.5 -67.5t-99 -164.5t-34.5 -192q0 -57 24 -93t64 -36q39 0 70 29.5t47 74.5q10 27 39 27q20 0 31.5 -13t11.5 -32q0 -15 -13.5 -42t-37.5 -57t-67.5 -51.5t-94.5 -21.5q-69 0 -117.5 53.5t-48.5 161.5zM221 1036q0 17 10.5 26t26.5 9q1 0 25 -6q10 -8 28 -23.5 t21 -17.5q37 -32 184 -147q16 -13 16 -35q0 -18 -9 -29.5t-21 -11.5q-20 0 -37 12q-172 137 -203 160q-41 31 -41 63z" />
<glyph unicode="&#xe1;" horiz-adv-x="708" d="M70 199q0 81 27 169.5t74 165t118.5 126t152.5 49.5q89 0 139 -56t50 -161q0 -96 -27 -246q-20 -132 -20 -164q0 -15 4 -27q8 -16 8 -24q0 -17 -14 -30t-33 -13q-30 0 -43.5 30t-13.5 68q0 19 3 43.5t9.5 65.5t9.5 65q27 171 27 227q0 68 -31.5 102t-75.5 34 q-74 0 -138.5 -67.5t-99 -164.5t-34.5 -192q0 -57 24 -93t64 -36q39 0 70 29.5t47 74.5q10 27 39 27q20 0 31.5 -13t11.5 -32q0 -15 -13.5 -42t-37.5 -57t-67.5 -51.5t-94.5 -21.5q-69 0 -117.5 53.5t-48.5 161.5zM344 842q0 22 16 35q156 122 185 147q3 2 21 17.5t28 23.5 q3 1 8 2.5t9 2.5t7 1q16 0 26.5 -9t10.5 -26q0 -30 -41 -63q-24 -18 -99.5 -77.5t-102.5 -78.5q-17 -12 -37 -12q-12 0 -21.5 12t-9.5 25z" />
<glyph unicode="&#xe2;" horiz-adv-x="708" d="M70 199q0 81 27 169.5t74 165t118.5 126t152.5 49.5q89 0 139 -56t50 -161q0 -96 -27 -246q-20 -132 -20 -164q0 -15 4 -27q8 -16 8 -24q0 -17 -14 -30t-33 -13q-30 0 -43.5 30t-13.5 68q0 19 3 43.5t9.5 65.5t9.5 65q27 171 27 227q0 68 -31.5 102t-75.5 34 q-74 0 -138.5 -67.5t-99 -164.5t-34.5 -192q0 -57 24 -93t64 -36q39 0 70 29.5t47 74.5q10 27 39 27q20 0 31.5 -13t11.5 -32q0 -15 -13.5 -42t-37.5 -57t-67.5 -51.5t-94.5 -21.5q-69 0 -117.5 53.5t-48.5 161.5zM231 885q0 23 21 37q13 8 63.5 44t88.5 60.5t47 24.5 q17 0 26 -9q17 -17 46 -49.5t50 -51.5t48 -36q22 -13 22 -39q0 -13 -14 -24t-33 -11q-9 0 -24.5 9.5t-34.5 27.5t-34.5 33t-35 35.5t-25.5 26.5q-28 -20 -72.5 -56t-66.5 -51q-12 -6 -31 -6q-17 0 -29 11.5t-12 23.5z" />
<glyph unicode="&#xe3;" horiz-adv-x="708" d="M70 199q0 81 27 169.5t74 165t118.5 126t152.5 49.5q89 0 139 -56t50 -161q0 -96 -27 -246q-20 -132 -20 -164q0 -15 4 -27q8 -16 8 -24q0 -17 -14 -30t-33 -13q-30 0 -43.5 30t-13.5 68q0 19 3 43.5t9.5 65.5t9.5 65q27 171 27 227q0 68 -31.5 102t-75.5 34 q-74 0 -138.5 -67.5t-99 -164.5t-34.5 -192q0 -57 24 -93t64 -36q39 0 70 29.5t47 74.5q10 27 39 27q20 0 31.5 -13t11.5 -32q0 -15 -13.5 -42t-37.5 -57t-67.5 -51.5t-94.5 -21.5q-69 0 -117.5 53.5t-48.5 161.5zM188 885q0 33 40 78t91 45q61 0 111 -45q38 -35 70 -35 q29 0 47 51q4 12 15 19.5t22 7.5q12 0 24 -9q15 -9 15 -39q0 -28 -32.5 -67t-80.5 -39q-71 0 -115 41q-42 39 -73 39q-38 0 -60 -72q-7 -20 -33 -20q-18 0 -29.5 13t-11.5 32z" />
<glyph unicode="&#xe4;" horiz-adv-x="708" d="M70 199q0 81 27 169.5t74 165t118.5 126t152.5 49.5q89 0 139 -56t50 -161q0 -96 -27 -246q-20 -132 -20 -164q0 -15 4 -27q8 -16 8 -24q0 -17 -14 -30t-33 -13q-30 0 -43.5 30t-13.5 68q0 19 3 43.5t9.5 65.5t9.5 65q27 171 27 227q0 68 -31.5 102t-75.5 34 q-74 0 -138.5 -67.5t-99 -164.5t-34.5 -192q0 -57 24 -93t64 -36q39 0 70 29.5t47 74.5q10 27 39 27q20 0 31.5 -13t11.5 -32q0 -15 -13.5 -42t-37.5 -57t-67.5 -51.5t-94.5 -21.5q-69 0 -117.5 53.5t-48.5 161.5zM270 1012q0 19 13 32t32 13q24 0 36 -16.5t13.5 -34.5 t0.5 -45v-15q0 -2 2 -14t2 -14q0 -19 -13 -32.5t-32 -13.5q-18 0 -28.5 8t-15 26t-5.5 32.5t-1 40.5q0 3 -2 17t-2 16zM492 1012q0 19 13 32t32 13q18 0 29.5 -9t15 -23t5 -31t-0.5 -33v-15q0 -2 2 -14t2 -14q0 -19 -13 -32.5t-32 -13.5q-18 0 -28.5 8t-14.5 26t-5 32t-1 41 q0 3 -2 17t-2 16z" />
<glyph unicode="&#xe5;" horiz-adv-x="708" d="M70 199q0 81 27 169.5t74 165t118.5 126t152.5 49.5q89 0 139 -56t50 -161q0 -96 -27 -246q-20 -132 -20 -164q0 -15 4 -27q8 -16 8 -24q0 -17 -14 -30t-33 -13q-30 0 -43.5 30t-13.5 68q0 19 3 43.5t9.5 65.5t9.5 65q27 171 27 227q0 68 -31.5 102t-75.5 34 q-74 0 -138.5 -67.5t-99 -164.5t-34.5 -192q0 -57 24 -93t64 -36q39 0 70 29.5t47 74.5q10 27 39 27q20 0 31.5 -13t11.5 -32q0 -15 -13.5 -42t-37.5 -57t-67.5 -51.5t-94.5 -21.5q-69 0 -117.5 53.5t-48.5 161.5zM242 961q0 51 28 93t58 42q47 0 47 -35q0 -19 -29 -37 q-8 -5 -16 -24.5t-8 -38.5q0 -30 26.5 -48t57.5 -18q42 0 64 25.5t22 62.5q0 15 -14 35t-32 20q-19 0 -33 12.5t-14 32.5q0 31 45 31q50 3 89.5 -40t39.5 -91q0 -65 -49.5 -115.5t-115.5 -50.5q-73 0 -119.5 42.5t-46.5 101.5z" />
<glyph unicode="&#xe6;" horiz-adv-x="1048" d="M70 184q0 109 47 227.5t135 204.5t190 86q66 0 110 -39.5t62 -109.5q43 68 106.5 103.5t129.5 35.5q85 0 129.5 -43.5t44.5 -113.5q0 -75 -47.5 -132t-112.5 -82.5t-131 -25.5q-18 0 -30.5 11t-12.5 30t12 31t31 14q77 2 139 45t62 109q0 30 -21 51.5t-61 21.5t-83 -24.5 t-80.5 -68t-62 -112.5t-24.5 -149q0 -88 40.5 -142.5t125.5 -54.5q75 0 125 60q15 18 37 18q19 0 31 -13.5t12 -33.5q0 -17 -21 -42.5t-71.5 -49t-114.5 -23.5q-49 0 -92.5 14.5t-81.5 47t-60 91.5t-22 140l2 23q3 29 11.5 100t8.5 88q0 66 -25.5 103.5t-68.5 37.5 q-69 0 -135 -69.5t-104.5 -170.5t-38.5 -194q0 -63 23.5 -95t64.5 -32q44 0 84.5 39t62.5 86q4 13 16.5 22t24.5 9q20 0 32.5 -13.5t12.5 -33.5q0 -15 -16.5 -45.5t-45 -64t-75.5 -58.5t-98 -25q-73 0 -124.5 51.5t-51.5 159.5z" />
<glyph unicode="&#xe7;" horiz-adv-x="614" d="M78 246q0 112 42.5 215.5t123 171t178.5 67.5q112 0 141 -75q6 -12 6 -29q0 -19 -11.5 -32t-31.5 -13q-23 0 -39 22q-27 39 -71 39q-75 0 -133.5 -61t-85.5 -143t-27 -162q0 -58 14.5 -97.5t38 -57t43.5 -24t41 -6.5q46 0 92.5 25.5t75.5 77.5q15 26 39 26q18 0 28.5 -13 t10.5 -34q0 -36 -64.5 -93t-154.5 -66l-68 -78q46 -12 82.5 -45t36.5 -94q0 -58 -52 -99t-110 -41q-41 0 -83 17t-42 45q0 19 11.5 32t29.5 13q16 0 29 -8q26 -21 63 -21q22 0 47 17t25 42q0 28 -14.5 44t-44.5 30q-37 16 -47 31q-9 13 -9 31q0 8 3 16t9.5 17.5t11.5 16 t15 18.5l15 18l4 2q-78 16 -123 80.5t-45 177.5z" />
<glyph unicode="&#xe8;" horiz-adv-x="610" d="M72 258q0 185 107 311.5t235 126.5q87 0 129.5 -45t42.5 -112q0 -47 -18.5 -87.5t-49 -68t-69 -47.5t-78 -29.5t-76.5 -9.5q-19 0 -32 11.5t-13 31.5q0 18 12.5 31t32.5 14q77 2 138 45t61 109q0 31 -21.5 50t-60.5 19q-86 0 -167 -99t-81 -251q0 -31 6.5 -60.5t23 -62 t52.5 -52.5t88 -20q40 0 78.5 18t64.5 50q13 16 33 16q18 0 29.5 -13t11.5 -34q0 -34 -68.5 -77t-154.5 -43q-118 0 -187 74t-69 204zM193 1036q0 17 10 26t26 9q1 0 25 -6q10 -8 28 -23.5t21 -17.5q37 -32 184 -147q17 -14 17 -35q0 -18 -9 -29.5t-22 -11.5q-20 0 -37 12 q-172 137 -203 160q-40 30 -40 63z" />
<glyph unicode="&#xe9;" horiz-adv-x="610" d="M72 258q0 185 107 311.5t235 126.5q87 0 129.5 -45t42.5 -112q0 -47 -18.5 -87.5t-49 -68t-69 -47.5t-78 -29.5t-76.5 -9.5q-19 0 -32 11.5t-13 31.5q0 18 12.5 31t32.5 14q77 2 138 45t61 109q0 31 -21.5 50t-60.5 19q-86 0 -167 -99t-81 -251q0 -31 6.5 -60.5t23 -62 t52.5 -52.5t88 -20q40 0 78.5 18t64.5 50q13 16 33 16q18 0 29.5 -13t11.5 -34q0 -34 -68.5 -77t-154.5 -43q-118 0 -187 74t-69 204zM336 842q0 22 16 35q156 122 185 147q3 2 21 17.5t28 23.5q3 1 8 2.5t9 2.5t7 1q16 0 26.5 -9t10.5 -26q0 -30 -41 -63q-23 -17 -99.5 -77 t-103.5 -79q-17 -12 -36 -12q-12 0 -21.5 12t-9.5 25z" />
<glyph unicode="&#xea;" horiz-adv-x="610" d="M72 258q0 185 107 311.5t235 126.5q87 0 129.5 -45t42.5 -112q0 -47 -18.5 -87.5t-49 -68t-69 -47.5t-78 -29.5t-76.5 -9.5q-19 0 -32 11.5t-13 31.5q0 18 12.5 31t32.5 14q77 2 138 45t61 109q0 31 -21.5 50t-60.5 19q-86 0 -167 -99t-81 -251q0 -31 6.5 -60.5t23 -62 t52.5 -52.5t88 -20q40 0 78.5 18t64.5 50q13 16 33 16q18 0 29.5 -13t11.5 -34q0 -34 -68.5 -77t-154.5 -43q-118 0 -187 74t-69 204zM203 885q0 24 20 37q13 8 63.5 44t88.5 60.5t47 24.5q18 0 27 -9q18 -18 46 -49.5t49 -51t48 -36.5q22 -13 22 -39q0 -13 -14 -24t-33 -11 q-9 0 -24.5 10t-34.5 27t-34 32.5t-34.5 36t-25.5 26.5q-27 -20 -72.5 -56t-67.5 -51q-12 -6 -30 -6q-17 0 -29 11.5t-12 23.5z" />
<glyph unicode="&#xeb;" horiz-adv-x="610" d="M72 258q0 185 107 311.5t235 126.5q87 0 129.5 -45t42.5 -112q0 -47 -18.5 -87.5t-49 -68t-69 -47.5t-78 -29.5t-76.5 -9.5q-19 0 -32 11.5t-13 31.5q0 18 12.5 31t32.5 14q77 2 138 45t61 109q0 31 -21.5 50t-60.5 19q-86 0 -167 -99t-81 -251q0 -31 6.5 -60.5t23 -62 t52.5 -52.5t88 -20q40 0 78.5 18t64.5 50q13 16 33 16q18 0 29.5 -13t11.5 -34q0 -34 -68.5 -77t-154.5 -43q-118 0 -187 74t-69 204zM242 1012q0 19 13 32t32 13q18 0 29.5 -9t15 -23t5 -31t-0.5 -33v-15q0 -2 2 -14t2 -14q0 -19 -13 -32.5t-32 -13.5q-18 0 -28.5 8 t-14.5 26t-5 32t-1 41q0 3 -2 17t-2 16zM463 1012q0 19 13 32t32 13q18 0 29.5 -9t15 -23t5 -31t-0.5 -33v-15q0 -2 2 -14t2 -14q0 -19 -13 -32.5t-32 -13.5q-18 0 -28.5 8t-14.5 26t-5 32t-1 41q0 3 -2 17t-2 16z" />
<glyph unicode="&#xec;" horiz-adv-x="327" d="M31 1036q0 17 10.5 26t26.5 9l24 -6q10 -8 28 -23.5t21 -17.5q29 -25 185 -147q16 -13 16 -35q0 -18 -9 -29.5t-22 -11.5q-20 0 -37 12q-187 149 -202 160q-41 31 -41 63zM82 20q0 21 9.5 117t32.5 248t50 262q3 18 19.5 28t35.5 5q15 -5 25 -17.5t10 -27.5q0 -6 -2 -10 q-28 -111 -53.5 -287.5t-34.5 -321.5q-2 -19 -14 -31t-31 -12q-20 0 -33.5 13.5t-13.5 33.5z" />
<glyph unicode="&#xed;" horiz-adv-x="327" d="M82 20q0 21 9.5 117t32.5 248t50 262q3 18 19.5 28t35.5 5q15 -5 25 -17.5t10 -27.5q0 -6 -2 -10q-28 -111 -53.5 -287.5t-34.5 -321.5q-2 -19 -14 -31t-31 -12q-20 0 -33.5 13.5t-13.5 33.5zM133 842q0 21 17 35q147 115 184 147q3 2 21 17.5t28 23.5q24 6 25 6 q16 0 26 -9t10 -26q0 -30 -41 -63q-24 -18 -99.5 -77.5t-102.5 -78.5q-17 -12 -37 -12q-12 0 -21.5 12t-9.5 25z" />
<glyph unicode="&#xee;" horiz-adv-x="327" d="M20 885q0 23 21 37q13 8 63.5 44t88.5 60.5t47 24.5q17 0 26 -9q17 -17 46 -49.5t50 -51.5t48 -36q22 -13 22 -39q0 -13 -14 -24t-33 -11q-9 0 -24.5 9.5t-34.5 27.5t-34.5 33t-35 35.5t-25.5 26.5q-28 -20 -72.5 -56t-66.5 -51q-12 -6 -31 -6q-17 0 -29 11.5t-12 23.5z M82 20q0 21 9.5 117t32.5 248t50 262q3 18 19.5 28t35.5 5q15 -5 25 -17.5t10 -27.5q0 -6 -2 -10q-28 -111 -53.5 -287.5t-34.5 -321.5q-2 -19 -14 -31t-31 -12q-20 0 -33.5 13.5t-13.5 33.5z" />
<glyph unicode="&#xef;" horiz-adv-x="327" d="M59 1012q0 19 13 32t32 13q24 0 36 -16.5t13.5 -34.5t0.5 -45v-15q0 -2 2 -14t2 -14q0 -19 -13 -32.5t-32 -13.5q-18 0 -28.5 8t-15 26t-5.5 32.5t-1 40.5q0 3 -2 17t-2 16zM82 20q0 21 9.5 117t32.5 248t50 262q3 18 19.5 28t35.5 5q15 -5 25 -17.5t10 -27.5 q0 -6 -2 -10q-28 -111 -53.5 -287.5t-34.5 -321.5q-2 -19 -14 -31t-31 -12q-20 0 -33.5 13.5t-13.5 33.5zM281 1012q0 19 13 32t32 13q18 0 29.5 -9t15 -23t5 -31t-0.5 -33v-15q0 -2 2 -14t2 -14q0 -19 -13 -32.5t-32 -13.5q-18 0 -28.5 8t-14.5 26t-5 32t-1 41q0 3 -2 17 t-2 16z" />
<glyph unicode="&#xf0;" horiz-adv-x="679" d="M63 289q0 177 85.5 293t199.5 116q41 0 72.5 -12.5t47 -30.5t23 -33t7.5 -24q0 -19 -12.5 -32t-32.5 -13q-34 0 -50 27q-19 28 -61 28q-74 0 -130 -90t-56 -229q0 -93 40 -159.5t105 -66.5q64 0 114 55t79 144.5t44 193t15 210.5q0 76 -16 154t-43 124 q-45 -31 -104 -61.5t-89 -30.5q-21 0 -34 10.5t-13 30.5q0 15 12 28.5t27 14.5q51 10 162 82q-40 69 -103 117t-131 55q-15 2 -26 13t-11 26q0 20 14 33.5t33 13.5h9q59 0 150.5 -62t139.5 -149l18 12q102 69 136 78l10 2q24 5 41 -6.5t17 -32.5q0 -17 -11 -29.5t-26 -15.5 q-26 -5 -146 -80q32 -55 54 -149.5t22 -177.5q0 -52 -5 -112.5t-19.5 -157t-52 -187t-93.5 -148.5q-74 -77 -178 -77q-100 0 -167 84.5t-67 220.5z" />
<glyph unicode="&#xf1;" horiz-adv-x="716" d="M70 41q0 21 45 207q40 162 43 252q-3 89 -37 123q-10 17 -10 32q0 17 13 30t32 13q35 0 64.5 -56t23.5 -142q41 94 99 143t128 49q18 0 35 -4.5t40.5 -22t40.5 -46t29.5 -82t12.5 -125.5q0 -140 -47 -375q-6 -41 -45 -41q-20 0 -34 13.5t-14 33.5q0 2 3 8q45 202 45 361 q0 186 -74 186q-84 0 -171 -159t-136 -410q-7 -35 -43 -35q-20 0 -31.5 13t-11.5 34zM182 885q0 33 40 78t91 45q61 0 111 -45q38 -35 70 -35q29 0 47 51q4 12 15 19.5t22 7.5q12 0 24 -9q14 -8 14 -39q0 -28 -32 -67t-80 -39q-71 0 -115 41q-42 39 -74 39q-37 0 -59 -72 q-7 -20 -33 -20q-18 0 -29.5 13t-11.5 32z" />
<glyph unicode="&#xf2;" horiz-adv-x="698" d="M82 295q0 86 29 166q5 14 17.5 23.5t25.5 9.5q18 0 30.5 -13.5t12.5 -31.5q0 -9 -4 -21q-19 -49 -19 -131q0 -90 38 -160.5t110 -70.5q70 0 126.5 56t85.5 139.5t29 172.5q0 46 -11.5 87t-42.5 73.5t-77 32.5q-53 0 -78.5 -35.5t-25.5 -79.5q0 -23 7 -39.5t16 -24.5 t24.5 -12.5t24.5 -5t24 -0.5q20 0 33.5 -13t13.5 -32q0 -45 -55 -45q-86 0 -133 49t-47 123q0 80 53.5 140.5t146.5 60.5q100 0 159.5 -77.5t59.5 -201.5q0 -112 -40 -214.5t-119 -171t-179 -68.5q-106 0 -170.5 86.5t-64.5 228.5zM215 1036q0 17 10.5 26t26.5 9l24 -6 q10 -8 29 -23.5t21 -17.5q37 -32 184 -147q16 -13 16 -35q0 -18 -9 -29.5t-21 -11.5q-20 0 -37 12q-172 137 -203 160q-41 31 -41 63z" />
<glyph unicode="&#xf3;" horiz-adv-x="698" d="M82 295q0 86 29 166q5 14 17.5 23.5t25.5 9.5q18 0 30.5 -13.5t12.5 -31.5q0 -9 -4 -21q-19 -49 -19 -131q0 -90 38 -160.5t110 -70.5q70 0 126.5 56t85.5 139.5t29 172.5q0 46 -11.5 87t-42.5 73.5t-77 32.5q-53 0 -78.5 -35.5t-25.5 -79.5q0 -23 7 -39.5t16 -24.5 t24.5 -12.5t24.5 -5t24 -0.5q20 0 33.5 -13t13.5 -32q0 -45 -55 -45q-86 0 -133 49t-47 123q0 80 53.5 140.5t146.5 60.5q100 0 159.5 -77.5t59.5 -201.5q0 -112 -40 -214.5t-119 -171t-179 -68.5q-106 0 -170.5 86.5t-64.5 228.5zM358 842q0 21 17 35q147 115 184 147 q3 2 21 17.5t28 23.5q24 6 25 6q16 0 26.5 -9t10.5 -26q0 -30 -41 -63q-23 -17 -99.5 -77t-103.5 -79q-17 -12 -37 -12q-12 0 -21.5 12t-9.5 25z" />
<glyph unicode="&#xf4;" horiz-adv-x="698" d="M82 295q0 86 29 166q5 14 17.5 23.5t25.5 9.5q18 0 30.5 -13.5t12.5 -31.5q0 -9 -4 -21q-19 -49 -19 -131q0 -90 38 -160.5t110 -70.5q70 0 126.5 56t85.5 139.5t29 172.5q0 46 -11.5 87t-42.5 73.5t-77 32.5q-53 0 -78.5 -35.5t-25.5 -79.5q0 -23 7 -39.5t16 -24.5 t24.5 -12.5t24.5 -5t24 -0.5q20 0 33.5 -13t13.5 -32q0 -45 -55 -45q-86 0 -133 49t-47 123q0 80 53.5 140.5t146.5 60.5q100 0 159.5 -77.5t59.5 -201.5q0 -112 -40 -214.5t-119 -171t-179 -68.5q-106 0 -170.5 86.5t-64.5 228.5zM207 885q0 24 20 37q13 8 63.5 44 t88.5 60.5t47 24.5q18 0 27 -9q18 -18 46 -49.5t49 -51t48 -36.5q22 -13 22 -39q0 -13 -14 -24t-33 -11q-9 0 -24.5 10t-34.5 27t-34 32.5t-34.5 36t-25.5 26.5q-28 -20 -72.5 -56t-66.5 -51q-12 -6 -31 -6q-17 0 -29 11.5t-12 23.5z" />
<glyph unicode="&#xf5;" horiz-adv-x="698" d="M82 295q0 86 29 166q5 14 17.5 23.5t25.5 9.5q18 0 30.5 -13.5t12.5 -31.5q0 -9 -4 -21q-19 -49 -19 -131q0 -90 38 -160.5t110 -70.5q70 0 126.5 56t85.5 139.5t29 172.5q0 46 -11.5 87t-42.5 73.5t-77 32.5q-53 0 -78.5 -35.5t-25.5 -79.5q0 -23 7 -39.5t16 -24.5 t24.5 -12.5t24.5 -5t24 -0.5q20 0 33.5 -13t13.5 -32q0 -45 -55 -45q-86 0 -133 49t-47 123q0 80 53.5 140.5t146.5 60.5q100 0 159.5 -77.5t59.5 -201.5q0 -112 -40 -214.5t-119 -171t-179 -68.5q-106 0 -170.5 86.5t-64.5 228.5zM195 885q0 33 40 78t91 45q60 0 110 -45 q38 -35 70 -35q29 0 47 51q4 12 15 19.5t22 7.5q12 0 24 -9q15 -9 15 -39q0 -28 -32.5 -67t-80.5 -39q-71 0 -115 41q-42 39 -73 39q-38 0 -60 -72q-7 -20 -32 -20q-18 0 -29.5 13t-11.5 32z" />
<glyph unicode="&#xf6;" horiz-adv-x="698" d="M82 295q0 86 29 166q5 14 17.5 23.5t25.5 9.5q18 0 30.5 -13.5t12.5 -31.5q0 -9 -4 -21q-19 -49 -19 -131q0 -90 38 -160.5t110 -70.5q70 0 126.5 56t85.5 139.5t29 172.5q0 46 -11.5 87t-42.5 73.5t-77 32.5q-53 0 -78.5 -35.5t-25.5 -79.5q0 -23 7 -39.5t16 -24.5 t24.5 -12.5t24.5 -5t24 -0.5q20 0 33.5 -13t13.5 -32q0 -45 -55 -45q-86 0 -133 49t-47 123q0 80 53.5 140.5t146.5 60.5q100 0 159.5 -77.5t59.5 -201.5q0 -112 -40 -214.5t-119 -171t-179 -68.5q-106 0 -170.5 86.5t-64.5 228.5zM266 1012q0 19 13 32t32 13q18 0 29.5 -9 t15 -23t5 -31t-0.5 -33v-15q0 -2 2.5 -14t2.5 -14q0 -19 -13.5 -32.5t-32.5 -13.5q-18 0 -28.5 8t-14.5 26t-5 32t-1 41q0 3 -2 17t-2 16zM487 1012q0 19 13 32t32 13q24 0 36 -16.5t13.5 -34.5t0.5 -45v-15q0 -2 2 -14t2 -14q0 -19 -13 -32.5t-32 -13.5q-18 0 -28.5 8 t-14.5 26t-5 32t-1 41q0 3 -2.5 17t-2.5 16z" />
<glyph unicode="&#xf7;" d="M70 371v86h745v-86h-745zM354 109q0 36 26 62t62 26q35 0 61.5 -26.5t26.5 -61.5q0 -33 -26.5 -61t-59.5 -28q-36 0 -63 27t-27 62zM354 719q0 36 26 62t62 26t62 -26t26 -62q0 -33 -26.5 -60.5t-59.5 -27.5q-37 0 -63.5 26.5t-26.5 61.5z" />
<glyph unicode="&#xf8;" horiz-adv-x="690" d="M45 -86q0 18 10 31q76 109 90 131q-29 37 -46 95.5t-17 123.5q0 90 26.5 169.5t68.5 132t92.5 82.5t99.5 30q20 0 32.5 -10t15.5 -19t3 -18q0 -13 -11.5 -25t-39.5 -12q-65 0 -131 -96t-66 -234q0 -80 25 -135q9 14 125 229l38 70q73 130 95 157q36 46 75 46q41 0 72 -31 q53 -50 53 -197q0 -112 -40 -214.5t-119 -171t-179 -68.5q-63 0 -112 32q-15 -22 -40.5 -60t-39.5 -58q-13 -19 -37 -19q-18 0 -30.5 10.5t-12.5 28.5zM248 88q36 -25 71 -25q70 0 127.5 56.5t87 140.5t29.5 174q0 48 -4.5 81t-10.5 45.5t-13 12.5q-16 0 -99 -157l-39 -74 q-15 -28 -149 -254z" />
<glyph unicode="&#xf9;" horiz-adv-x="688" d="M74 260q0 127 45 365q3 14 5.5 21.5t13.5 17.5t28 10q20 0 33.5 -13t13.5 -32v-11q-49 -221 -49 -358q0 -192 86 -192q64 0 124 80t104 213t67 296q6 39 53 39q15 0 25.5 -16t7.5 -35q-5 -46 -29 -168q-35 -216 -35 -276q0 -98 41 -142q10 -12 10 -30q0 -19 -13 -32 t-32 -13q-34 0 -63.5 59t-28.5 141q-40 -95 -101.5 -149.5t-129.5 -54.5q-25 0 -47 6.5t-46.5 25.5t-42 48.5t-29 81t-11.5 118.5zM150 1036q0 17 10 26t26 9q1 0 25 -6q10 -8 28 -23.5t21 -17.5q37 -32 184 -147q17 -14 17 -35q0 -18 -9 -29.5t-22 -11.5q-20 0 -37 12 q-172 137 -203 160q-40 30 -40 63z" />
<glyph unicode="&#xfa;" horiz-adv-x="688" d="M74 260q0 127 45 365q3 14 5.5 21.5t13.5 17.5t28 10q20 0 33.5 -13t13.5 -32v-11q-49 -221 -49 -358q0 -192 86 -192q64 0 124 80t104 213t67 296q6 39 53 39q15 0 25.5 -16t7.5 -35q-5 -46 -29 -168q-35 -216 -35 -276q0 -98 41 -142q10 -12 10 -30q0 -19 -13 -32 t-32 -13q-34 0 -63.5 59t-28.5 141q-40 -95 -101.5 -149.5t-129.5 -54.5q-25 0 -47 6.5t-46.5 25.5t-42 48.5t-29 81t-11.5 118.5zM313 842q0 21 17 35q147 115 184 147q3 2 21 17.5t28 23.5q24 6 25 6q16 0 26.5 -9t10.5 -26q0 -30 -41 -63q-23 -17 -99.5 -77t-103.5 -79 q-17 -12 -37 -12q-12 0 -21.5 12t-9.5 25z" />
<glyph unicode="&#xfb;" horiz-adv-x="688" d="M74 260q0 127 45 365q3 14 5.5 21.5t13.5 17.5t28 10q20 0 33.5 -13t13.5 -32v-11q-49 -221 -49 -358q0 -192 86 -192q64 0 124 80t104 213t67 296q6 39 53 39q15 0 25.5 -16t7.5 -35q-5 -46 -29 -168q-35 -216 -35 -276q0 -98 41 -142q10 -12 10 -30q0 -19 -13 -32 t-32 -13q-34 0 -63.5 59t-28.5 141q-40 -95 -101.5 -149.5t-129.5 -54.5q-25 0 -47 6.5t-46.5 25.5t-42 48.5t-29 81t-11.5 118.5zM180 885q0 23 21 37q14 9 63.5 44t87.5 60t47 25q18 0 27 -9q18 -18 46 -49.5t49 -51t48 -36.5q23 -13 23 -39q0 -13 -14 -24t-33 -11 q-9 0 -24.5 9.5t-34.5 27.5t-34.5 33t-35 35.5t-25.5 26.5q-28 -20 -72.5 -56t-66.5 -51q-12 -6 -31 -6q-17 0 -29 11.5t-12 23.5z" />
<glyph unicode="&#xfc;" horiz-adv-x="688" d="M74 260q0 127 45 365q3 14 5.5 21.5t13.5 17.5t28 10q20 0 33.5 -13t13.5 -32v-11q-49 -221 -49 -358q0 -192 86 -192q64 0 124 80t104 213t67 296q6 39 53 39q15 0 25.5 -16t7.5 -35q-5 -46 -29 -168q-35 -216 -35 -276q0 -98 41 -142q10 -12 10 -30q0 -19 -13 -32 t-32 -13q-34 0 -63.5 59t-28.5 141q-40 -95 -101.5 -149.5t-129.5 -54.5q-25 0 -47 6.5t-46.5 25.5t-42 48.5t-29 81t-11.5 118.5zM240 1012q0 19 13 32t32 13q18 0 29.5 -9t15 -23t5 -31t-0.5 -33v-15q0 -2 2 -14t2 -14q0 -19 -13 -32.5t-32 -13.5q-18 0 -28.5 8t-14.5 26 t-5 32t-1 41q0 3 -2 17t-2 16zM461 1012q0 19 13 32t32 13q18 0 29.5 -9t15 -23t5 -31t-0.5 -33v-15q0 -2 2 -14t2 -14q0 -19 -13 -32.5t-32 -13.5q-18 0 -28.5 8t-14.5 26t-5 32t-1 41q0 3 -2 17t-2 16z" />
<glyph unicode="&#xfd;" horiz-adv-x="677" d="M-174 -465q0 76 44.5 142.5t114.5 109.5t154 67.5t166 24.5q75 0 131 -18q54 168 76 393q-39 -110 -113 -186t-147 -76q-46 0 -80 23t-53 63.5t-28 89t-9 104.5q0 129 45 373q9 33 26 42q10 5 23 5q19 0 32 -13.5t13 -33.5l-2 -8q-45 -247 -45 -365q0 -28 2.5 -55.5 t10 -60.5t24 -53.5t41.5 -20.5q61 0 126.5 89.5t108 223t41.5 254.5q0 18 14 30.5t33 12.5q18 0 29.5 -13t11.5 -32q0 -69 -20 -389q-17 -240 -74 -430q53 -31 86 -79.5t33 -104.5q0 -19 -13 -32t-32 -13t-31 13t-12 32q0 37 -21.5 62t-42.5 34q-66 -170 -200 -274.5 t-273 -104.5q-82 0 -136 43t-54 131zM-82 -459q0 -46 33 -71t78 -25q108 0 216 93.5t167 244.5q-44 12 -107 12q-86 0 -175 -32.5t-150.5 -92.5t-61.5 -129zM348 842q0 21 17 35q147 115 184 147q3 2 21 17.5t28 23.5q24 6 25 6q16 0 26 -9t10 -26q0 -30 -41 -63 q-24 -18 -99.5 -77.5t-102.5 -78.5q-17 -12 -37 -12q-12 0 -21.5 12t-9.5 25z" />
<glyph unicode="&#xfe;" horiz-adv-x="833" d="M-33 1036q0 19 13 32t30 13q11 0 32.5 -12.5t55.5 -49t67 -91t67 -151.5t55 -218q126 139 268 139q104 0 170 -82.5t66 -212.5q0 -110 -33 -206t-95.5 -156.5t-140.5 -60.5q-73 0 -113 44t-40 87q0 19 13.5 32t33.5 13q14 0 26.5 -9t16.5 -24q8 -24 25.5 -39.5 t39.5 -15.5q72 0 124 100t52 235q0 88 -37.5 147.5t-107.5 59.5q-133 0 -252 -166q27 -209 27 -553q0 -94 -2.5 -159.5t-12 -135.5t-25.5 -112.5t-45.5 -70t-70.5 -27.5q-51 0 -86.5 34.5t-51.5 91.5t-22 108t-6 106q0 191 54 386.5t149 350.5q-62 423 -225 534 q-19 11 -19 39zM102 -274q0 -94 11 -154t26.5 -81.5t34.5 -20.5q66 7 66 421q0 279 -11 431q-60 -122 -93.5 -285.5t-33.5 -310.5z" />
<glyph unicode="&#xff;" horiz-adv-x="677" d="M-174 -465q0 76 44.5 142.5t114.5 109.5t154 67.5t166 24.5q75 0 131 -18q54 168 76 393q-39 -110 -113 -186t-147 -76q-46 0 -80 23t-53 63.5t-28 89t-9 104.5q0 129 45 373q9 33 26 42q10 5 23 5q19 0 32 -13.5t13 -33.5l-2 -8q-45 -247 -45 -365q0 -28 2.5 -55.5 t10 -60.5t24 -53.5t41.5 -20.5q61 0 126.5 89.5t108 223t41.5 254.5q0 18 14 30.5t33 12.5q18 0 29.5 -13t11.5 -32q0 -69 -20 -389q-17 -240 -74 -430q53 -31 86 -79.5t33 -104.5q0 -19 -13 -32t-32 -13t-31 13t-12 32q0 37 -21.5 62t-42.5 34q-66 -170 -200 -274.5 t-273 -104.5q-82 0 -136 43t-54 131zM-82 -459q0 -46 33 -71t78 -25q108 0 216 93.5t167 244.5q-44 12 -107 12q-86 0 -175 -32.5t-150.5 -92.5t-61.5 -129zM225 1012q0 19 13 32t32 13q18 0 29.5 -9t15 -23t5 -31t-0.5 -33v-15q0 -2 2.5 -14t2.5 -14q0 -19 -13 -32.5 t-32 -13.5q-18 0 -28.5 8t-15 26t-5.5 32.5t-1 40.5q0 3 -2 17t-2 16zM446 1012q0 19 13.5 32t32.5 13q18 0 29.5 -9t15 -23t5 -31t-0.5 -33v-15q0 -2 2 -14t2 -14q0 -19 -13 -32.5t-32 -13.5q-18 0 -28.5 8t-14.5 26t-5 32t-1 41q0 3 -2.5 17t-2.5 16z" />
<glyph unicode="&#x152;" horiz-adv-x="2240" d="M84 610q0 129 42 250.5t112 194.5q14 14 32 14q19 0 32 -13t13 -32q0 -18 -12 -33q-58 -60 -92.5 -164t-34.5 -217q0 -131 38.5 -237t104 -173t149 -103t175.5 -36q211 0 342 163.5t131 424.5q0 111 -18 182q-232 -6 -409.5 35.5t-252.5 116.5q-57 57 -57 127 q0 74 76.5 130t206.5 56q173 0 307.5 -96.5t195.5 -281.5q137 5 277 47q10 95 53.5 183t114.5 146t151 58q59 0 94 -34t35 -89q0 -89 -98.5 -175.5t-259.5 -146.5q0 -46 18 -98q117 49 236 49q128 0 186 -49t58 -115t-53 -105.5t-140 -39.5q-94 0 -178 35.5t-141 105.5 q-17 -11 -35 -27.5t-43 -47t-40.5 -77t-15.5 -100.5q0 -148 109 -245q72 93 185.5 144.5t224.5 51.5q138 0 204 -70q56 -59 56 -139q0 -89 -78 -144.5t-221 -55.5q-206 0 -355 92q-25 -40 -37 -76t-14 -59.5t-2 -69.5q0 -17 -13 -30t-32 -13q-22 0 -33 14t-12.5 26t-1.5 32 q0 107 72 225q-142 127 -142 317q0 204 179 328q-24 59 -29 111q-128 -35 -256 -41q20 -84 20 -187q0 -146 -41.5 -270.5t-115 -213t-179 -138.5t-229.5 -50q-110 0 -209.5 41.5t-178 119t-125 200t-46.5 272.5zM471 1108q0 -37 41.5 -72.5t116.5 -63t191 -43.5t253 -14 q-33 81 -83 141.5t-107 93t-112.5 47.5t-111.5 15q-74 0 -131 -26t-57 -78zM1538 995q116 47 188 112t72 122q0 11 -11.5 23t-25.5 12q-71 0 -136 -78.5t-87 -190.5zM1561 141q72 -39 141.5 -58.5t165.5 -19.5q95 0 150 30.5t55 88.5q0 52 -44.5 87.5t-125.5 35.5 q-97 0 -189 -43.5t-153 -120.5zM1595 731q86 -98 242 -98q46 0 74 17t28 44q0 80 -153 80q-49 0 -103 -11.5t-88 -31.5z" />
<glyph unicode="&#x153;" horiz-adv-x="1087" d="M82 281q0 101 31 172q4 13 17 20.5t26 7.5q18 0 28.5 -13t10.5 -34q0 -1 -5 -16q-16 -55 -16 -137q0 -99 38 -166.5t116 -67.5q58 0 104 36t72.5 92t40.5 118.5t14 122.5q0 46 -10.5 87.5t-40.5 75t-76 33.5q-55 0 -84 -32t-29 -76q0 -20 11 -35.5t26 -15.5q14 0 23 12 q13 10 31 10q20 0 32.5 -11t12.5 -30q0 -28 -32 -47.5t-67 -19.5q-51 0 -90 39.5t-39 93.5q0 78 55.5 137t149.5 59q70 0 124 -42.5t77 -123.5q44 79 113 120.5t143 41.5q85 0 129.5 -43.5t44.5 -113.5q0 -75 -48 -131.5t-112.5 -81.5t-130.5 -25q-20 0 -32.5 9.5 t-12.5 27.5q0 20 12.5 32.5t30.5 12.5q78 3 139.5 46.5t61.5 109.5q0 32 -21 52.5t-61 20.5t-83 -24.5t-80.5 -68t-62 -113t-24.5 -150.5q0 -85 44 -140t128 -55q82 0 127 58q16 16 33 16q20 0 31.5 -11t11.5 -30q0 -33 -56 -75t-151 -42q-79 0 -142 39t-90 115 q-34 -64 -82.5 -102.5t-87.5 -50t-79 -11.5q-111 0 -177.5 85.5t-66.5 232.5z" />
<glyph unicode="&#x178;" horiz-adv-x="1406" d="M0 -174q0 103 64 176.5t155 73.5q71 0 122.5 -48t51.5 -124q0 -18 -2 -35.5t-8 -38t-18.5 -33t-30.5 -12.5q-20 0 -33.5 13.5t-13.5 31.5q0 8 4 16q10 33 10 58q0 40 -24.5 63t-57.5 23q-52 0 -90.5 -47.5t-38.5 -116.5q0 -58 21.5 -104.5t55 -75.5t76.5 -48.5 t84.5 -27.5t80.5 -8q102 0 195 25.5t176.5 83t145 142t99 210.5t39.5 280q-80 -80 -152 -120t-151 -40q-52 0 -93.5 18.5t-68 46.5t-45.5 74t-29 85.5t-15 98.5t-6 96.5t-1 94.5v129q0 47 -4 121q-64 -22 -133 -22q-124 0 -206.5 70.5t-82.5 181.5q0 87 59.5 145.5 t151.5 58.5q41 0 80.5 -14t79.5 -45t71.5 -90.5t48.5 -140.5q57 55 79 131.5t22 132.5q0 5 -3 35t-3 36q0 18 11 32t29 14q19 0 30.5 -9t16.5 -28.5t6 -35t1 -44.5q0 -105 -43 -202.5t-129 -160.5q8 -68 8 -342q0 -212 44 -296.5t138 -84.5q73 0 140 48t145 141 q-8 222 -8 241q0 93 2.5 158t10 139t22.5 122.5t39.5 90.5t62.5 62t88 20q46 0 88 -34q53 -45 53 -168q0 -136 -76 -319t-192 -331q4 -78 4 -90q0 -182 -45.5 -327.5t-119.5 -237.5t-173 -153.5t-200 -87t-207 -25.5q-62 0 -120 13t-110.5 41t-92 68t-62.5 98t-23 128z M168 1137q0 -76 57 -122t142 -46q65 0 118 24q-20 119 -69 191.5t-129 72.5q-52 0 -85.5 -35t-33.5 -85zM805 1626q0 19 13 32t32 13q18 0 29.5 -9t15 -23t5 -31t-0.5 -33v-14q0 -2 2 -14.5t2 -14.5q0 -19 -13 -32t-32 -13q-14 0 -24 6.5t-14.5 14.5t-7 24.5t-3 27.5 t-0.5 33q0 3 -2 17t-2 16zM1026 1626q0 19 13 32t32 13q18 0 29.5 -9t15 -23t5 -31t-0.5 -33v-14q0 -2 2 -14.5t2 -14.5q0 -19 -13 -32t-32 -13q-14 0 -24 6.5t-14.5 14.5t-7 24.5t-3 27.5t-0.5 33q0 3 -2 17t-2 16zM1141 659q0 -10 2 -55.5t2 -71.5q80 126 131 272t51 247 q0 116 -61 116q-69 0 -97 -124.5t-28 -383.5z" />
<glyph unicode="&#x2c6;" horiz-adv-x="593" d="M92 885q0 23 21 37q14 9 63.5 44t87.5 60t47 25q18 0 27 -9q18 -18 46 -49.5t49 -51t48 -36.5q23 -13 23 -39q0 -13 -14 -24t-33 -11q-9 0 -24.5 9.5t-34.5 27.5t-34.5 33t-35 35.5t-25.5 26.5q-28 -20 -72.5 -56t-66.5 -51q-12 -6 -31 -6q-17 0 -29 11.5t-12 23.5z" />
<glyph unicode="&#x2dc;" horiz-adv-x="667" d="M117 885q0 33 40 78t91 45q60 0 110 -45q38 -35 70 -35q29 0 47 51q4 12 15 19.5t22 7.5q13 0 25 -9q14 -8 14 -39q0 -28 -32.5 -67t-80.5 -39q-70 0 -114 41q-42 39 -74 39q-38 0 -60 -72q-7 -20 -32 -20q-18 0 -29.5 13t-11.5 32z" />
<glyph unicode="&#x2000;" horiz-adv-x="864" />
<glyph unicode="&#x2001;" horiz-adv-x="1729" />
<glyph unicode="&#x2002;" horiz-adv-x="864" />
<glyph unicode="&#x2003;" horiz-adv-x="1729" />
<glyph unicode="&#x2004;" horiz-adv-x="576" />
<glyph unicode="&#x2005;" horiz-adv-x="432" />
<glyph unicode="&#x2006;" horiz-adv-x="288" />
<glyph unicode="&#x2007;" horiz-adv-x="288" />
<glyph unicode="&#x2008;" horiz-adv-x="216" />
<glyph unicode="&#x2009;" horiz-adv-x="345" />
<glyph unicode="&#x200a;" horiz-adv-x="96" />
<glyph unicode="&#x2010;" horiz-adv-x="628" d="M70 479q0 13 3.5 22.5t13 15t18 9t27.5 4.5t31.5 1.5t39.5 0.5l147 -2q108 0 148 11q8 4 14 4q18 0 31.5 -13.5t13.5 -31.5q0 -66 -207 -58l-147 2q-64 0 -80 -4q-21 -7 -37 5.5t-16 33.5z" />
<glyph unicode="&#x2011;" horiz-adv-x="628" d="M70 479q0 13 3.5 22.5t13 15t18 9t27.5 4.5t31.5 1.5t39.5 0.5l147 -2q108 0 148 11q8 4 14 4q18 0 31.5 -13.5t13.5 -31.5q0 -66 -207 -58l-147 2q-64 0 -80 -4q-21 -7 -37 5.5t-16 33.5z" />
<glyph unicode="&#x2012;" horiz-adv-x="628" d="M70 479q0 13 3.5 22.5t13 15t18 9t27.5 4.5t31.5 1.5t39.5 0.5l147 -2q108 0 148 11q8 4 14 4q18 0 31.5 -13.5t13.5 -31.5q0 -66 -207 -58l-147 2q-64 0 -80 -4q-21 -7 -37 5.5t-16 33.5z" />
<glyph unicode="&#x2013;" horiz-adv-x="921" d="M45 483q0 15 10 28.5t25 16.5q54 11 186 11q30 0 159.5 -2t164.5 -2q176 0 221 16q6 2 14 2q31 0 45 -31q2 -4 2 -14q0 -29 -28 -43q-52 -23 -252 -23q-28 0 -159 2t-167 2q-122 0 -168 -6q-2 -2 -10 -2q-17 0 -30 13t-13 32z" />
<glyph unicode="&#x2014;" horiz-adv-x="1638" d="M49 483q0 17 11 29.5t28 15.5q56 9 244 9q42 0 309.5 -2.5t314.5 -2.5q230 0 586 27h6q19 0 32 -13t13 -32q0 -17 -11 -29.5t-28 -15.5q-221 -27 -587 -27h-637q-197 0 -230 -4h-6q-19 0 -32 13t-13 32z" />
<glyph unicode="&#x2018;" horiz-adv-x="163" d="M8 1024q0 40 23 110t49 99q9 14 33 14q20 0 32.5 -13t12.5 -32q0 -21 -13 -31q-29 -32 -47 -155q-3 -17 -16.5 -28t-30.5 -11t-30 14t-13 33z" />
<glyph unicode="&#x2019;" horiz-adv-x="163" d="M37 1022q0 14 8 25q25 36 25 161q0 19 13 32t32 13t32 -13t13 -32q0 -233 -76 -233q-20 0 -33.5 13.5t-13.5 33.5z" />
<glyph unicode="&#x201a;" horiz-adv-x="163" d="M37 -109q0 14 8 25q25 36 25 162q0 19 13 32t32 13t32 -13t13 -32q0 -234 -76 -234q-20 0 -33.5 13.5t-13.5 33.5z" />
<glyph unicode="&#x201c;" horiz-adv-x="337" d="M8 1024q0 40 23 110t51 99q12 14 33 14q19 0 33 -13t14 -32q0 -16 -15 -31q-29 -32 -47 -155q-3 -17 -16.5 -28t-28.5 -11q-20 0 -33.5 14t-13.5 33zM182 1024q0 40 23 110t49 99q9 14 35 14q19 0 31 -13t12 -32q0 -21 -10 -31q-28 -28 -50 -155q-3 -17 -15.5 -28 t-29.5 -11q-19 0 -32 14t-13 33z" />
<glyph unicode="&#x201d;" horiz-adv-x="337" d="M37 1018q0 16 6 24q25 41 25 162q0 19 13 32t30 13q20 0 33.5 -13t13.5 -32q0 -233 -76 -233q-20 0 -32.5 13.5t-12.5 33.5zM215 1024q0 9 8 25q23 41 23 161q0 19 13.5 32t33.5 13q19 0 32 -13t13 -32q0 -231 -78 -231q-18 0 -31.5 13.5t-13.5 31.5z" />
<glyph unicode="&#x201e;" horiz-adv-x="337" d="M37 -113q0 17 6 25q25 41 25 162q0 19 13 32t30 13q20 0 33.5 -13t13.5 -32q0 -234 -76 -234q-20 0 -32.5 13.5t-12.5 33.5zM215 -106q0 8 8 24q23 41 23 162q0 19 13.5 32t33.5 13q19 0 32 -13t13 -32q0 -232 -78 -232q-18 0 -31.5 14t-13.5 32z" />
<glyph unicode="&#x2022;" horiz-adv-x="425" d="M59 625q0 60 43 100.5t103 40.5q79 0 123.5 -46.5t44.5 -129.5q0 -74 -57 -127t-140 -53q-51 0 -51 41q0 19 11 28.5t40 9.5q44 0 77.5 30t33.5 73t-21.5 65.5t-54.5 22.5q-27 0 -46.5 -15t-19.5 -38q0 -4 3.5 -8.5t7.5 -5.5t6 1l4 7q16 24 41 24q21 0 33 -13.5t12 -33.5 q0 -30 -24.5 -52t-65.5 -22q-43 0 -73 31t-30 70z" />
<glyph unicode="&#x2026;" horiz-adv-x="1638" d="M221 23l8 69q3 19 20 29.5t40 7.5q21 -3 33 -17.5t10 -33.5l-10 -70q-3 -17 -17.5 -27t-34.5 -10q-24 0 -38 15t-11 37zM764 23l8 69q3 19 19.5 29.5t39.5 7.5q21 -3 33 -17.5t10 -33.5l-10 -70q-3 -17 -17 -27t-34 -10q-24 0 -38 15t-11 37zM1307 23l8 69 q3 19 19.5 29.5t39.5 7.5q21 -3 33 -17.5t10 -33.5l-10 -70q-3 -17 -17 -27t-34 -10q-24 0 -38 15t-11 37z" />
<glyph unicode="&#x202f;" horiz-adv-x="345" />
<glyph unicode="&#x2039;" horiz-adv-x="417" d="M51 426q0 18 19 37q8 5 17 12.5t21 20.5t18.5 20t23 26.5t20.5 24.5q56 69 70.5 83t31.5 14q20 0 33.5 -13.5t13.5 -32.5q0 -15 -12 -30q-113 -130 -145 -162q45 -37 96 -68q38 -28 51 -38.5t23 -24t10 -27.5q0 -18 -12.5 -31.5t-30.5 -13.5t-33 15q-37 30 -61 45 q-104 75 -139 110q-15 11 -15 33z" />
<glyph unicode="&#x203a;" horiz-adv-x="417" d="M76 266v7.5t1.5 6t2.5 5.5t4 6.5t5.5 7.5t9 10.5t10.5 12.5q71 75 145 133l-39 32q-47 37 -102 99q-15 15 -15 32q0 18 13.5 31t33.5 13q24 0 33 -15q12 -14 87 -83.5t87 -82.5q13 -22 13 -30q0 -23 -21 -37q-78 -53 -168 -154q-22 -25 -31.5 -32t-23.5 -7q-19 0 -32 13 t-13 32z" />
<glyph unicode="&#x205f;" horiz-adv-x="432" />
<glyph unicode="&#x20ac;" horiz-adv-x="1275" d="M20 475q0 18 14.5 31.5t33.5 13.5h8q14 -5 51 -8q-2 25 -2 76v35q-55 3 -80 13t-25 34q0 18 14.5 31.5t33.5 13.5h8q12 -4 22 -4q5 -1 17 -2t18 -2q16 118 63.5 220t124.5 182.5t191 128.5t252 52q39 95 119.5 148t177.5 53q117 0 117 -55q0 -20 -12.5 -30.5t-32.5 -10.5 q-5 0 -35.5 4t-36.5 4q-132 0 -193 -111q175 0 262 -65t87 -185q0 -87 -65.5 -144.5t-168.5 -57.5q-128 0 -188 84t-60 223q0 21 4 53q-215 -21 -348 -159.5t-166 -335.5q81 0 221 8l162 10q190 11 289 8q20 0 32.5 -13t12.5 -32q0 -9 -2 -16t-7 -11t-9 -6.5t-13 -3 t-14.5 -1t-18 0t-18.5 0.5q-77 0 -295 -12l-180 -10q-106 -4 -170 -4v-35q0 -53 4 -78q61 0 187 8l141 10q159 12 268 9q20 0 32.5 -13t12.5 -32q0 -9 -2 -16t-7 -11t-9 -6.5t-13 -3t-14.5 -1t-18 0t-18.5 0.5q-38 0 -274 -13l-160 -10q-78 -4 -111 -4q40 -167 161 -268 t304 -101q135 0 239 48t165 137q13 20 39 20q18 0 30.5 -13.5t12.5 -33.5q0 -12 -17 -38.5t-56 -62.5t-92.5 -68t-138.5 -54.5t-182 -22.5q-223 0 -368.5 125t-188.5 332q-68 0 -94.5 9.5t-26.5 37.5zM827 1147q0 -101 41 -160t115 -59q72 0 105.5 37.5t33.5 76.5 q0 166 -288 166q-7 -31 -7 -61z" />
<glyph unicode="&#x2122;" horiz-adv-x="1269" d="M-2 1169q0 43 39 76q57 49 248 49q78 0 272 -6q92 -3 86 -135q36 69 85.5 106t88.5 37q47 0 82 -38t39 -113q31 66 81.5 110.5t106.5 44.5q17 0 36.5 -8.5t41 -27.5t35.5 -60t14 -96q0 -124 -49 -332q-7 -28 -45 -28q-18 0 -29.5 8.5t-11.5 19.5q0 6 5.5 21.5t6.5 21.5 q2 9 10 45.5t14 68.5t11.5 80t5.5 91q0 44 -15 77t-40 33q-60 0 -115.5 -87t-80.5 -242q-4 -22 -12 -53.5t-9 -36.5q-5 -31 -35 -31q-18 0 -29.5 12t-11.5 27q0 11 19 104q22 112 22 191q0 116 -59 116q-56 0 -120.5 -111t-104.5 -319q-6 -32 -39 -32q-18 0 -28.5 12 t-10.5 31q0 8 4 25.5t11 44.5t11 46q37 171 37 215v10.5v15.5t-1 16.5t-3 18t-6 14.5t-10 11q-207 4 -240 2q-19 -48 -41 -127.5t-22 -140.5q0 -107 71 -115q15 0 26 -11.5t11 -26.5q0 -17 -12 -29t-29 -14q-10 2 -12 2q-67 10 -101 60.5t-34 127.5q0 31 8 75t15 70.5t21 75 t15 51.5q-71 -3 -98 -10q-14 -5 -30 -19t-17 -24q-7 -33 -37 -33q-41 0 -41 43z" />
<glyph unicode="&#xe000;" horiz-adv-x="696" d="M0 0v696h696v-696h-696z" />
</font>
</defs>
</svg>
